<svg id="Calque_1" data-name="Calque 1" xmlns="http://www.w3.org/2000/svg" xmlns:xlink="http://www.w3.org/1999/xlink" viewBox="0 0 1920 663"><defs><style>.cls-1,.cls-15{fill:none;}.cls-2{clip-path:url(#clip-path);}.cls-3{fill:#16213b;}.cls-4{fill:#404e63;}.cls-5{fill:#4c5968;}.cls-6{fill:#f2f2f2;}.cls-7{fill:#31537c;}.cls-8{fill:#426895;}.cls-9{fill:#eaf9fe;}.cls-10{fill:#554034;}.cls-11{fill:#755544;}.cls-12{fill:#9a715a;}.cls-13{fill:#bfa389;}.cls-14{fill:#b48d71;}.cls-15{stroke:#9a715a;stroke-linecap:round;stroke-linejoin:round;}.cls-16{fill:#add5ff;}.cls-17{opacity:0.3;}.cls-18{fill:#fff;}</style><clipPath id="clip-path"><rect class="cls-1" y="0.5" width="1920" height="663"/></clipPath></defs><title>Mail Tester_design NEW</title><g class="cls-2"><rect class="cls-3" y="-0.5" width="1920" height="642"/><path class="cls-4" d="M248.22,268.27a30.36,30.36,0,0,1,12,2.41,26.63,26.63,0,0,1,26.55-26.49c.45,0,.88,0,1.32.06a58.6,58.6,0,0,1,104.39-9.93,37.1,37.1,0,0,1,45,27,37.2,37.2,0,0,1,45.68,8.94,26.64,26.64,0,1,1,.13,48,37.2,37.2,0,0,1-52.79,4.37A83.84,83.84,0,0,1,300.3,316a26.49,26.49,0,0,1-28.38,2.38,30.63,30.63,0,1,1-23.7-50.13Z"/><path class="cls-5" d="M299.9,295.31a35.87,35.87,0,0,1-17.24-4.55,47.79,47.79,0,0,1-57.23-13.91,30.56,30.56,0,0,1,34.73-7.37A26.62,26.62,0,0,1,287,243.27c.45,0,.89,0,1.33.08a58.59,58.59,0,0,1,104.48-8.82,36.57,36.57,0,0,1,8.81-1A37.27,37.27,0,0,1,437.5,262a37.19,37.19,0,0,1,45.58,9.42,26.35,26.35,0,0,1,11.47-2.52,26.64,26.64,0,1,1-.42,53.27c-.7,0-1.39-.08-2.08-.14a36.06,36.06,0,0,1-20-15.11A47.92,47.92,0,0,1,422,309,101.14,101.14,0,0,1,309,294.17,35.83,35.83,0,0,1,299.9,295.31Z"/><path class="cls-5" d="M471.77,75.71A9,9,0,0,0,459,66.16,14.46,14.46,0,1,0,441.71,83a14.21,14.21,0,0,0-.56,3.94,14.46,14.46,0,1,0,27.65-5.91A8.89,8.89,0,0,0,471.77,75.71Z"/><path class="cls-5" d="M1574.56,113.07a14.37,14.37,0,0,0-.48-25.4,23,23,0,1,0-38-5.27,23.28,23.28,0,0,0-5.5,3.14,23,23,0,1,0,34.36,29A14.23,14.23,0,0,0,1574.56,113.07Z"/><path class="cls-4" d="M970.15,38.08a47.61,47.61,0,0,0-38.9,15.27,29.64,29.64,0,1,0-14.75,56.47,29.38,29.38,0,0,0,8.31-.53,47.77,47.77,0,1,0,45.34-71.21Z"/><path class="cls-5" d="M970.15,38.08a47.61,47.61,0,0,0-38.9,15.27,29.59,29.59,0,0,0-40.86,35.11A50.88,50.88,0,0,0,943,96.15,51.11,51.11,0,0,0,998.9,120.6a47.72,47.72,0,0,0-28.75-82.52Z"/><path class="cls-4" d="M822.44,322.42a32.44,32.44,0,0,1,18.69,21.46,20.18,20.18,0,1,1-13.71,35.8,32.52,32.52,0,1,1-5-57.26Z"/><path class="cls-5" d="M822.64,322.43A32.44,32.44,0,0,1,841.18,344a20.15,20.15,0,0,1,13.41,34.14A34.69,34.69,0,0,1,820.47,366a34.76,34.76,0,0,1-41.41-3.09,32.48,32.48,0,0,1,43.58-40.5Z"/><path class="cls-6" d="M1202.67,156.91l-6.07,66.78-37.26,30.65.71,15.69,34.14,50.12,14-5.74s11.29,48.08,12,48.08-17-37.94-17-37.94l-14,2.94-39.22-54-2.44-20.72,40.61-31.8,7.75-67.35Z"/><path class="cls-4" d="M1085,116.93a53.86,53.86,0,0,1,53.72-50c.75,0,1.49,0,2.24,0A68.4,68.4,0,1,1,1276,46.69a53.85,53.85,0,0,1,80.67,45.91,47.88,47.88,0,0,1,39.14,23.56,26.83,26.83,0,0,1,21.36,13.18,37.36,37.36,0,0,1,21.37-6.55c19,0,34.44,13.54,34.44,30.24s-15.42,30.24-34.44,30.24a36.67,36.67,0,0,1-25-9.5,18.47,18.47,0,0,1-29.18,4.12,47.85,47.85,0,0,1-65-5,30.75,30.75,0,0,1-51.15,6.19,78.63,78.63,0,0,1-124.1-4.67,53.91,53.91,0,0,1-31.38-6.41,30.75,30.75,0,1,1-27.73-51Z"/><path class="cls-5" d="M1102.52,144a41.06,41.06,0,0,1-43.33,2.55A30.75,30.75,0,0,1,1085,116.93a53.86,53.86,0,0,1,53.72-50c.75,0,1.49,0,2.24,0A68.4,68.4,0,1,1,1276,46.69a53.85,53.85,0,0,1,80.67,45.91,47.88,47.88,0,0,1,39.14,23.56,26.83,26.83,0,0,1,21.36,13.18,37.36,37.36,0,0,1,21.37-6.55c19,0,34.44,13.54,34.44,30.24a26.62,26.62,0,0,1-.93,6.88,47,47,0,0,1-61.49-10.7A47,47,0,0,1,1328,130.37a47,47,0,0,1-64.08-29.08,72.71,72.71,0,0,1-109.17,48.2,47,47,0,0,1-52.2-5.49Z"/><path class="cls-6" d="M1523.12,266l-16.25,14.44-14.69,1.62-6.29,7,.32,9.63,9.64-.32,7.83,13.64-6.54,8.15,1.47,9.88-8.09,21,10.36,13s6.12,4.9,7.26,5.14.24,15.59.24,15.59l-3-13.79-8.4-5.39-9.87-15.27,7.44-23.51-2.2-6.44.73-3.43,4.66-5-5.14-9.47-10.78.08L1479.93,289l9.56-11.1,16.32-3.67L1520.19,263Z"/><path class="cls-6" d="M707.63,164.64,716.56,197l17.66,14.43,2.26,14.37L728,238l-12.21-8.51-21.58,11.09,1.61,16.06L685.61,268.2l-7.12,34-24.32,8.12s-12,1.21-13.72.57-13.4,20-13.4,20l15.49-15.34,15.41.07,25.6-11.49,10.09-36.69,8.26-6.5,1.93-5.06L702,245.48l14.6-8,13.89,9.14,13.8-16-3.06-22.39-18.07-18.45L714,163.2Z"/><path class="cls-4" d="M885.5,138.15a21.39,21.39,0,0,0-9.15,2.07,24,24,0,0,0-25.2-14.41,26.17,26.17,0,0,0,.3-3.78A26.81,26.81,0,0,0,818.34,95.9a37.55,37.55,0,0,0-46.06-44.36,60.93,60.93,0,0,0-110.16,7,30.37,30.37,0,0,0-37.37,36.63c-.3,0-.59,0-.89,0a30.47,30.47,0,0,0-30.47,30.46c0,.62.06,1.23.1,1.84-.33,0-.66,0-1,0a31.26,31.26,0,0,0-24.13,11.34c-7-4.81-16.52-7.75-27-7.75C519.65,131,502,143.82,502,159.66s17.65,28.67,39.42,28.67c10.92,0,20.81-3.23,28-8.44a31.3,31.3,0,0,0,52.3-9.68A41.23,41.23,0,0,0,695,175.56a57.32,57.32,0,0,0,83.34-7.47,36.67,36.67,0,0,0,64,2.82,24,24,0,0,0,24.53-.56,21.5,21.5,0,1,0,18.64-32.2Z"/><path class="cls-5" d="M895.58,140.67a21.34,21.34,0,0,0-19.23-.45,24,24,0,0,0-25.2-14.41,26.17,26.17,0,0,0,.3-3.78A26.81,26.81,0,0,0,818.34,95.9a37.55,37.55,0,0,0-46.06-44.36,60.93,60.93,0,0,0-110.16,7,30.37,30.37,0,0,0-37.37,36.63c-.3,0-.59,0-.89,0a30.47,30.47,0,0,0-30.47,30.46c0,.62.06,1.23.1,1.84-.33,0-.66,0-1,0a31.26,31.26,0,0,0-24.13,11.34c-7-4.81-16.52-7.75-27-7.75-17.14,0-31.72,8-37.15,19.07,9.73,5.42,22.4,8.7,36.26,8.7,17.23,0,32.62-5.06,42.81-13a27.73,27.73,0,0,0,48.46-15.95,78.82,78.82,0,0,0,116.11,6.52,43.9,43.9,0,0,0,68.22,7.84,43.91,43.91,0,0,0,79.45-3.5Z"/><path class="cls-4" d="M1423.37,249.7a23.4,23.4,0,0,1,9.14,1.86,20.27,20.27,0,0,1,20.27-20.11c.34,0,.67,0,1,.05a44.62,44.62,0,0,1,79.51-7.32,28.23,28.23,0,0,1,34.2,20.63,28.31,28.31,0,0,1,34.76,6.91,20.27,20.27,0,1,1,8.72,38.57,20,20,0,0,1-8.72-2,28.34,28.34,0,0,1-40.21,3.21,63.84,63.84,0,0,1-99.12-5.33,20.19,20.19,0,0,1-21.62,1.75,23.33,23.33,0,1,1-17.94-38.23Z"/><path class="cls-5" d="M1462.79,270.7a27.35,27.35,0,0,1-13.14-3.44,36.37,36.37,0,0,1-43.6-10.5,23.29,23.29,0,0,1,26.43-5.67,20.28,20.28,0,0,1,20.39-20c.34,0,.67,0,1,.06a44.61,44.61,0,0,1,79.54-6.89,28.25,28.25,0,0,1,34.09,20.82,28.3,28.3,0,0,1,34.72,7.1,20.27,20.27,0,1,1,8.51,38.62c-.54,0-1.06-.05-1.59-.1a27.44,27.44,0,0,1-15.23-11.47,36.48,36.48,0,0,1-38.16,1.72,77,77,0,0,1-86-11.14A27.6,27.6,0,0,1,1462.79,270.7Z"/><path class="cls-7" d="M1951.31,517.83s-63.68,32.84-127.68-14.68S1709.7,394,1654.74,396s-72-9.65-107.69-31.92-90.36-64.48-127.68-14.68-60.68,72.62-99.14,78.1-55.2,32.26-83.55,34.95-64.25-3.3-130,22.41-190.53-16.77-190.53-16.77l-64.51-10.34a342.57,342.57,0,0,0-116.79,1.53L643,476.46l38.47,101,247.58,81.28L1933.93,728.5Z"/><path class="cls-8" d="M1942.66,622.72l-40.26,11-117.46-36.93s53-47.86,16-56.26-55.42-7.33-56-29.49-38-13.12-38-13.12-27.21,61-60.21,68-71.63,27.39-71.63,27.39-44.2-34.26-16.08-48.61,23-47.3-17.41-36.13-159.88,12.18-113.74-27.69,84-25.6,70.09-54.5-63.31-26.52-6.72-44.71c28.48-9.15,12.14-32.33-11.12-53.1,24.05,6.42,48.15,23.7,67,35.44,35.66,22.27,52.74,33.93,107.69,31.92s104.89,59.67,168.89,107.18,127.68,14.68,127.68,14.68Z"/><path class="cls-8" d="M1106.66,484.83c42.71-16.7,72.81-20,96.44-21-9.26,13.47-16.68,23.7-20.63,28-19,20.81-4.32,42.78-34,44.21-12.19.59-36.12,3.31-60,6.3-42.91,5.35-86.19-7.58-114.53-34.28l-18.06-17,71.25,6.46C1053.69,501.56,1081.21,494.77,1106.66,484.83Z"/><ellipse class="cls-9" cx="1509.42" cy="465.63" rx="4.06" ry="11.88" transform="translate(946.53 1941.54) rotate(-86.27)"/><ellipse class="cls-9" cx="1542.02" cy="448.68" rx="4.64" ry="11.88" transform="matrix(0.06, -1, 1, 0.06, 996.18, 1959.05)"/><ellipse class="cls-9" cx="1524.89" cy="430.62" rx="2.9" ry="6.99" transform="translate(999.49 1925.5) rotate(-86.4)"/><ellipse class="cls-9" cx="1476.33" cy="410.95" rx="2.9" ry="9.78" transform="translate(968.53 1856.83) rotate(-86.2)"/><ellipse class="cls-9" cx="1564.02" cy="481.06" rx="1.74" ry="4.89" transform="translate(982.78 2010.68) rotate(-86.29)"/><ellipse class="cls-9" cx="1477.11" cy="493.66" rx="2.9" ry="9.08" transform="translate(887.5 1935.15) rotate(-86.23)"/><ellipse class="cls-9" cx="1152.19" cy="520.58" rx="2.32" ry="6.99" transform="translate(557.42 1636.28) rotate(-86.25)"/><ellipse class="cls-9" cx="1130.03" cy="535.58" rx="2.32" ry="6.99" transform="translate(521.74 1628.19) rotate(-86.25)"/><path class="cls-9" d="M1823.63,503.15C1759.63,455.64,1709.7,394,1654.74,396s-72-9.65-107.69-31.92-90.36-64.48-127.68-14.68-60.68,72.62-99.14,78.1-55.2,32.26-83.55,34.95-64.25-3.3-130,22.41c-47.05,18.38-124.29,1.88-164.44-9-16-4.33-26.09-7.77-26.09-7.77l-64.51-10.34a342.57,342.57,0,0,0-116.79,1.53l-65.07,12.19,15.39,9.75c11.71,7.77,28.38,4.64,50.17-5.77s50.72-24.89,74.73-9.84,79.36,24.74,103.51,27.54c.54.07,1.07.08,1.6.11l85.6,17.6s90.83,32.9,91.19,1.5c.15-12.86,9.39-17.87,21.85-19a39.06,39.06,0,0,1,17.48-2.29c9.42.76,19.38,4.33,28.9,3.14,8.08-1,13.74-5.67,22.2-2.61a25,25,0,0,1,10.14,7.14c1.36,1.49,1.82,2.5,4.22,3.15l.15,0a85,85,0,0,0,10.67.33,7.63,7.63,0,0,1,.84,0c5.43-1.09,10.15-3.81,15.2-6.06a79.06,79.06,0,0,1,7.72-3.08c32.61-22.2,21.22-19.88,50.38-24.65,30-4.9,23.83-27.45,50.32-25.61s2.66,29.29-30.69,39.78-37.54,24.17-10.36,33,10.11,11.18-26.73,28.41c-17.43,8.16-24.19,4-30.91-1.43-.52,1.07-11.33,26.86,19.52,15.36,4.65-1.74,11.14-1.68,16.64-.92,13-4.29,26.76-7,41-5.76,6.66.59,14.52,2.93,19.25-2.2,4.42-4.78,5.64-11,10.31-15.78,4.08-4.14,14.27-7.44,15.67-12.84.82-3.17-1.55-7-1.58-10.25a15.67,15.67,0,0,1,2.67-8.5c2.84-4.37,7.56-7.07,13-9.08,3.87-1.44,8.53-2.29,8.81-6.34.21-3.07-1.55-6-1.3-9.17,0-.1,0-.2,0-.3-2-7.95.19-16.17,3.56-24.38a86.2,86.2,0,0,0,5.67-22.1c.93-6.82,2-14.12,7-19.89a21.6,21.6,0,0,1,3.59-3.31c0-.12,0-.25.07-.37a17.12,17.12,0,0,1,2.18-5.46c-5-12.66,17.91-7.53,21.82-21,4.31-14.83,14.3-16.47,47.65-27s36.93,23.52,59.93,32.1c6.64,2.48,13.67,3.33,20,3.83,10.83-1.1,28.88-1.65,28.78,9.93,0,5.69-7,10-11.65,13.54-1.93,1.48-3.94,2.92-5.8,4.43-1,14.36,18.86,20.7,45.61,13.19,33.23-9.34,23.93,13.3,31,40.57s-12.09,22.44-47.53,25.8,5.46,15.51,36.59,13,38.94-24.07,22.69-57.8-10.22-24,24.53-34.38,20.56,4.92,29.26,30,36.37,1.36,38.8,19-11.27.38-28.12,14.34-4.08,12.53-20.11,18.4-18.37,15-17.21,31.4-1.64,16.18-36.26,25.42c-18.32,4.89-32.48,15-41.76,23.48a16.84,16.84,0,0,0,.32,25.09h0a16.86,16.86,0,0,0,23.29-1c13.27-13.87,35.25-36.25,47.43-45.51,18.24-13.86,35.67-5.67,25-25s28.59-32.94,62.64-50.36,35.67,8.29,45.89,18.32,25.55,25.05,50.41,29.1,29.16,3.19,46.58,11.39c12.13,5.7,37.08-4.05,51.15-10.51l34.78-22.4S1887.63,550.67,1823.63,503.15Z"/><path class="cls-8" d="M737.89,521.24s0-61.45,42.31-29.16,106.43,52.08,132.08,45.83,73.09,6.25,96.17,31.24-13.28,65-13.28,65l-129-4.46L741.74,583.73Z"/><ellipse class="cls-9" cx="952.64" cy="554" rx="6.77" ry="3.5"/><ellipse class="cls-9" cx="932.33" cy="538" rx="4.92" ry="1.5"/><ellipse class="cls-9" cx="1267.21" cy="573.5" rx="6.16" ry="2"/><ellipse class="cls-9" cx="924.33" cy="557.5" rx="3.08" ry="1"/><path class="cls-9" d="M1321.39,626.5s100.54-35.51,106.78-60,16.11-37.16,33.39-37.28,61.26-5,49.13,9.86-45.56,14-35.3,30.38,32.29,52.08,32.29,52.08l-45.85,11Z"/><path class="cls-7" d="M-10.93,607.83s55,32.84,110.18-14.68S197.56,484,245,486s62.15-9.65,92.92-31.92,78-64.48,110.18-14.68,52.36,72.62,85.54,78.1,47.64,32.26,72.1,34.95,55.44-3.3,112.19,22.41,164.41-16.77,164.41-16.77L938,547.72a255.75,255.75,0,0,1,100.78,1.53L1118,566.46l-33.19,101L871.17,748.76,4.07,818.5Z"/><path class="cls-8" d="M-3.46,712.72l34.73,11,101.36-36.93S86.88,639,118.86,630.57s47.82-7.33,48.31-29.49S200,588,200,588s23.48,61,52,68,61.81,27.39,61.81,27.39,38.14-34.26,13.87-48.61-19.87-47.3,15-36.13,138,12.18,98.14-27.69-72.5-25.6-60.48-54.5,54.63-26.52,5.8-44.71c-24.58-9.15-10.48-32.33,9.59-53.1-20.75,6.42-41.54,23.7-57.77,35.44C307.13,476.32,292.4,488,245,486S154.47,545.64,99.25,593.15-10.93,607.83-10.93,607.83Z"/><path class="cls-8" d="M717.91,574.83c-36.85-16.7-62.83-20-83.22-21,8,13.47,14.4,23.7,17.81,28,16.35,20.81,3.72,42.78,29.29,44.21,10.52.59,31.17,3.31,51.82,6.3,37,5.35,74.37-7.58,98.83-34.28L848,581l-61.48,6.46C763.62,591.56,739.87,584.77,717.91,574.83Z"/><ellipse class="cls-9" cx="370.37" cy="555.63" rx="10.26" ry="4.06" transform="translate(-42.71 30.97) rotate(-4.53)"/><ellipse class="cls-9" cx="342.24" cy="538.68" rx="10.26" ry="4.64" transform="translate(-41.22 28.52) rotate(-4.5)"/><ellipse class="cls-9" cx="357.02" cy="520.62" rx="6.03" ry="2.9" transform="translate(-39.61 29.51) rotate(-4.48)"/><ellipse class="cls-9" cx="398.92" cy="500.95" rx="8.45" ry="2.9" transform="translate(-38.46 33.21) rotate(-4.55)"/><ellipse class="cls-9" cx="323.26" cy="571.06" rx="4.22" ry="1.74" transform="translate(-44.01 27.26) rotate(-4.52)"/><ellipse class="cls-9" cx="398.25" cy="583.66" rx="7.84" ry="2.9" transform="translate(-44.93 33.34) rotate(-4.54)"/><ellipse class="cls-9" cx="678.63" cy="610.58" rx="6.03" ry="2.32" transform="translate(-46.13 55.54) rotate(-4.53)"/><ellipse class="cls-9" cx="697.75" cy="625.58" rx="6.03" ry="2.32" transform="translate(-47.25 57.1) rotate(-4.53)"/><path class="cls-9" d="M99.25,593.15C154.47,545.64,197.56,484,245,486s62.15-9.65,92.92-31.92,78-64.48,110.18-14.68,52.36,72.62,85.54,78.1,47.64,32.26,72.1,34.95,55.44-3.3,112.19,22.41c40.6,18.38,107.25,1.88,141.9-9,13.78-4.33,22.51-7.77,22.51-7.77L938,547.72a255.75,255.75,0,0,1,100.78,1.53l56.15,12.19-13.29,9.75c-10.09,7.77-24.48,4.64-43.29-5.77s-43.76-24.89-64.48-9.84-68.47,24.74-89.31,27.54c-.47.07-.93.08-1.38.11l-73.86,17.6s-78.38,32.9-78.7,1.5c-.12-12.86-8.09-17.87-18.85-19A29.46,29.46,0,0,0,696.67,581c-8.13.76-16.73,4.33-24.94,3.14-7-1-11.85-5.67-19.16-2.61a21.91,21.91,0,0,0-8.74,7.14c-1.17,1.47-1.56,2.47-3.56,3.12a1.8,1.8,0,0,1-.22.06,63.23,63.23,0,0,1-9.2.33,5.85,5.85,0,0,0-.73,0c-4.68-1.09-8.75-3.81-13.12-6.06a62.94,62.94,0,0,0-6.65-3.08c-28.15-22.2-18.32-19.88-43.48-24.65-25.87-4.9-20.56-27.45-43.42-25.61s-2.29,29.29,26.48,39.78,32.4,24.17,8.94,33-8.72,11.18,23.07,28.41c15,8.16,20.87,4,26.67-1.43.45,1.07.93,2.13,1.4,3.16,1.14,2.49,2.38,4.93,3.49,7.42.53,1.18,1,2.38,1.55,3.56a12.07,12.07,0,0,1,.5,1.74c-.83,3.69,3.33,8.07,7.81,5.58l.23-.14a6.46,6.46,0,0,0,4.26,1.72,4.6,4.6,0,0,0,1.35.93,29.87,29.87,0,0,1-3.54,0c-11.77-.55-22.53-6.27-33.89-8.65-4.22-.89-9.62-1.68-14.36-.92-11.24-4.29-23.09-7-35.36-5.76-5.74.59-12.53,2.93-16.61-2.2-3.81-4.78-4.86-11-8.89-15.78C513,619.2,504.23,615.9,503,610.5c-.71-3.17,1.34-7,1.36-10.25a17.44,17.44,0,0,0-2.31-8.5c-2.45-4.37-6.52-7.07-11.18-9.08-3.33-1.44-7.36-2.29-7.6-6.34-.18-3.07,1.33-6,1.12-9.17,0-.1,0-.2,0-.3,1.73-8-.17-16.17-3.08-24.38a98.3,98.3,0,0,1-4.89-22.1c-.8-6.82-1.74-14.12-6-19.89a20,20,0,0,0-3.1-3.31c0-.12,0-.25-.06-.37a18.6,18.6,0,0,0-1.88-5.46c4.28-12.66-15.45-7.53-18.83-21-3.71-14.83-12.33-16.47-41.11-27s-31.87,23.52-51.72,32.1c-5.73,2.48-11.79,3.33-17.22,3.83-9.34-1.1-24.92-1.65-24.83,9.93,0,5.69,6,10,10,13.54,1.67,1.48,3.41,2.92,5,4.43.87,14.36-16.27,20.7-39.35,13.19-28.68-9.34-20.65,13.3-26.76,40.57s10.44,22.44,41,25.8-4.71,15.51-31.58,13-33.59-24.07-19.57-57.8,8.81-24-21.17-34.38-17.74,4.92-25.25,30-31.38,1.36-33.48,19,9.73.38,24.27,14.34,3.51,12.53,17.35,18.4,15.85,15,14.85,31.4,1.41,16.18,31.29,25.42,46.95,37.22,46.95,37.22l-21.73,22S248.8,662,233.06,648.16s-30.78-5.67-21.57-25-24.67-32.94-54.05-50.36-30.78,8.29-39.6,18.32-22,25-43.5,29.1-25.16,3.19-40.19,11.39c-10.47,5.7-32-4.05-44.14-10.51l-30-22.4S44,640.67,99.25,593.15Z"/><path class="cls-8" d="M1036.12,611.24s0-61.45-36.51-29.16-91.84,52.08-114,45.83-63.07,6.25-83,31.24,11.46,65,11.46,65l111.35-4.46,107.33-45.95Z"/><ellipse class="cls-9" cx="850.81" cy="644" rx="5.84" ry="3.5"/><ellipse class="cls-9" cx="868.34" cy="628" rx="4.25" ry="1.5"/><ellipse class="cls-9" cx="579.37" cy="663.5" rx="5.31" ry="2"/><ellipse class="cls-9" cx="875.24" cy="647.5" rx="2.66" ry="1"/><path class="cls-9" d="M543.25,675.5s-34,4-41.43-20-17-36-31.88-35-53.11-1-41.43,13,40.37,11,32.94,28-19.05,40.19-19.05,40.19l36,21.81Z"/><path class="cls-10" d="M1200.4,684.29l5.68,3.78a1.67,1.67,0,0,0,2.53-.94l1.78-6.48,84.41-123.13a13.05,13.05,0,0,0,15.8-4.66l33.15-48.36-25.75-10-28.92,43.6a13,13,0,0,0,.78,15.77l-84.71,123.78-4.88,4A1.67,1.67,0,0,0,1200.4,684.29Z"/><path class="cls-5" d="M948.5,145.5h0a11,11,0,1,0-.89,14.94,6.69,6.69,0,0,0,.9.06,7.5,7.5,0,0,0,0-15Z"/><path class="cls-11" d="M860.36,710.53l57.35,41.37s62.8-7.54,133.55-82.41S1175.16,525,1164.8,424.79c0,0-4.72-25.37-39-7.05s-152,79.92-239.94,217.35Z"/><path class="cls-12" d="M1144.39,430.12s11.06-16.9-2.08-18.56a56.62,56.62,0,0,0-16.54,6.18c-34.31,18.32-152,79.92-239.94,217.35l-25.47,75.44S1061.78,589.38,1144.39,430.12Z"/><path class="cls-13" d="M879.77,689.66l19.31-64.72s108.29-147,237.35-204.57c0,0-22.69,72.56-135.33,176.5C1001.1,596.87,911.42,679.88,879.77,689.66Z"/><path class="cls-11" d="M911.63,671.36l5.45-29.07-18-17.35-19.31,64.72C887.59,687.24,899,680.35,911.63,671.36Z"/><path class="cls-11" d="M1126.35,410.66l16.81-8.8s44.93,33.05,13.94,109.69c0,0-8.35-75.14-31.29-91.69Z"/><path class="cls-14" d="M1129.77,423.43C1003.67,483,899.08,624.94,899.08,624.94l18,17.35s118.72-118.91,176-155.34L1113.26,466c10.76-17.36,17-30.33,20.18-37.93A43,43,0,0,0,1129.77,423.43Z"/><polygon class="cls-10" points="1125.81 419.86 1126.35 410.66 1143.16 401.86 1143.92 411.15 1125.81 419.86"/><path class="cls-12" d="M1143.26,401.93,1144,411c18.44,25.72,15.13,80.79,13.32,99.87C1187,436.78,1145.51,403.66,1143.26,401.93Z"/><path class="cls-15" d="M884,727.58s158.44-64.66,265.37-257.43"/><path class="cls-15" d="M904.92,742.67s141.67-54,251.59-237.39"/><path class="cls-15" d="M896.79,681.85l12.75-45.14s84.74-106.72,217-194"/><polygon class="cls-10" points="947.11 583.74 978.43 556.98 970.02 624.55 936.46 652.52 947.11 583.74"/><path class="cls-11" d="M979.65,616.14l6.71-51.52L978.43,557,970,624.55C973.42,621.61,976.65,618.78,979.65,616.14Z"/><path class="cls-11" d="M970,624.55l-1.39,1.17v0Z"/><path class="cls-10" d="M1133.71,427.47h0l-62.17,40.08-2.17,58.36C1110.35,477.15,1127.68,441.83,1133.71,427.47Z"/><path class="cls-15" d="M1139.88,440s21,59.23,15.88,75.88"/><path class="cls-3" d="M768.86,492.5S842.62,507.25,850,598.72l-99.79,29.53S802.79,539.71,768.86,492.5Z"/><path class="cls-7" d="M1538.49,496.94c-34.29-9.64-78.23,69.66-120,79.31s-68.59,18.21-110.39,38.58-82.51,8.57-94.3-6.43-2.15-19.29-21.44-18.22-36.43-6.43-48.22-22.51-30-21.43-39.65-8.57-36.44,18.22-63.23,18.22-31.08,25.72-64.3,18.22-47.15,23.57-81.45,10.71-60-25.72-85.73-30-15-16.08-50.37-28.94S713.31,512,696.16,477.65s-48.22-9.64-65.37,7.5-45,21.44-91.09,17.15-76.09,64.3-108.24,72.87-71.8,18.22-102.88,35.37c-15.61,8.61-29.06,9.92-38.58,9.09V723.06l1630,.44v-125C1896,592.5,1551.25,500.53,1538.49,496.94Z"/><path class="cls-8" d="M718.13,679.66s-33.22-3.21-39.65,11.79-13.93,30-45,20.36-26.79-19.29-15-23.58,45-10.71,45-21.43a30.42,30.42,0,0,1,6.43-18.22l28.93-26.79,28.94-15,47.15,34.29,20.36,34.29s17.15,27.87-11.79,18.22-33.22-31.08-49.29-22.5Z"/><path class="cls-8" d="M384.84,708.6c20.36-2.15,20.36,2.14,35.37-31.08s46.08-24.65,61.08-38.58-12.86-15-19.29-36.44,37.51,1.07,37.51-15,14.38-22.89,14.38-22.89,54.21,74.33,72.43,81.83,24.64-26.79,19.29-48.23,24.64,9.65,68.58-2.14,1.07-39.65-22.5-50.37,13.93-28.93-7.5-33.22c-11.78-2.35-11.59-18-9-31.56-1.54,1.44-3,2.86-4.38,4.23-17.15,17.15-45,21.44-91.09,17.15s-76.09,64.3-108.24,72.87-71.8,18.22-102.88,35.37C313,619.15,220.52,666.33,211,665.5l79,1.14c16.19,1.87,48.5,6.9,50.9,17.31,3.22,13.93-35.36,2.14-41.79,19.29a13.87,13.87,0,0,1-9.11,8.47v11.35h70.92C359.1,713.15,367.08,710.47,384.84,708.6Z"/><path class="cls-8" d="M964.61,660.37c19.29-13.93,36.44-1.07,6.43,38.58s62.16,1.07,69.66-20.36-20.36-3.22-31.08-18.22,21.44-11.79,19.29-30,0-17.14,23.58-11.78,32.69,4.82,29.47,24.11-.53,17.68,19.83,4.82,13.93,7.5,32.15,5.36,10.71-22.51,5.36-39.65,27.86-10.72,27.86-10.72l-1.07,25.72s6.43,25.72.42,31.53-9,19.91,19.94,37.06,39.65-12.86,21.43-31.08,4.29-5.36,33.22-5.36c23.27,0,20.9-24.93,19.08-34.7-21.86-.45-39.34-8.28-46.4-17.27-11.79-15-2.15-19.29-21.44-18.22s-36.43-6.43-48.22-22.51-30-21.43-39.65-8.57-36.44,18.22-63.23,18.22-31.08,25.72-64.3,18.22c-11.69-2.64-21-.51-29.63,2.81l-10.56,12.72-3.21,24.65-17.15,22.51S945.32,674.3,964.61,660.37Z"/><path class="cls-8" d="M1614,503.5c-11.55,4-62.75-3-75.51-6.56-34.29-9.64-78.23,69.66-120,79.31s-68.59,18.21-110.39,38.58l-1.27.58-4.62,9.6-1.07,17.14-13.93,18.22A67.83,67.83,0,0,0,1323,675.62c21.87,2.39-21.88,27.62-46.53,34a20.5,20.5,0,0,0-14.82,13.39h99.25c2.41-1.31,5-2.57,7.73-3.75,30-12.86,27.87-11.79,25.72-32.15s31.08-15,67.52-30-5.36-28.94-15-54.66,37.51-2.14,32.15-24.65,23.79,2.77,23.79,2.77,27.65,45.46,49.09,61.53c4.52,3.39,100.44-47.66,149.11-51.65,51.38-4.21,199.94,60.23,202.64,8.75l.36-6.75Z"/><path class="cls-16" d="M1538.49,496.94c-34.29-9.64-78.23,69.66-120,79.31s-68.59,18.21-110.39,38.58-82.51,8.57-94.3-6.43-2.15-19.29-21.44-18.22-36.43-6.43-48.22-22.51-30-21.43-39.65-8.57-36.44,18.22-63.23,18.22-31.08,25.72-64.3,18.22-47.15,23.57-81.45,10.71-60-25.72-85.73-30-15-16.08-50.37-28.94S713.31,512,696.16,477.65s-48.22-9.64-65.37,7.5-45,21.44-91.09,17.15-76.09,64.3-108.24,72.87-71.8,18.22-102.88,35.37C313,619.15,181.52,664.33,172,663.5l59,3c2.85-.75,65.66-23.59,70.25-19,10.72,10.72,28.94,0,31.08-8.57s20.36-11.79,33.22-17.15,9.65-16.07,19.29-21.43,18.22-12.86,26.79-8.58c4.57,2.29,9.45,0,13-2.62a63.39,63.39,0,0,1,18.25-9.23c7.88-2.56,16.84-5.29,19.12-5.29,4.29,0,12.86-18.22,25.72-13.93s38.58,20.36,37.51,37.5-3.21,8.58,8.57,16.08,0,12.86,10.72,16.07,13.93,9.65,3.22,16.08-37.51,8.57-34.3,13.93,7.5,1.07,19.29,0,24.65-3.21,25.72-11.79,23.58-10.71,5.36-21.43-19.29-12.86-19.29-26.79S537,590.71,526.3,580s-3.21-9.65-19.29-20.37-5.36-19.29,6.43-20.36S536,536.06,537,525.34s33.22-6.43,28.93,5.36-19.29,23.58-11.78,38.58,27.86,28.93,38.58,21.43S596,582.14,581,580s-20.36-15-19.29-28.94,13.93-23.58,23.57-18.22,26.8,9.65,26.8-5.36-3.22-22.5,11.78-24.64,23.58-3.22,34.3-15S686,490,691.34,498.55s-1.07,11.79,9.64,17.15-9.64,27.86,0,32.15,12.86,12.86,3.22,20.36,19.29,10.71,5.36,23.57-30,12.86-26.79,26.8-18.22,19.29-28.94,33.22S639.9,642.15,626,662.51s-38.58,2.15-38.58,23.58,5.36,8.57,11.79,0,7.5-4.29,21.43-5.36,12.86-17.14,26.79-9.64c15.59,8.39,37.88,3.37,29.37-12.06-6.31-11.43-.54-19.26,12.3-16.9,11.84,2.17,21.53,1.14,30.13-10.69s42.87-2.15,41.8,13.93,1.07,20.36,12.86,21.43-6.43,12.86,8.57,17.15,21.43,13.93,8.57,21.43a68.77,68.77,0,0,0-19.62,17.68h20.44a15.24,15.24,0,0,1,11-10.18c16.08-4.28,30-13.93,15-24.65s5.35-13.93-10.72-21.43-19.29-19.29-8.57-21.43,12.86,7.5,25.72,10.71,13.93,1.08,22.5,10.72,13.93,0,26.79,8.57,31.08,19.29,28.94,8.58-7.5-1.07-15-10.72-11.78-4.29-38.58-16.07-24.64-42.87-55.72-39.66c0,0-7.5,2.15-18.22,10.72s-24.65-10.72-12.86-15,13.93-13.93-4.29-26.79S732.06,559.63,746,553.2s12.86,10.72,23.58,18.22,36.44,6.43,34.29,20.36,7.51,32.15,20.37,21.44,22.5-15,39.65-8.58,3.21,25.72,18.22,23.58S898.17,625,910,623.93s25.72,7.51,12.86,13.94-9.65,8.57-22.51,16.07-6.43,11.79,9.65,11.79,18.22-10.72,30-9.65,22.5-13.93,9.64-20.36-12.86-12.86-2.14-22.5,20.36-11.79,31.08-6.43,18.21-2.15,26.79,2.14,18.22-18.22,26.79-17.15,37.51-11.78,46.08-8.57,21.43-16.07,31.08-11.79,13.93,7.5,24.65,6.43,0,8.58,12.86,13.93,21.43,15,15,21.44-1.07,5.36-3.21,16.07,11.78,10.72,2.14,22.51,3.21,13.93,11.79,2.14,1.07-8.57,0-23.58,0-32.15,11.79-32.15,15,4.29,25.72,21.44,24.64,5.36,35.36,17.14S1285,640,1285,649.65s-36.43,11.79-28.93,19.29,20.36-4.28,28.93,2.15-21.43,2.14-11.79,10.71,53.59,12.86,55.73,4.29-8.57-10.72-19.29-6.43-21.43-15-8.57-20.36,57.87-12.86,43.94-17.15-33.23,11.79-33.23-2.14,35.37-16.08,35.37-16.08,16.07-2.14,15-17.14S1396.5,595,1396.5,595s30,2.14,38.58-15,36.43-27.87,47.15-18.22,35.36,26.79,25.72,40.72,10.72,5.36,15,20.36,34.3,9.65,16.08,20.36-46.08,9.65-39.65,16.08,7.5-2.14,22.5-1.07S1569,651.8,1559.39,640s-9.65-7.5-24.65-20.36,3.22-24.65-8.57-32.15-18.22-3.22-20.36-16.08-18.22-7.5-17.15-20.36,32.15-7.5,33.22-20.36,32.15-18.22,25.72-5.36-19.29,17.15-10.72,35.37,9.65,26.79,24.65,31.07c3.21.92,15.07,3.09,24.34,4.74a8.46,8.46,0,0,0,9.88-9.26h0a7.11,7.11,0,0,0-7.61-6.31c-6.41.48-15.08,1.19-15.89,1.19-10.72,0-24.65-5.36-23.58-19.29s0-26.79,10.72-27.86c2-.2,11.19-4.84,24-9a78,78,0,0,1,70.79,11.83h0a78,78,0,0,0,28.46,13.42l105.85,25.62a150.4,150.4,0,0,0,29.92,8.09L1939,604.5l-255-91-49.56-15.86a101.42,101.42,0,0,0-47.19-3.45C1569.37,497.1,1546.81,499.28,1538.49,496.94Z"/><ellipse class="cls-16" cx="381.09" cy="645.9" rx="6.43" ry="3.22"/><ellipse class="cls-16" cx="398.24" cy="657.16" rx="6.43" ry="2.68"/><ellipse class="cls-16" cx="392.88" cy="633.04" rx="5.36" ry="2.14"/><ellipse class="cls-16" cx="423.42" cy="619.65" rx="4.82" ry="3.75"/><ellipse class="cls-16" cx="508.62" cy="662.51" rx="5.36" ry="2.68"/><circle class="cls-16" cx="600.25" cy="568.21" r="2.68"/><ellipse class="cls-16" cx="620.61" cy="549.99" rx="5.89" ry="3.75"/><ellipse class="cls-16" cx="630.79" cy="534.99" rx="4.29" ry="2.68"/><ellipse class="cls-16" cx="638.29" cy="562.31" rx="5.36" ry="3.22"/><ellipse class="cls-16" cx="659.19" cy="525.34" rx="4.82" ry="2.68"/><ellipse class="cls-16" cx="862.81" cy="646.98" rx="3.75" ry="2.14"/><circle class="cls-16" cx="989.8" cy="641.62" r="3.22"/><ellipse class="cls-16" cx="1364.88" cy="645.37" rx="6.43" ry="3.75"/><ellipse class="cls-16" cx="1373.99" cy="630.36" rx="4.82" ry="2.68"/><ellipse class="cls-16" cx="1402.39" cy="620.18" rx="4.29" ry="3.22"/><ellipse class="cls-16" cx="1346.13" cy="663.59" rx="4.82" ry="1.61"/><ellipse class="cls-16" cx="1382.56" cy="655.55" rx="5.89" ry="3.22"/><ellipse class="cls-16" cx="1698.84" cy="637.17" rx="3.75" ry="6.43" transform="translate(775.1 2198.82) rotate(-79.95)"/><ellipse class="cls-16" cx="1710.43" cy="623.98" rx="2.68" ry="4.82" transform="translate(797.65 2199.34) rotate(-79.95)"/><ellipse class="cls-16" cx="1740.17" cy="618.91" rx="3.22" ry="4.29" transform="translate(827.19 2224.44) rotate(-79.95)"/><ellipse class="cls-16" cx="1714.48" cy="650.28" rx="3.22" ry="5.89" transform="translate(775.1 2225.04) rotate(-79.95)"/><ellipse class="cls-16" cx="1485.44" cy="658.23" rx="3.75" ry="2.68"/><ellipse class="cls-16" cx="1564.75" cy="606.79" rx="4.82" ry="2.68"/><ellipse class="cls-16" cx="1587.75" cy="562.79" rx="4.82" ry="2.68"/><g class="cls-17"><path class="cls-18" d="M123,355.84q8.38-15,17.08-29.81c5.77-9.89,11.65-19.72,17.55-29.54s11.87-19.58,17.92-29.3,12.17-19.41,18.41-29q-8.37,15-17.07,29.82t-17.55,29.53c-5.93,9.79-11.88,19.58-17.93,29.3S129.26,346.24,123,355.84Z"/></g><g class="cls-17"><path class="cls-18" d="M-13,401.18q8.37-15,17.07-29.82c5.78-9.89,11.66-19.72,17.55-29.53s11.88-19.58,17.93-29.31,12.16-19.41,18.41-29q-8.37,15-17.07,29.82c-5.78,9.89-11.66,19.71-17.56,29.53s-11.87,19.58-17.92,29.3S-6.76,391.57-13,401.18Z"/></g><g class="cls-17"><path class="cls-18" d="M233.49,156.44q8.38-15,17.08-29.82c5.77-9.88,11.65-19.71,17.55-29.53S280,77.51,286,67.79s12.17-19.41,18.41-29q-8.37,15-17.07,29.81T269.83,98.12c-5.93,9.8-11.88,19.58-17.93,29.31S239.74,146.83,233.49,156.44Z"/></g><g class="cls-17"><path class="cls-18" d="M327.81,355.84q8.37-15,17.07-29.81t17.55-29.54c5.93-9.79,11.88-19.58,17.93-29.3s12.16-19.41,18.4-29q-8.37,15-17.07,29.82c-5.77,9.89-11.65,19.71-17.55,29.53s-11.88,19.58-17.93,29.3S334.05,346.24,327.81,355.84Z"/></g><g class="cls-17"><path class="cls-18" d="M679.19,360.5q8.37-15,17.07-29.82c5.78-9.88,11.66-19.71,17.55-29.53s11.88-19.58,17.93-29.3,12.16-19.41,18.41-29q-8.37,15-17.07,29.82c-5.78,9.88-11.66,19.71-17.56,29.53s-11.88,19.57-17.93,29.3S685.43,350.9,679.19,360.5Z"/></g><g class="cls-17"><path class="cls-18" d="M557.19,406.5q8.37-15,17.07-29.82c5.78-9.88,11.66-19.71,17.55-29.53s11.88-19.58,17.93-29.3,12.16-19.41,18.41-29q-8.37,15-17.07,29.82c-5.78,9.88-11.66,19.71-17.56,29.53s-11.88,19.57-17.93,29.3S563.43,396.9,557.19,406.5Z"/></g><g class="cls-17"><path class="cls-18" d="M859.18,475.85q8.37-15,17.07-29.82T893.8,416.5c5.93-9.8,11.88-19.58,17.93-29.3s12.16-19.41,18.41-29q-8.39,15-17.08,29.82c-5.77,9.89-11.65,19.72-17.55,29.53s-11.88,19.58-17.93,29.3S865.42,466.24,859.18,475.85Z"/></g><g class="cls-17"><path class="cls-18" d="M924.28,660.5q8.37-15,17.07-29.82t17.55-29.53c5.93-9.8,11.88-19.58,17.93-29.3s12.16-19.41,18.41-29q-8.37,15-17.08,29.82c-5.77,9.89-11.65,19.72-17.55,29.53s-11.88,19.58-17.93,29.31S930.52,650.89,924.28,660.5Z"/></g><g class="cls-17"><path class="cls-18" d="M637.75,178.79q8.37-15,17.07-29.81t17.55-29.54c5.93-9.79,11.88-19.58,17.93-29.3s12.16-19.41,18.4-29q-8.37,15-17.07,29.82t-17.55,29.53c-5.93,9.79-11.88,19.58-17.93,29.3S644,169.19,637.75,178.79Z"/></g><g class="cls-17"><path class="cls-18" d="M491.4,315.53q8.37-15,17.07-29.81T526,256.19c5.93-9.8,11.88-19.58,17.93-29.31s12.16-19.41,18.41-29q-8.37,15-17.08,29.82c-5.77,9.89-11.65,19.71-17.55,29.53s-11.88,19.58-17.93,29.3S497.64,305.93,491.4,315.53Z"/></g><g class="cls-17"><path class="cls-18" d="M216.43,451.05q8.37-15,17.07-29.81t17.55-29.53c5.93-9.8,11.88-19.59,17.93-29.31s12.16-19.41,18.41-29q-8.37,15-17.08,29.82c-5.77,9.89-11.65,19.71-17.55,29.53s-11.88,19.58-17.93,29.3S222.67,441.45,216.43,451.05Z"/></g><g class="cls-17"><path class="cls-18" d="M8,214.82q8.37-15,17.08-29.81c5.77-9.89,11.65-19.72,17.55-29.53s11.87-19.58,17.92-29.31,12.16-19.41,18.41-29q-8.37,15-17.07,29.82T44.38,156.51c-5.93,9.79-11.88,19.58-17.93,29.3S14.29,205.22,8,214.82Z"/></g><g class="cls-17"><path class="cls-18" d="M337.69,225.6q8.37-15,17.07-29.81t17.55-29.54c5.93-9.79,11.88-19.58,17.93-29.3s12.16-19.41,18.4-29q-8.37,15-17.07,29.82c-5.77,9.88-11.65,19.71-17.55,29.53s-11.88,19.57-17.93,29.3S343.93,216,337.69,225.6Z"/></g><g class="cls-17"><path class="cls-18" d="M514.5,143q8.38-15,17.08-29.82c5.77-9.89,11.65-19.72,17.55-29.53S561,64.09,567.05,54.37s12.17-19.41,18.41-29q-8.37,15-17.07,29.82T550.84,84.7c-5.93,9.8-11.88,19.58-17.93,29.3S520.75,133.41,514.5,143Z"/></g><g class="cls-17"><path class="cls-18" d="M704.59,563.78q8.37-15,17.07-29.81t17.55-29.54c5.93-9.79,11.88-19.58,17.93-29.3s12.16-19.41,18.41-29q-8.37,15-17.08,29.82c-5.77,9.88-11.65,19.71-17.55,29.53S729,525.05,723,534.77,710.83,554.18,704.59,563.78Z"/></g><g class="cls-17"><path class="cls-18" d="M10.27,540.17q8.37-15,17.07-29.82t17.55-29.53c5.93-9.8,11.88-19.58,17.93-29.3s12.16-19.41,18.4-29q-8.37,15-17.07,29.82C58.38,462.21,52.5,472,46.6,481.85s-11.88,19.58-17.93,29.31S16.51,530.56,10.27,540.17Z"/></g><g class="cls-17"><path class="cls-18" d="M814.69,374.38q8.37-15,17.08-29.81c5.77-9.89,11.65-19.72,17.54-29.54s11.88-19.58,17.93-29.3,12.16-19.41,18.41-29q-8.37,15-17.07,29.82T851,316.07c-5.93,9.79-11.88,19.58-17.93,29.3S820.94,364.78,814.69,374.38Z"/></g><g class="cls-17"><path class="cls-18" d="M860.44,201.35q8.38-15,17.08-29.82c5.77-9.88,11.65-19.71,17.55-29.53S907,122.42,913,112.7s12.17-19.41,18.41-29q-8.37,15-17.07,29.82T896.78,143c-5.93,9.8-11.88,19.58-17.93,29.31S866.69,191.75,860.44,201.35Z"/></g><g class="cls-17"><path class="cls-18" d="M1033.18,339.85q8.37-15,17.07-29.82t17.55-29.53c5.93-9.8,11.88-19.58,17.93-29.3s12.16-19.41,18.41-29q-8.39,15-17.08,29.82c-5.77,9.89-11.65,19.72-17.55,29.53s-11.88,19.58-17.93,29.3S1039.42,330.24,1033.18,339.85Z"/></g><g class="cls-17"><path class="cls-18" d="M1098.28,524.5q8.37-15,17.07-29.82t17.55-29.53c5.93-9.8,11.88-19.58,17.93-29.3s12.16-19.41,18.41-29q-8.37,15-17.08,29.82c-5.77,9.89-11.65,19.72-17.55,29.53s-11.88,19.58-17.93,29.31S1104.52,514.89,1098.28,524.5Z"/></g><g class="cls-17"><path class="cls-18" d="M988.69,238.38q8.37-15,17.08-29.81c5.77-9.89,11.65-19.72,17.54-29.54s11.88-19.58,17.93-29.3,12.16-19.41,18.41-29q-8.37,15-17.07,29.82T1025,180.07c-5.93,9.79-11.88,19.58-17.93,29.3S994.94,228.78,988.69,238.38Z"/></g><g class="cls-17"><path class="cls-18" d="M1258.18,672.85q8.37-15,17.07-29.82t17.55-29.53c5.93-9.8,11.88-19.58,17.93-29.3s12.16-19.41,18.41-29q-8.39,15-17.08,29.82c-5.77,9.89-11.65,19.72-17.55,29.53s-11.88,19.58-17.93,29.3S1264.42,663.24,1258.18,672.85Z"/></g><g class="cls-17"><path class="cls-18" d="M1213.69,571.38q8.37-15,17.08-29.81c5.77-9.89,11.65-19.72,17.54-29.54s11.88-19.58,17.93-29.3,12.16-19.41,18.41-29q-8.37,15-17.07,29.82T1250,513.07c-5.93,9.79-11.88,19.58-17.93,29.3S1219.94,561.78,1213.69,571.38Z"/></g><g class="cls-17"><path class="cls-18" d="M1432.18,536.85q8.37-15,17.07-29.82t17.55-29.53c5.93-9.8,11.88-19.58,17.93-29.3s12.16-19.41,18.41-29q-8.39,15-17.08,29.82c-5.77,9.89-11.65,19.72-17.55,29.53s-11.88,19.58-17.93,29.3S1438.42,527.24,1432.18,536.85Z"/></g><g class="cls-17"><path class="cls-18" d="M1497.28,721.5q8.37-15,17.07-29.82t17.55-29.53c5.93-9.8,11.88-19.58,17.93-29.3s12.16-19.41,18.41-29q-8.37,15-17.08,29.82c-5.77,9.89-11.65,19.72-17.55,29.53s-11.88,19.58-17.93,29.31S1503.52,711.89,1497.28,721.5Z"/></g><g class="cls-17"><path class="cls-18" d="M1387.69,435.38q8.37-15,17.08-29.81c5.77-9.89,11.65-19.72,17.54-29.54s11.88-19.58,17.93-29.3,12.16-19.41,18.41-29q-8.37,15-17.07,29.82T1424,377.07c-5.93,9.79-11.88,19.58-17.93,29.3S1393.94,425.78,1387.69,435.38Z"/></g><g class="cls-17"><path class="cls-18" d="M1034.44,65.35q8.38-15,17.08-29.82c5.77-9.88,11.65-19.71,17.55-29.53S1081-13.58,1087-23.3s12.17-19.41,18.41-29q-8.37,15-17.07,29.82T1070.78,7c-5.93,9.8-11.88,19.58-17.93,29.31S1040.69,55.75,1034.44,65.35Z"/></g><g class="cls-17"><path class="cls-18" d="M386.28,498.19q8.37-15,17.07-29.81t17.55-29.53c5.93-9.8,11.88-19.58,17.93-29.31s12.16-19.41,18.41-29q-8.37,15-17.08,29.82c-5.77,9.89-11.65,19.71-17.55,29.53s-11.88,19.58-17.93,29.3S392.52,488.59,386.28,498.19Z"/></g><g class="cls-17"><path class="cls-18" d="M1031.22,247.34q-8.37,15-17.07,29.82T996.6,306.69c-5.93,9.8-11.88,19.58-17.93,29.3s-12.16,19.41-18.41,29q8.37-15,17.08-29.82c5.77-9.89,11.65-19.72,17.55-29.53s11.88-19.58,17.93-29.3S1025,257,1031.22,247.34Z"/></g><g class="cls-17"><path class="cls-18" d="M1167.24,202q-8.38,15-17.08,29.82c-5.77,9.89-11.65,19.71-17.55,29.53s-11.88,19.58-17.92,29.3-12.17,19.41-18.41,29q8.37-15,17.07-29.82t17.55-29.53c5.93-9.8,11.88-19.58,17.93-29.31S1161,211.62,1167.24,202Z"/></g><g class="cls-17"><path class="cls-18" d="M920.74,446.74q-8.37,15-17.07,29.82t-17.55,29.53c-5.93,9.8-11.88,19.58-17.93,29.31s-12.16,19.41-18.41,29q8.37-15,17.08-29.82c5.77-9.89,11.65-19.71,17.55-29.53s11.88-19.58,17.93-29.3S914.5,456.35,920.74,446.74Z"/></g><g class="cls-17"><path class="cls-18" d="M826.43,247.34q-8.37,15-17.07,29.82c-5.78,9.89-11.66,19.72-17.55,29.53s-11.88,19.58-17.93,29.3-12.16,19.41-18.41,29q8.37-15,17.07-29.82c5.78-9.89,11.66-19.72,17.56-29.53S802,286.08,808,276.36,820.19,257,826.43,247.34Z"/></g><g class="cls-17"><path class="cls-18" d="M475.05,242.68q-8.37,15-17.08,29.82c-5.77,9.89-11.65,19.72-17.55,29.53s-11.87,19.58-17.92,29.31-12.17,19.4-18.41,29q8.37-15,17.07-29.82T438.71,301c5.93-9.79,11.88-19.58,17.93-29.3S468.8,252.29,475.05,242.68Z"/></g><g class="cls-17"><path class="cls-18" d="M597.05,196.68q-8.37,15-17.08,29.82c-5.77,9.89-11.65,19.72-17.55,29.53s-11.87,19.58-17.92,29.31-12.17,19.4-18.41,29q8.37-15,17.07-29.82T560.71,255c5.93-9.79,11.88-19.58,17.93-29.3S590.8,206.29,597.05,196.68Z"/></g><g class="cls-17"><path class="cls-18" d="M295.06,127.34q-8.37,15-17.07,29.81c-5.78,9.89-11.66,19.72-17.55,29.53S248.56,206.26,242.51,216s-12.16,19.41-18.41,29q8.37-15,17.07-29.82c5.78-9.89,11.66-19.71,17.55-29.53s11.88-19.58,17.93-29.3S288.82,136.94,295.06,127.34Z"/></g><g class="cls-17"><path class="cls-18" d="M230-57.31q-8.37,15-17.08,29.81C207.11-17.61,201.23-7.78,195.33,2s-11.87,19.58-17.92,29.31-12.16,19.41-18.41,29q8.37-15,17.07-29.82c5.78-9.89,11.66-19.71,17.55-29.53s11.88-19.58,17.93-29.3S223.71-47.71,230-57.31Z"/></g><g class="cls-17"><path class="cls-18" d="M516.49,424.39q-8.37,15-17.07,29.82c-5.78,9.89-11.66,19.72-17.55,29.53S470,503.32,463.94,513s-12.16,19.41-18.41,29q8.37-15,17.07-29.82c5.78-9.89,11.66-19.72,17.56-29.53s11.88-19.58,17.93-29.3S510.25,434,516.49,424.39Z"/></g><g class="cls-17"><path class="cls-18" d="M662.84,287.65q-8.37,15-17.08,29.82c-5.77,9.89-11.65,19.71-17.54,29.53s-11.88,19.58-17.93,29.3-12.16,19.41-18.41,29q8.37-15,17.07-29.82c5.78-9.89,11.66-19.72,17.55-29.53s11.88-19.58,17.93-29.3S656.59,297.26,662.84,287.65Z"/></g><g class="cls-17"><path class="cls-18" d="M937.81,152.13q-8.37,15-17.07,29.82c-5.78,9.89-11.66,19.72-17.55,29.53s-11.88,19.58-17.93,29.3-12.16,19.41-18.41,29q8.37-15,17.07-29.82c5.78-9.89,11.66-19.72,17.55-29.53s11.88-19.58,17.93-29.3S931.56,161.74,937.81,152.13Z"/></g><g class="cls-17"><path class="cls-18" d="M1146.19,388.36q-8.37,15-17.07,29.82t-17.55,29.53c-5.93,9.8-11.88,19.58-17.93,29.3s-12.16,19.41-18.4,29q8.37-15,17.07-29.82c5.77-9.89,11.65-19.72,17.55-29.53s11.88-19.58,17.93-29.3S1140,398,1146.19,388.36Z"/></g><g class="cls-17"><path class="cls-18" d="M816.55,377.58q-8.37,15-17.07,29.82c-5.78,9.89-11.66,19.72-17.55,29.53s-11.88,19.58-17.93,29.3-12.16,19.41-18.41,29q8.37-15,17.07-29.82c5.78-9.89,11.66-19.72,17.56-29.53s11.88-19.58,17.93-29.3S810.31,387.19,816.55,377.58Z"/></g><g class="cls-17"><path class="cls-18" d="M639.73,460.17q-8.37,15-17.07,29.82t-17.55,29.53c-5.93,9.79-11.88,19.58-17.93,29.3s-12.16,19.41-18.41,29q8.37-15,17.08-29.82c5.77-9.88,11.65-19.71,17.55-29.53s11.88-19.57,17.93-29.3S633.49,469.77,639.73,460.17Z"/></g><g class="cls-17"><path class="cls-18" d="M449.65,39.4q-8.37,15-17.08,29.82C426.8,79.11,420.92,88.94,415,98.75s-11.88,19.58-17.93,29.3-12.16,19.41-18.41,29q8.37-15,17.07-29.82c5.78-9.89,11.66-19.72,17.55-29.53s11.88-19.58,17.93-29.3S443.4,49,449.65,39.4Z"/></g><g class="cls-17"><path class="cls-18" d="M1144,63q-8.37,15-17.07,29.81c-5.78,9.89-11.66,19.72-17.55,29.53s-11.88,19.58-17.93,29.31-12.16,19.41-18.41,29q8.37-15,17.07-29.82c5.78-9.89,11.66-19.71,17.56-29.53s11.88-19.58,17.93-29.3S1137.73,72.62,1144,63Z"/></g><g class="cls-17"><path class="cls-18" d="M339.54,228.8q-8.37,15-17.07,29.82t-17.55,29.53C299,298,293,307.73,287,317.45s-12.16,19.41-18.4,29q8.37-15,17.07-29.82c5.77-9.89,11.65-19.72,17.55-29.53s11.88-19.58,17.93-29.3S333.3,238.41,339.54,228.8Z"/></g><g class="cls-17"><path class="cls-18" d="M293.79,401.83q-8.37,15-17.07,29.82c-5.78,9.89-11.66,19.72-17.55,29.53s-11.88,19.58-17.93,29.31-12.16,19.41-18.41,29q8.37-15,17.07-29.82c5.78-9.89,11.66-19.71,17.56-29.53s11.88-19.58,17.93-29.3S287.55,411.44,293.79,401.83Z"/></g><g class="cls-17"><path class="cls-18" d="M121.06,263.34q-8.37,15-17.07,29.81c-5.78,9.89-11.66,19.72-17.55,29.53S74.56,342.26,68.51,352,56.35,371.4,50.1,381q8.37-15,17.07-29.82c5.78-9.89,11.66-19.71,17.55-29.53s11.88-19.58,17.93-29.3S114.82,272.94,121.06,263.34Z"/></g><g class="cls-17"><path class="cls-18" d="M56,78.69q-8.37,15-17.08,29.81c-5.77,9.89-11.65,19.72-17.55,29.53S9.46,157.61,3.41,167.34s-12.16,19.41-18.41,29q8.37-15,17.07-29.82c5.78-9.89,11.66-19.71,17.55-29.53s11.88-19.58,17.93-29.3S49.71,88.29,56,78.69Z"/></g><g class="cls-17"><path class="cls-18" d="M165.54,364.8q-8.37,15-17.07,29.82t-17.55,29.53C125,434,119,443.73,113,453.45s-12.16,19.41-18.4,29q8.37-15,17.07-29.82c5.77-9.89,11.65-19.72,17.55-29.53s11.88-19.58,17.93-29.3S159.3,374.41,165.54,364.8Z"/></g><g class="cls-17"><path class="cls-18" d="M119.79,537.83q-8.37,15-17.07,29.82c-5.78,9.89-11.66,19.72-17.55,29.53s-11.88,19.58-17.93,29.31-12.16,19.41-18.41,29q8.37-15,17.07-29.82c5.78-9.89,11.66-19.71,17.56-29.53s11.88-19.58,17.93-29.3S113.55,547.44,119.79,537.83Z"/></g><g class="cls-17"><path class="cls-18" d="M768,105q-8.37,15-17.08,29.82c-5.77,9.89-11.65,19.71-17.55,29.53s-11.87,19.58-17.92,29.3-12.16,19.41-18.41,29q8.37-15,17.07-29.82c5.78-9.89,11.66-19.72,17.55-29.53s11.88-19.58,17.93-29.3S761.71,114.6,768,105Z"/></g><g class="cls-17"><path class="cls-18" d="M1399,362.84q8.38-15,17.08-29.81c5.77-9.89,11.65-19.72,17.55-29.54s11.87-19.58,17.92-29.3,12.17-19.41,18.41-29q-8.37,15-17.07,29.82t-17.55,29.53c-5.93,9.79-11.88,19.58-17.93,29.3S1405.26,353.24,1399,362.84Z"/></g><g class="cls-17"><path class="cls-18" d="M1263,408.18q8.37-15,17.07-29.82c5.78-9.89,11.66-19.72,17.55-29.53s11.88-19.58,17.93-29.31,12.16-19.41,18.41-29q-8.37,15-17.07,29.82c-5.78,9.89-11.66,19.71-17.56,29.53s-11.87,19.58-17.92,29.3S1269.24,398.57,1263,408.18Z"/></g><g class="cls-17"><path class="cls-18" d="M1509.49,163.44q8.38-15,17.08-29.82c5.77-9.88,11.65-19.71,17.55-29.53S1556,84.51,1562,74.79s12.17-19.41,18.41-29q-8.37,15-17.07,29.81t-17.55,29.53c-5.93,9.8-11.88,19.58-17.93,29.31S1515.74,153.83,1509.49,163.44Z"/></g><g class="cls-17"><path class="cls-18" d="M1603.81,362.84q8.37-15,17.07-29.81t17.55-29.54c5.93-9.79,11.88-19.58,17.93-29.3s12.16-19.41,18.4-29q-8.37,15-17.07,29.82c-5.77,9.89-11.65,19.71-17.55,29.53s-11.88,19.58-17.93,29.3S1610.05,353.24,1603.81,362.84Z"/></g><g class="cls-17"><path class="cls-18" d="M1833.19,413.5q8.37-15,17.07-29.82c5.78-9.88,11.66-19.71,17.55-29.53s11.88-19.58,17.93-29.3,12.16-19.41,18.41-29q-8.37,15-17.07,29.82c-5.78,9.88-11.66,19.71-17.56,29.53s-11.88,19.57-17.93,29.3S1839.43,403.9,1833.19,413.5Z"/></g><g class="cls-17"><path class="cls-18" d="M1913.75,185.79q8.37-15,17.07-29.81t17.55-29.54c5.93-9.79,11.88-19.58,17.93-29.3s12.16-19.41,18.4-29q-8.37,15-17.07,29.82t-17.55,29.53c-5.93,9.79-11.88,19.58-17.93,29.3S1920,176.19,1913.75,185.79Z"/></g><g class="cls-17"><path class="cls-18" d="M1767.4,322.53q8.37-15,17.07-29.81T1802,263.19c5.93-9.8,11.88-19.58,17.93-29.31s12.16-19.41,18.41-29q-8.37,15-17.08,29.82c-5.77,9.89-11.65,19.71-17.55,29.53s-11.88,19.58-17.93,29.3S1773.64,312.93,1767.4,322.53Z"/></g><g class="cls-17"><path class="cls-18" d="M1492.43,458.05q8.37-15,17.07-29.81t17.55-29.53c5.93-9.8,11.88-19.59,17.93-29.31s12.16-19.41,18.41-29q-8.37,15-17.08,29.82c-5.77,9.89-11.65,19.71-17.55,29.53s-11.88,19.58-17.93,29.3S1498.67,448.45,1492.43,458.05Z"/></g><g class="cls-17"><path class="cls-18" d="M1284,221.82q8.37-15,17.08-29.81c5.77-9.89,11.65-19.72,17.55-29.53s11.87-19.58,17.92-29.31,12.16-19.41,18.41-29q-8.37,15-17.07,29.82t-17.55,29.53c-5.93,9.79-11.88,19.58-17.93,29.3S1290.29,212.22,1284,221.82Z"/></g><g class="cls-17"><path class="cls-18" d="M1613.69,232.6q8.37-15,17.07-29.81t17.55-29.54c5.93-9.79,11.88-19.58,17.93-29.3s12.16-19.41,18.4-29q-8.37,15-17.07,29.82c-5.77,9.88-11.65,19.71-17.55,29.53s-11.88,19.57-17.93,29.3S1619.93,223,1613.69,232.6Z"/></g><g class="cls-17"><path class="cls-18" d="M1790.5,150q8.38-15,17.08-29.82c5.77-9.89,11.65-19.72,17.55-29.53s11.87-19.58,17.92-29.3,12.17-19.41,18.41-29q-8.37,15-17.07,29.82T1826.84,91.7c-5.93,9.8-11.88,19.58-17.93,29.3S1796.75,140.41,1790.5,150Z"/></g><g class="cls-17"><path class="cls-18" d="M1286.27,547.17q8.37-15,17.07-29.82t17.55-29.53c5.93-9.8,11.88-19.58,17.93-29.3s12.16-19.41,18.4-29q-8.37,15-17.07,29.82c-5.77,9.89-11.65,19.72-17.55,29.53s-11.88,19.58-17.93,29.31S1292.51,537.56,1286.27,547.17Z"/></g><g class="cls-17"><path class="cls-18" d="M1662.28,505.19q8.37-15,17.07-29.81t17.55-29.53c5.93-9.8,11.88-19.58,17.93-29.31s12.16-19.41,18.41-29q-8.37,15-17.08,29.82c-5.77,9.89-11.65,19.71-17.55,29.53s-11.88,19.58-17.93,29.3S1668.52,495.59,1662.28,505.19Z"/></g><g class="cls-17"><path class="cls-18" d="M1751.05,249.68q-8.37,15-17.08,29.82c-5.77,9.89-11.65,19.72-17.55,29.53s-11.87,19.58-17.92,29.31-12.17,19.4-18.41,29q8.37-15,17.07-29.82T1714.71,308c5.93-9.79,11.88-19.58,17.93-29.3S1744.8,259.29,1751.05,249.68Z"/></g><g class="cls-17"><path class="cls-18" d="M1873.05,203.68q-8.37,15-17.08,29.82c-5.77,9.89-11.65,19.72-17.55,29.53s-11.87,19.58-17.92,29.31-12.17,19.4-18.41,29q8.37-15,17.07-29.82T1836.71,262c5.93-9.79,11.88-19.58,17.93-29.3S1866.8,213.29,1873.05,203.68Z"/></g><g class="cls-17"><path class="cls-18" d="M1571.06,134.34q-8.37,15-17.07,29.81c-5.78,9.89-11.66,19.72-17.55,29.53s-11.88,19.58-17.93,29.31-12.16,19.41-18.41,29q8.37-15,17.07-29.82c5.78-9.89,11.66-19.71,17.55-29.53s11.88-19.58,17.93-29.3S1564.82,143.94,1571.06,134.34Z"/></g><g class="cls-17"><path class="cls-18" d="M1506-50.31q-8.37,15-17.08,29.81c-5.77,9.89-11.65,19.72-17.55,29.53s-11.87,19.58-17.92,29.31-12.16,19.41-18.41,29q8.37-15,17.07-29.82c5.78-9.89,11.66-19.71,17.55-29.53s11.88-19.58,17.93-29.3S1499.71-40.71,1506-50.31Z"/></g><g class="cls-17"><path class="cls-18" d="M1792.49,431.39q-8.37,15-17.07,29.82c-5.78,9.89-11.66,19.72-17.55,29.53S1746,510.32,1739.94,520s-12.16,19.41-18.41,29q8.37-15,17.07-29.82c5.78-9.89,11.66-19.72,17.56-29.53s11.88-19.58,17.93-29.3S1786.25,441,1792.49,431.39Z"/></g><g class="cls-17"><path class="cls-18" d="M1938.84,294.65q-8.37,15-17.08,29.82c-5.77,9.89-11.65,19.71-17.54,29.53s-11.88,19.58-17.93,29.3-12.16,19.41-18.41,29q8.37-15,17.07-29.82c5.78-9.89,11.66-19.72,17.55-29.53s11.88-19.58,17.93-29.3S1932.59,304.26,1938.84,294.65Z"/></g><g class="cls-17"><path class="cls-18" d="M1915.73,467.17q-8.37,15-17.07,29.82t-17.55,29.53c-5.93,9.79-11.88,19.58-17.93,29.3s-12.16,19.41-18.41,29q8.37-15,17.08-29.82c5.77-9.88,11.65-19.71,17.55-29.53s11.88-19.57,17.93-29.3S1909.49,476.77,1915.73,467.17Z"/></g><g class="cls-17"><path class="cls-18" d="M1725.65,46.4q-8.37,15-17.08,29.82c-5.77,9.89-11.65,19.72-17.54,29.53s-11.88,19.58-17.93,29.3-12.16,19.41-18.41,29q8.37-15,17.07-29.82c5.78-9.89,11.66-19.72,17.55-29.53s11.88-19.58,17.93-29.3S1719.4,56,1725.65,46.4Z"/></g><g class="cls-17"><path class="cls-18" d="M1615.54,235.8q-8.37,15-17.07,29.82t-17.55,29.53C1575,305,1569,314.73,1563,324.45s-12.16,19.41-18.4,29q8.37-15,17.07-29.82c5.77-9.89,11.65-19.72,17.55-29.53s11.88-19.58,17.93-29.3S1609.3,245.41,1615.54,235.8Z"/></g><g class="cls-17"><path class="cls-18" d="M1569.79,408.83q-8.37,15-17.07,29.82c-5.78,9.89-11.66,19.72-17.55,29.53s-11.88,19.58-17.93,29.31-12.16,19.41-18.41,29q8.37-15,17.07-29.82c5.78-9.89,11.66-19.71,17.56-29.53s11.88-19.58,17.93-29.3S1563.55,418.44,1569.79,408.83Z"/></g><g class="cls-17"><path class="cls-18" d="M1397.06,270.34q-8.37,15-17.07,29.81c-5.78,9.89-11.66,19.72-17.55,29.53s-11.88,19.58-17.93,29.31-12.16,19.41-18.41,29q8.37-15,17.07-29.82c5.78-9.89,11.66-19.71,17.55-29.53s11.88-19.58,17.93-29.3S1390.82,279.94,1397.06,270.34Z"/></g><g class="cls-17"><path class="cls-18" d="M1332,85.69q-8.37,15-17.08,29.81c-5.77,9.89-11.65,19.72-17.55,29.53s-11.87,19.58-17.92,29.31-12.16,19.41-18.41,29q8.37-15,17.07-29.82c5.78-9.89,11.66-19.71,17.55-29.53s11.88-19.58,17.93-29.3S1325.71,95.29,1332,85.69Z"/></g><g class="cls-17"><path class="cls-18" d="M1441.54,371.8q-8.37,15-17.07,29.82t-17.55,29.53C1401,441,1395,450.73,1389,460.45s-12.16,19.41-18.4,29q8.37-15,17.07-29.82c5.77-9.89,11.65-19.72,17.55-29.53s11.88-19.58,17.93-29.3S1435.3,381.41,1441.54,371.8Z"/></g><g class="cls-17"><path class="cls-18" d="M1395.79,544.83q-8.37,15-17.07,29.82c-5.78,9.89-11.66,19.72-17.55,29.53s-11.88,19.58-17.93,29.31-12.16,19.41-18.41,29q8.37-15,17.07-29.82c5.78-9.89,11.66-19.71,17.56-29.53s11.88-19.58,17.93-29.3S1389.55,554.44,1395.79,544.83Z"/></g></g></svg>