<svg id="Calque_1" data-name="Calque 1" xmlns="http://www.w3.org/2000/svg" xmlns:xlink="http://www.w3.org/1999/xlink" viewBox="0 0 1920 663"><defs><style>.cls-1,.cls-20{fill:none;}.cls-2{clip-path:url(#clip-path);}.cls-3{fill:#31537c;}.cls-4{opacity:0.6;fill:url(#Dégradé_sans_nom_34);}.cls-5{opacity:0.01;}.cls-6{fill:#fff;}.cls-7{fill:#426895;}.cls-8,.cls-9{fill:#add5ff;}.cls-14,.cls-8{opacity:0.1;}.cls-10{fill:#16213b;}.cls-11{fill:#cb5d65;}.cls-12{fill:#e1817b;}.cls-13{opacity:0.65;}.cls-15{fill:#554034;}.cls-16{fill:#755544;}.cls-17{fill:#9a715a;}.cls-18{fill:#bfa389;}.cls-19{fill:#b48d71;}.cls-20{stroke:#9a715a;stroke-linecap:round;stroke-linejoin:round;}.cls-21{fill:#b3b3b3;}.cls-22{fill:#ccc;}.cls-23{fill:#1b1464;}.cls-24{fill:#f5db90;}.cls-25{fill:#e6e6e6;}.cls-26{opacity:0.05;}.cls-27,.cls-30{fill:#404e63;}.cls-27,.cls-29{opacity:0.5;}.cls-28{fill:#f5eab9;}</style><clipPath id="clip-path"><rect class="cls-1" y="0.5" width="1920" height="663"/></clipPath><radialGradient id="Dégradé_sans_nom_34" cx="429" cy="78.5" r="342" gradientUnits="userSpaceOnUse"><stop offset="0" stop-color="#add5ff"/><stop offset="0.02" stop-color="#a8d0fa"/><stop offset="0.25" stop-color="#7ea4cd"/><stop offset="0.46" stop-color="#5c81aa"/><stop offset="0.67" stop-color="#456791"/><stop offset="0.85" stop-color="#365881"/><stop offset="1" stop-color="#31537c"/></radialGradient></defs><title>Mail Tester_design NEW</title><g class="cls-2"><rect class="cls-3" y="-7.5" width="1928" height="435"/><circle class="cls-4" cx="429" cy="78.5" r="342"/><g class="cls-5"><polygon class="cls-6" points="315.64 918.5 354.85 22.23 394.05 918.5 315.64 918.5"/><polygon class="cls-6" points="125.36 890.25 350.12 21.73 202.05 906.56 125.36 890.25"/><polygon class="cls-6" points="-54.88 823.04 345.6 20.26 16.74 854.94 -54.88 823.04"/><polygon class="cls-6" points="-217.21 719.81 341.49 17.88 -153.79 765.91 -217.21 719.81"/><polygon class="cls-6" points="-354.52 585.08 337.96 14.7 -302.07 643.36 -354.52 585.08"/><polygon class="cls-6" points="-460.8 424.73 335.16 10.86 -421.62 492.65 -460.8 424.73"/><polygon class="cls-6" points="-531.4 245.79 333.23 6.51 -507.21 320.37 -531.4 245.79"/><polygon class="cls-6" points="-563.25 56.07 332.25 1.86 -555.09 134.06 -563.25 56.07"/><polygon class="cls-6" points="1637 191.5 377.45 1.89 1667 81.5 1637 191.5"/><polygon class="cls-6" points="1501 441.5 376.45 6.54 1662 363.5 1501 441.5"/><polygon class="cls-6" points="1130.74 493.56 374.52 10.88 1170 425.68 1130.74 493.56"/><polygon class="cls-6" points="1011.01 644.13 371.72 14.72 1063.53 585.9 1011.01 644.13"/><polygon class="cls-6" points="862.59 766.51 368.19 17.9 926.07 720.48 862.59 766.51"/><polygon class="cls-6" points="691.96 855.34 364.07 20.27 763.62 823.52 691.96 855.34"/><polygon class="cls-6" points="506.58 906.74 359.55 21.73 583.3 890.52 506.58 906.74"/></g><path class="cls-7" d="M1938.86,667.26c-.69-37-1.62-73.94-3.08-110.88-2.62-66.44.37-67-7.24-133-152,2.07-522.6-3.27-861.26-12.52-687.66-18.8-921.48-65-1094.28-55V714H1938.61C1939,698.44,1939.15,682.87,1938.86,667.26Z"/><path class="cls-8" d="M464.79,405.15c6,8.48,6,21.07,9,31.81,6.17,22.39,24.71,35.26,42.42,43.56,3,1.42,6.28,2.8,9.49,2.13,4.42-.93,7.7-5.46,11.49-8.46,13.73-10.87,31.32-.93,47.26,3,17.59,4.38,35.74.9,53.68.89s37.31,4.4,49.59,20.77c7.26,9.68,13.65,24.24,24.22,23.27,8.42-.78,13.67-11.35,18.05-20.38,11.54-23.79,26.57-44.9,44.12-62,6.33-6.16,13.53-12.88,14.71-22.81a23.56,23.56,0,0,0-.87-9.44c-73.29-3-139.7-6.42-200.12-10.06-11.43,2.69-31.19-7.12-42.82-6.67-25,1-40-3.76-66-.53q-18-1.29-35.26-2.61C449.57,394.87,459.18,397.27,464.79,405.15Z"/><path class="cls-9" d="M1067.28,410.87c-687.66-18.8-921.48-65-1094.28-55v18.85c7.28,2.66,19.33,3.65,39.36-.22,52-10,58.26-15,96.05-5s67.7-10,108.64,0,70.85,5,113.36,13.78,108.64,17.54,143.28,10,94.47,1.25,113.37,7.52,133.83,15,179.49,10,181.07,2.5,204.69,11.27,59.83-10,86.6-5,132.25,16.29,155.87,11.28,133.84-13.78,207.84,1.25,61.4-7.52,100.77,0,96,3.76,129.11,5S1779,427.15,1801,430.91c15.32,2.61,86.85,5.22,129.11,6.57-.47-4.35-1-9-1.57-14.09C1776.59,425.46,1405.94,420.12,1067.28,410.87Z"/><path class="cls-10" d="M1494.23,440.17s-10.81,19.36,6.27,28.47,31.88-2.85,31.88-2.85V463s7.4-3.42,11.39,0c0,0,8.54-27.33,23.34-23.92v1.71s-13.66-2.28-20.5,22.77c0,0,12.53.57,8.54,4.56,0,0,9.68,5.12,13.67,8s27.9-2.85,27.9-13.09-1.71-11.39,1.7-9.68,14.24,30.74-25.62,43.84-23.34,17.65-42.7,17.65-11.95-14.81-25-18.79-33-28.47-15.94-55.8c0,0,1.71-3.41,4.55-3.41S1494.23,440.17,1494.23,440.17Z"/><path class="cls-10" d="M1566.26,439.32s7.4-6.27,10.24,4.55C1576.5,443.87,1560.56,447.86,1566.26,439.32Z"/><circle class="cls-6" cx="1520.14" cy="497.96" r="2.28"/><circle class="cls-10" cx="1520.99" cy="498.81" r="0.85"/><circle class="cls-6" cx="1540.07" cy="500.81" r="2.28"/><circle class="cls-10" cx="1540.92" cy="501.66" r="0.85"/><path class="cls-6" d="M1598.42,453.27c-3.41-1.71-1.7-.57-1.7,9.68,0,.06,0,.11,0,.17.24,8.75-4,21.47-24.4,34.15l.49-.16C1612.66,484,1601.84,455,1598.42,453.27Z"/><path class="cls-6" d="M1498,492.22c-20.9-28-9.32-48.49-4-55.44l-.33,0c-2.84,0-4.55,3.41-4.55,3.41C1475,462.83,1486.23,483.54,1498,492.22Z"/><path class="cls-11" d="M519.84,427.63a4.23,4.23,0,0,0-.39,2.81,3.72,3.72,0,0,1,.18,1c-.07,1.34-2.08,2.41-1.5,3.65.22.47.8.85.73,1.36s-.8.78-1,1.28c-.33,1,1.68,1.51,1.7,2.55,0,.58-.61,1.07-.52,1.64.13.79,1.54,1.15,1.42,1.94-.09.57-1,.88-1,1.45s.75.81.82,1.32-.89,1.05-.85,1.67c0,.42.47.69.84,1s.71.71.46,1.06-.46.3-.68.46c-.86.65.09,2.09-.66,2.83a1.14,1.14,0,0,1-1.53-.06c-.63-.74.25-2-.55-2.66-.19-.14-.44-.21-.63-.35-.55-.43-.27-1.24.16-1.75s1-1.05,1-1.69-.77-1.13-1.09-1.74a1.63,1.63,0,0,1,.38-2c.19-.18.45-.34.49-.59.11-.63-1.12-.73-1.43-1.31s.23-1,.24-1.53-.51-1.12-.31-1.65.63-.64.66-1c0-.82-1.61-.84-1.89-1.62s1.18-1.44,1-2.27-1.18-.85-1.58-1.43c-.5-.75.26-1.77-.18-2.55-.17-.3-.5-.51-.65-.82a1.06,1.06,0,0,1,.39-1.23,2.75,2.75,0,0,1,1.39-.5,5.88,5.88,0,0,1,3.82.85"/><path class="cls-11" d="M510.78,428.69c.8.8,1.67,2,1.1,3-.28.51-.88.77-1.09,1.33-.28.72.21,1.49.64,2.11s.83,1.5.41,2.14c-.22.35-.65.51-.87.86-.39.65.06,1.48.47,2.11s.77,1.54.27,2.09c-.15.17-.35.26-.51.42-.53.55-.24,1.53.17,2.2a3,3,0,0,1,.73,2.18c-.17.68-.86,1.12-1,1.82-.13,1,.94,2,.47,2.81-.11.2-.29.34-.4.53-.58,1,1.12,2.07,1,3.28-.06.77-.85,1.34-.79,2.11s1.14,1.6.71,2.33c-.1.18-.29.29-.43.46-.49.59-.14,1.54-.18,2.34A2.1,2.1,0,0,1,510,464.8c-.44-1,.15-2.44-.56-3.27-.33-.38-.91-.57-1-1.09-.11-.74.88-1.11,1.06-1.84s-.81-1.52-.9-2.41c-.13-1.11,1.21-1.89,1.19-3,0-.83-.78-1.43-.9-2.25s.52-1.8.24-2.64-1.16-1.22-1-2c.07-.47.51-.78.65-1.24.3-1-.83-1.8-.84-2.82,0-.79.67-1.47.55-2.24-.14-1-1.5-1.52-1.37-2.51.08-.66.81-1.07.84-1.74s-.79-1.23-.76-1.95,1-1.26,1-2.05c0-.41-.35-.72-.55-1.08a1.92,1.92,0,0,1,.56-2.4,1.58,1.58,0,0,1,2.19.61"/><path class="cls-11" d="M504.56,428.62a1.72,1.72,0,0,1,.47,2.15c-.21.38-.58.73-.56,1.16,0,1,1.91,1.18,1.88,2.15,0,.58-.76.9-1,1.45-.43,1.08,1.35,2,1.22,3.15-.07.62-.7,1.12-.67,1.74s1,1.3.77,2c-.14.45-.71.7-.86,1.14-.29.87,1.11,1.5,1.12,2.41-.29.53-1.25.48-1.52,1-.37.71.88,1.48.57,2.22-.2.46-.9.58-1.13,1-.42.83,1.11,1.86.48,2.58-.27.3-.85.37-.9.76s.2.47.39.67a1.73,1.73,0,0,1,0,2.44,1.55,1.55,0,0,1-2.36-.54c-.23-.77.39-1.74-.18-2.35-.26-.28-.72-.38-.91-.71s.12-1,.53-1.26.92-.58,1.07-1c.26-.82-.73-1.5-1-2.31a2.56,2.56,0,0,1,1-2.56,2,2,0,0,0,.6-.72c.3-.89-1-1.6-1.07-2.54s1.25-1.59,1.1-2.51c-.09-.54-.65-.89-1-1.33a2,2,0,0,1-.16-2.22c.19-.33.5-.65.47-1s-.65-.8-.9-1.26c-.42-.74.23-1.6.86-2.19a1,1,0,0,0,.36-.5c.09-.43-.38-.75-.69-1.09a1.51,1.51,0,0,1-.05-2,1.41,1.41,0,0,1,2.05.14"/><path class="cls-12" d="M522.44,427.93a3.72,3.72,0,0,0,3.94.29,2.32,2.32,0,0,0,1-1c.45-1-.11-2.1-.65-3a40.31,40.31,0,0,1-2.4-4.61c-.49-1.19-.87-2.42-1.44-3.57-2.14-4.3-6.74-7-11.45-7.87a9.7,9.7,0,0,0-3.56-.13,11.22,11.22,0,0,0-3.68,1.63,12,12,0,0,0-3.29,2.63,14.42,14.42,0,0,0-2.08,4.58,20.72,20.72,0,0,1-2.71,5.79,5.29,5.29,0,0,0-1.38,2.68,2.94,2.94,0,0,0,2.81,2.73,4,4,0,0,1,1.38.2,4.13,4.13,0,0,1,.8.59,4.44,4.44,0,0,0,4.34.67,1.15,1.15,0,0,1,.51-.14,1.34,1.34,0,0,1,.69.39,4,4,0,0,0,4.6.25,1.23,1.23,0,0,1,.58-.27,1,1,0,0,1,.46.14,6.38,6.38,0,0,0,2.91.74,2.87,2.87,0,0,0,2.49-1.44,7.34,7.34,0,0,0,3.64,1,2.7,2.7,0,0,0,2.6-2.33"/><g class="cls-13"><path class="cls-12" d="M525.31,426.91a25.65,25.65,0,0,1-1.07,4.09,4.84,4.84,0,0,0,.41,4.07,5.11,5.11,0,0,0,1.25,1.11c1.72,1.17,3.65,2,5.4,3.14a9.66,9.66,0,0,1,4.1,4.65,11.6,11.6,0,0,1,.51,3.71,21.78,21.78,0,0,1-1.31,8.42,28.33,28.33,0,0,1-5.27,7.67c2.32-3.11,4.45-6.49,5.28-10.32s.12-8.2-2.61-10.93a14.56,14.56,0,0,0-3.14-2.26,14,14,0,0,1-4.48-3.26,7.91,7.91,0,0,1-1.43-4.84,15.72,15.72,0,0,1,1-5c.13-.37.32-.78.68-.89s.79.42.49.67"/></g><g class="cls-13"><path class="cls-12" d="M523.65,425.42c-.62,2.62-2.58,4.91-2.55,7.61a9.83,9.83,0,0,0,1.68,4.73c2.66,4.58,6,9.15,6.15,14.45a19.43,19.43,0,0,1-2.76,9.61c-1.6,3-3.58,5.72-5.15,8.71,1.09-3.21,2.85-6.14,4.2-9.24s2.32-6.54,1.69-9.86c-.73-3.89-3.49-7-5.33-10.53a16.87,16.87,0,0,1-2.09-7.22,11,11,0,0,1,2.11-7.11,3.52,3.52,0,0,1,2.08-1.48"/></g><g class="cls-13"><path class="cls-12" d="M518.22,428.25a14.7,14.7,0,0,0-1.26,11c.53,1.84,1.41,3.55,2.1,5.33a26.16,26.16,0,0,1,1,15.48c-.88,3.62-2.52,7-3.82,10.5a58.3,58.3,0,0,0-2.65,9.53,18.86,18.86,0,0,1,.72-6.28c1.71-6.75,5-13.37,4.3-20.3-.47-5.14-3.05-9.87-3.86-15a22,22,0,0,1,.18-7.93,4.09,4.09,0,0,1,.83-2,1.59,1.59,0,0,1,2-.41"/></g><g class="cls-13"><path class="cls-12" d="M511,426.2a12,12,0,0,0-.4,6.7c.42,2.23,1.19,4.37,1.75,6.57a36.63,36.63,0,0,1,.31,16.82A52,52,0,0,0,511,464a31.24,31.24,0,0,0,.32,5.63l.9,7.57a12.58,12.58,0,0,1-1.31-5.32c-.19-2.29-.34-4.58-.43-6.87a28.25,28.25,0,0,1,.13-5.12c.22-1.61.69-3.17,1-4.77a39.26,39.26,0,0,0,.31-7.89,38.5,38.5,0,0,0-.66-6.95c-.93-4.36-3.27-8.61-2.59-13a2.11,2.11,0,0,1,.52-1.24.84.84,0,0,1,1.21,0"/></g><g class="cls-13"><path class="cls-12" d="M499.76,421.21c-.95.29-1,1.81-.86,2.94l.78,6a18,18,0,0,1,.18,4.91c-.51,3.36-2.86,5.87-4.94,8.28s-4.18,5.39-4,8.79a12.86,12.86,0,0,0,1.28,4.35,88,88,0,0,1,4,8.92,15.43,15.43,0,0,1,.34,9.79c1.56-3.62,1.08-8,.11-11.85s-2.42-7.68-2.68-11.72a7.44,7.44,0,0,1,.43-3.49,10.18,10.18,0,0,1,2.13-2.65,19.21,19.21,0,0,0,4.63-11.3,30.55,30.55,0,0,0-1.73-12.49"/></g><g class="cls-13"><path class="cls-12" d="M504.62,427.06c1.8,5.15,3.62,10.59,2,15.59s-6.17,8.71-7.18,13.68c-.53,2.64,0,5.38.35,8.09a60.4,60.4,0,0,1,.49,8.38c0,1.79-.18,3.71-1.6,5,1.51-8.05-2.1-16.72.46-24.54,1.72-5.25,6.15-9.82,6.26-15.33.09-3.81-1.94-7.72-1-11.42"/></g><g class="cls-14"><path class="cls-6" d="M1921.12,757.65l.52-15c-50.33,5.63-328.58-7.73-328.58-7.73-42.74-.64-94.92-26.84-231.81-34.24s-230-.73-230-.73c-87.85-18.11-201.47-15.9-258.88-19s-224.24,2.92-224.24,2.92c-32-13.42-124.59-21.76-155.68-18.43s-63.17-6.76-91-11.6-129.76-.33-129.76-.33c-11.32-6-31.5-9.75-68.22-12.42L326,638.9s157.19,17.27,195.41,20.58,257.76,8.91,257.76,8.91,43.87-10.79,4.43-21.7c-32.77-9.06-94.25-11.88-114.11-12.58-35.88-14.62-95.42-26.32-145.38-31.53-43.7-4.55-109.93-2.17-125.83-1.5a186.85,186.85,0,0,0-42-6.31L41.94,579.67s302.45,17,323,19.33S482,625.39,482,625.39l-127.3-7.51c-47.06-3.79-292.86-17.07-292.86-17.07C110.43,603.43,304,634,304,634l-166.91,3.78-8-.28c-86.9-3-154.14-20-154.14-20l7,10.4c36.84,6.72,77.49,9.88,116.25,12l18.17,2.81,29.37-.52c50.73,2.33,93,4.67,111,13.94C293,674.7,356.1,684.79,356.1,684.79c-107.79,4.2-378-27.11-378-27.11l-3.17,6.52,145.37,17.87,58.31,19.86L-37.09,712l233.19-5.77s295.28,32.65,385.24,32.5,205.39-12.29,205.39-12.29,89,28.19,140.56,29.31,184.79-13.4,184.79-13.4l112.59,27.8L1074.5,720.26s97.14,5.25,145.89,2.87,75,5.72,75,5.72c107.6,44.24,298.48,67.91,298.48,67.91-64.24-18.5-295.31-74.42-295.31-74.42l286.9,18.84,187,6.77c-90.25,8.49-135.72,44.45-135.72,44.45a164,164,0,0,1,16.32-6.81c96.15,27.68,269.91,2.23,269.91,2.23l.19-5.36.16-4.65-70.08-20.49Zm-1129-103s5.5,11.58-37.14,8-216.45-9.18-216.45-9.18,62.55-17.94,78.74-17.06S772.11,637.3,792.15,654.68ZM411.92,605.3l-1.61-.56c16.73-.55,68.59-2.09,93.09-.77,29.44,1.59,83.68,10.79,83.68,10.79,35.45,7.51,54.91,14.47,64.38,18.53l-154.68-8.36S441.06,615.65,411.92,605.3ZM293.31,624s254.85,7.5,301.91,11.29c0,0-61,15.51-90.43,13.92S337.12,636.37,293.31,624Zm-11.53,35.09s80.06-12.38,126.76,1.84,90.91,14.93,114.63,11.2,116,14.62,116,14.62l-116.74,7.06-153.07-8.27C356.1,684.79,315.63,660.89,281.78,659.06Zm-135,24.44s297.49,11.06,315.16,12c0,0-67.16,23.1-93.65,21.67S182.86,705.5,146.75,683.5Zm262.72,35.91S476.74,693,507.53,698s120,28.2,120,28.2S500.38,734.35,409.47,719.41ZM642.2,727l-96.4-26.92S753,679.5,846.93,691.26C846.93,691.26,791.38,720,642.2,727ZM815,719.6l40.6-22.86s157.43,10.18,205.2,36.14C1060.79,732.88,923.54,778.92,815,719.6ZM935.3,694.37s119.8-10.24,229.39,19.07C1164.69,713.44,1008.26,716.68,935.3,694.37ZM1225.09,715c-32.38-1.75-70.36-12.15-70.36-12.15,56.39-10.32,195.93,5.57,254.86,7.09s129,22,129,22Zm689.82,69.12c-83.51,15.61-234.17,3.33-260.55,1,62.77-22.18,167.12-26.19,188.52-25C1860.93,761.08,1898.4,776.84,1914.91,784.15Z"/><path class="cls-6" d="M641.62,529.59c-51.45-4.45-142,14-142,14S385.4,519.09,295.79,509.24s-386-9.16-386-9.16l-231.93-30.91L-108,502.46-167.48,516l-146.06,2.13,2.72,6.83s271.4-2,378.5,13.77c0,0-63.52,3.25-100.89,17.93s-170.74-9.22-275.7-1.53l-7.71,9.61s68.17-9.68,155-3.32,125.11,6.75,143.06-.63c0,0,101.22,15.49,129.3,13.67s60.75-8.41,91.49-1.74,123.58,8.35,156.36-1.58c0,0,165.81,24,223.21,27.1,31.28,1.69,79.1,6.74,130.49,9.62,45.06,42.69,226.1,71.05,277.41,71.33,51.6.28,166.54,2.73,188.78.21l306.79,18.41a184.74,184.74,0,0,0,42.29-1.75c15.8,2.38,81.61,11.89,125.46,12.07,50.13.2,110.25-5,147-15.73,19.84,1.45,81.28,5.27,114.55-.23,40-6.61-2.92-22.1-2.92-22.1s-219.1-18.1-257.41-18.92-196.11-.56-196.11-.56L1252.57,624.6c6.21-.7,12-1.34,17.53-1.83,21.77-2,41-12.33,52.13-28.12,3.59-5.07,6.39-8.79,6.84-8.76a.54.54,0,0,0,0-.1,316.7,316.7,0,0,0,37.43,4.31c63.29,3.42,141.76-5.71,165.49-9.44s96.61-.62,96.61-.62C1712.1,639.67,1920.94,656,1920.94,656l.25-14.22c-15.89-1-55.2-3.66-72.51-7.23,0,0,48.66-9.32,72.88-13.46l.16-9.32c-17.32-11-249.3-40.2-249.3-40.2l-169-17.48c-90.66-4.9-182.56,3-223.93,7.42-57.84,2.24-189,9.88-273,34.6,0,0-26.73,5.24-75.13-2.39s-145.54-12.87-145.54-12.87l224.41-64.11c4.85.18,9.45.38,13.72.61,57.4,3.1,224.24-2.92,224.24-2.92,32,13.42,124.59,21.76,155.68,18.43s63.17,6.76,91,11.6,129.76.33,129.76.33c17.37,9.29,55.59,13,142.49,16s154.14,20,154.14,20l-7-10.4c-104-19-238.56-9.55-274.79-28.21s-99.28-28.75-99.28-28.75c107.79-4.2,378,27.11,378,27.11l3.18-6.52-145.37-17.87-58.31-19.86,215.65-10.06-233.19,5.78S1405,459.39,1315,459.54s-205.39,12.29-205.39,12.29-89-28.19-140.56-29.31-184.79,13.4-184.79,13.4l-112.59-27.8L821.83,478s-97.14-5.25-145.89-2.87-75-5.72-75-5.72c-107.6-44.24-298.48-67.91-298.48-67.91,64.24,18.5,295.31,74.42,295.31,74.42l-286.9-18.84-187-6.77c90.24-8.49,135.72-44.45,135.72-44.45a164,164,0,0,1-16.32,6.81C147.06,385-26.7,410.44-26.7,410.44l-.19,5.36-.16,4.65L43,440.94l-67.82-.33-.52,15C25,450,303.27,463.35,303.27,463.35c42.74.64,94.92,26.84,231.81,34.24s230,.73,230,.73c79.51,16.39,180.12,16.13,241.07,18.24L818.41,555.8S693.08,534,641.62,529.59Zm1145.15,61.5c96.91,11.91,130.42,23.75,130.42,23.75L1834,633.73s-146.84-18-200.21-52.58C1633.75,581.15,1689.85,579.17,1786.77,591.09ZM340.9,526.71s-90.42,13.49-121.44,15.15-96.23-31.92-96.23-31.92C214.83,504.86,340.9,526.71,340.9,526.71ZM-141,517.38c37.48-18,196.5-11.1,223-9.67s91.81,31.69,91.81,31.69C156.17,538.44-141,517.38-141,517.38Zm374.24,52c-23.38-6.28-67.48-10.33-115-1.2S-8.13,556.3-8.13,556.3c33.85,1.83,75.81-17.62,89.06-16.91L234,547.66l115.82,19.62S256.64,575.61,233.26,569.34Zm24.47-25.41,97.89-16.43c148.14,23,201.51,57.66,201.51,57.66C462.7,586.74,257.73,543.93,257.73,543.93Zm308.41,36.71-38.88-27.16c112.22-47.39,245.8,13.28,245.8,13.28C723.68,587.48,566.14,580.64,566.14,580.64Zm146.61,27.19c42.77,2.38,88,3.23,128.23-.65,0,0,74.31,13.42,188.43,21.53-15.66,7.69-78.57,35.93-153,33.09C786.62,649.19,722.53,613.52,712.75,607.83Zm389.11,67.34c-103.38,4.45-100.26-.4-207.54-11.21l-2.56-.27c33,1.39,90.66-2,138.57-34.92q19.22,1.37,39.86,2.49c52.87,2.85,93.33,1.55,125.55-.9-1.83,7.61-7.15,29-11.07,38C1179.87,679.39,1101.86,675.17,1101.86,675.17Zm392.32,19.32c-18.69.12-268.21-12.74-315.45-15.18,8.68-1.16,13.26-9.53,15.61-19.2,23.5,1.26,246.3,13.24,290.94,14.46l127.34,6.26S1514.83,694.35,1494.18,694.49Zm222.39,8.25s-54.68,3.31-84.12,1.72c-24.49-1.32-76.06-8.44-92.69-10.8l1.65-.38c29.74-7.17,85.89-10.41,85.89-10.41L1782,691.23C1772.27,694.25,1752.4,699.08,1716.57,702.74Zm170.6-29.65c42.73,1,36.45,12,36.45,12-21.17,15.15-159.26.17-175.46-.7s-77.27-25.49-77.27-25.49S1844.44,672,1887.17,673.09ZM1637,659.57c29.43,1.59,89.14,23.62,89.14,23.62-47.15-1.29-301.57-21.3-301.57-21.3C1469,654.26,1607.51,658,1637,659.57Zm-201.07-6.47s-189.84,9.27-241.53,7c2.74-11.26,2.49-24.29,2.21-29.8,14.07-1.08,26.55-2.37,37.8-3.63Zm-112.75-68.42,2.35.45C1324.23,585.22,1323.15,585.23,1323.13,584.68Zm4-6.73s56.1-2,78.06,2.54C1405.2,580.49,1359.29,586.37,1327.14,578Zm208-3.8s-160.9,4.67-212-11.45C1323.24,562.7,1461,545.09,1535.19,574.15Zm-270.41-6.57A318.83,318.83,0,0,0,1323,584.64l-4.52,5.18c-13.83,15.83-36.09,24.66-59.65,23.66l-249.55-10.57S1173,581.36,1264.78,567.58ZM935.52,602.27,1249,619.2s-71.23,12.86-130,8-198.93-4.06-254.41-20.42C864.58,606.79,903.14,600.52,935.52,602.27Zm-60.29-4.93C764,614.72,645.39,591.6,645.39,591.6,719.61,577.24,875.23,597.34,875.23,597.34ZM-18.59,414.11c83.52-15.6,234.18-3.33,260.56-1-62.77,22.18-167.13,26.19-188.52,25C35.4,437.18-2.07,421.42-18.59,414.11ZM1614.55,539.2s-80.06,12.38-126.76-1.84-90.91-14.93-114.63-11.2-116-14.62-116-14.62l116.73-7.06L1527,512.75C1540.23,513.47,1580.69,537.37,1614.55,539.2Zm135-24.44s-297.49-11.06-315.16-12c0,0,67.16-23.1,93.65-21.67S1713.47,492.76,1749.58,514.76Zm-262.72-35.91s-67.27,26.43-98.06,21.43-120-28.2-120-28.2S1396,463.91,1486.86,478.85Zm-232.73-7.56,96.4,26.92S1143.37,518.76,1049.4,507C1049.4,507,1105,478.26,1254.13,471.29Zm-767.39,17c-58.94-1.51-129-22-129-22l313.51,16.94c32.38,1.75,70.36,12.15,70.36,12.15C685.21,505.7,545.67,489.81,486.74,488.29Zm244.9-3.47S888.07,481.58,961,503.89C961,503.89,841.23,514.13,731.64,484.82Zm103.9-19.44s137.25-46,245.8,13.28l-40.6,22.86S883.31,491.34,835.54,465.38Z"/></g><ellipse class="cls-9" cx="436.5" cy="434.67" rx="7.5" ry="2.51"/><ellipse class="cls-9" cx="451.5" cy="449.7" rx="5.5" ry="3.76"/><ellipse class="cls-9" cx="413.5" cy="468.49" rx="5.5" ry="3.76"/><path class="cls-15" d="M943.08,445.55l111.58-68.23,6.07-1.61a1.66,1.66,0,0,0,1-2.49l-3.64-5.79a1.67,1.67,0,0,0-2.7-.17l-4.27,5.18L940.63,439.88C941.48,441.75,942.29,443.65,943.08,445.55Z"/><path class="cls-16" d="M765.48,446.54,778.72,516s50.8,37.68,153.65,31.9,189.28-19.8,250.64-99.73c0,0,14-21.67-23.51-31.94s-165.33-46.39-323.67-7Z"/><path class="cls-17" d="M1164.52,438s19.65-4.68,11.24-14.92a56.21,56.21,0,0,0-16.26-6.87c-37.51-10.27-165.33-46.39-323.67-7l-70.35,37.3S995.07,497,1164.52,438Z"/><path class="cls-18" d="M793.93,444.72,852.43,411s179.69-32.37,313,14.5c0,0-66.35,37.12-219.61,35.22C945.83,460.69,823.64,459.36,793.93,444.72Z"/><path class="cls-16" d="M829.65,453.32,853.59,436l-1.16-25-58.5,33.75C801.27,448.34,814.26,451.14,829.65,453.32Z"/><path class="cls-16" d="M1164.79,411.49l18.26,5.15s9.92,54.9-65.25,89.27c0,0,45.57-60.32,40.27-88.11Z"/><path class="cls-19" d="M1158.49,423.12C1026,379.71,852.43,411,852.43,411l1.16,25s168-4.8,234.63,8.12l29-1.34A285.65,285.65,0,0,0,1158,429,40.32,40.32,0,0,0,1158.49,423.12Z"/><polygon class="cls-15" points="1158.07 417.8 1164.79 411.49 1183.05 416.64 1177.21 423.92 1158.07 417.8"/><path class="cls-17" d="M1183.07,416.77l-5.69,7.15c-4.29,31.36-44.54,69.08-59,81.7C1190.9,472.15,1183.52,419.58,1183.07,416.77Z"/><path class="cls-20" d="M770.94,475.16s159.53,61.92,369.68-4.64"/><path class="cls-20" d="M775.77,500.51s140,58.13,345.9.44"/><path class="cls-20" d="M811.66,450.75l40.28-24s134.9-19.29,291,8.2"/><polygon class="cls-15" points="915.64 414.05 956.78 416.14 904.23 459.44 860.63 456.7 915.64 414.05"/><path class="cls-16" d="M917,460l40.28-32.82-.51-11-52.55,43.3C908.73,459.64,913,459.81,917,460Z"/><path class="cls-16" d="M904.23,459.44l-1.82-.11,0,0Z"/><path class="cls-15" d="M1158.58,428.76h0l-72.71-13.61-41.68,40.91C1107.47,448.8,1144.34,435.05,1158.58,428.76Z"/><path class="cls-20" d="M1154.44,442.12s-25.47,57.45-40.61,66"/><path class="cls-21" d="M718.27,265.77a16.57,16.57,0,0,0-7.14,1.61A18.87,18.87,0,0,0,693.8,256a18,18,0,0,0-2.33.16,20.62,20.62,0,0,0,.23-3,20.89,20.89,0,0,0-25.82-20.38,29.92,29.92,0,0,0,.66-6.18A29.27,29.27,0,0,0,630,198.2,47.53,47.53,0,0,0,544,203.67a23.68,23.68,0,0,0-29.15,28.58c-.23,0-.46,0-.7,0A23.77,23.77,0,0,0,490.4,256c0,.48,0,1,.07,1.44-.26,0-.51,0-.77,0a24.39,24.39,0,0,0-18.82,8.84,37.54,37.54,0,0,0-21-6.05c-17,0-30.76,10-30.76,22.37s13.77,22.37,30.76,22.37c8.52,0,16.22-2.52,21.79-6.59a24.42,24.42,0,0,0,40.81-7.55,32.16,32.16,0,0,0,57.2,4.18,44.7,44.7,0,0,0,65-5.83,28.6,28.6,0,0,0,49.92,2.2,18.81,18.81,0,0,0,19.13-.44,16.77,16.77,0,1,0,14.55-25.11Z"/><path class="cls-22" d="M726.13,267.73a16.69,16.69,0,0,0-15-.35A18.87,18.87,0,0,0,693.8,256a18,18,0,0,0-2.33.16,20.62,20.62,0,0,0,.23-3,20.89,20.89,0,0,0-25.82-20.38,29.92,29.92,0,0,0,.66-6.18A29.27,29.27,0,0,0,630,198.2,47.53,47.53,0,0,0,544,203.67a23.68,23.68,0,0,0-29.15,28.58c-.23,0-.46,0-.7,0A23.77,23.77,0,0,0,490.4,256c0,.48,0,1,.07,1.44-.26,0-.51,0-.77,0a24.39,24.39,0,0,0-18.82,8.84,37.54,37.54,0,0,0-21-6.05c-13.38,0-24.75,6.21-29,14.89,7.59,4.22,17.47,6.78,28.29,6.78,13.44,0,25.45-3.95,33.4-10.14a21.63,21.63,0,0,0,37.8-12.45,61.48,61.48,0,0,0,90.58,5.09,34.25,34.25,0,0,0,53.21,6.12,34.26,34.26,0,0,0,62-2.73Z"/><path class="cls-21" d="M568.27,205.74A20.3,20.3,0,0,0,548,186.88l-.84,0a25.79,25.79,0,1,0-50.93-7.63,20.3,20.3,0,0,0-30.41,17.3,18,18,0,0,0-14.75,8.88,10.1,10.1,0,0,0-8,5A14.12,14.12,0,0,0,435,208c-7.17,0-13,5.1-13,11.4s5.81,11.4,13,11.4a13.81,13.81,0,0,0,9.43-3.58,7,7,0,0,0,11,1.55,18,18,0,0,0,24.52-1.9,11.59,11.59,0,0,0,19.28,2.33A29.64,29.64,0,0,0,546,227.39a19.57,19.57,0,0,0,2,.1,20.12,20.12,0,0,0,9.8-2.52,11.59,11.59,0,1,0,10.45-19.23Z"/><path class="cls-22" d="M561.65,216a15.5,15.5,0,0,0,16.34,1,11.59,11.59,0,0,0-9.72-11.17A20.3,20.3,0,0,0,548,186.88l-.84,0a25.79,25.79,0,1,0-50.93-7.63,20.3,20.3,0,0,0-30.41,17.3,18,18,0,0,0-14.75,8.88,10.1,10.1,0,0,0-8,5A14.12,14.12,0,0,0,435,208c-7.17,0-13,5.1-13,11.4a10.11,10.11,0,0,0,.35,2.59,17.72,17.72,0,0,0,23.18-4,17.72,17.72,0,0,0,31.14-7.1,17.74,17.74,0,0,0,24.16-11A27.4,27.4,0,0,0,542,218,17.7,17.7,0,0,0,561.65,216Z"/><path class="cls-21" d="M1200.2,234.15a46.32,46.32,0,0,1,46.2-43c.65,0,1.29,0,1.93,0a58.84,58.84,0,1,1,116.22-17.43,46.32,46.32,0,0,1,69.4,39.49,41.18,41.18,0,0,1,33.66,20.27A23.08,23.08,0,0,1,1486,244.83a32.12,32.12,0,0,1,18.38-5.64c16.37,0,29.63,11.65,29.63,26s-13.26,26-29.63,26a31.57,31.57,0,0,1-21.52-8.17,15.89,15.89,0,0,1-25.1,3.54,41.16,41.16,0,0,1-56-4.34,26.44,26.44,0,0,1-44,5.33,67.64,67.64,0,0,1-106.75-4c-1.53.15-3.08.23-4.65.23a46.12,46.12,0,0,1-22.35-5.75,26.46,26.46,0,1,1-23.85-43.89Z"/><path class="cls-22" d="M1215.3,257.44a35.28,35.28,0,0,1-37.27,2.19,26.45,26.45,0,0,1,22.17-25.48,46.32,46.32,0,0,1,46.2-43c.65,0,1.29,0,1.93,0a58.84,58.84,0,1,1,116.22-17.43,46.32,46.32,0,0,1,69.4,39.49,41.18,41.18,0,0,1,33.66,20.27A23.08,23.08,0,0,1,1486,244.83a32.12,32.12,0,0,1,18.38-5.64c16.37,0,29.63,11.65,29.63,26a22.85,22.85,0,0,1-.8,5.92,40.43,40.43,0,0,1-52.89-9.21,40.44,40.44,0,0,1-71.07-16.2,40.47,40.47,0,0,1-55.13-25,62.52,62.52,0,0,1-93.9,41.46,40.46,40.46,0,0,1-44.91-4.72Z"/><ellipse class="cls-9" cx="427.5" cy="509.5" rx="8.5" ry="5"/><ellipse class="cls-9" cx="1294.5" cy="532.5" rx="5.5" ry="1"/><path class="cls-7" d="M-24,475.63C100.29,456.54,230,471,346.34,517c55.61,22,119.19,51,172.2,23.73,15.52-8,28.56-20.36,45.1-26.16,29.51-10.35,63,2.44,93.51-4.92,20.13-4.86,37.56-18.25,58.14-20.81,17.66-2.2,35.16,3.87,52,9.44,144.86,47.9,304.79,65,451.54,22.75,34.83-10,69.12-23.4,105.36-26.17,51-3.89,100.82,13.49,150.74,24.4,165.85,36.25,343.79,1.9,506,51-1,39.28,11.84,141.31,10.83,180.59-155.15,1.38-320.15-17-474.49-1.75-179.08,17.69-359.6-4-539.62-4.65-259.07-.88-517.84,42-776.28,24.63-65.69-4.41-137.13-15.59-181.08-62.72C-33.2,648.93-35,552.09-24.43,475.68"/><path class="cls-8" d="M1021.12,691s115.21,87.91,196.49,7.14,115.23-68.91,163.07-71.87,51.56-78.63,87.51-69,46.67-24.43,46.67-24.43l-91-16.35-81.79-13.35-63,4.7-95.46,26.6-81.89,12-100.7,9.3,3.44,21.67L1035,604l9.26,5.93-8.92,60Z"/><path class="cls-8" d="M56.59,746.36s163.59,14.84,152.78-62.29,26.83-88.92,50.46-127.52,17.41-52,17.41-52l-97.56-22.81L66.27,503.85l-.74,208Z"/><path class="cls-8" d="M552,532.79S521.1,607,584.38,598.05,694,577.28,721.72,602.5s89.62,39.75,117.35,13.2S953.2,592.11,1014.93,601l20.07,3-34-26.7-8.49-30.21-80.92-7.35L817.4,518l-84.48-23-48.23,17-47.84,4.45-39-4.62Z"/><ellipse class="cls-9" cx="321.26" cy="574.32" rx="14.66" ry="8.9"/><ellipse class="cls-9" cx="349.81" cy="601.01" rx="9.26" ry="4.45"/><ellipse class="cls-9" cx="304.28" cy="609.17" rx="5.4" ry="3.71"/><ellipse class="cls-9" cx="491.78" cy="606.95" rx="6.17" ry="5.93"/><ellipse class="cls-9" cx="522.65" cy="631.42" rx="9.26" ry="2.22"/><ellipse class="cls-9" cx="954.75" cy="593.6" rx="6.17" ry="2.97"/><ellipse class="cls-9" cx="992.56" cy="616.59" rx="8.49" ry="3.71"/><ellipse class="cls-9" cx="1539.63" cy="572.83" rx="7.72" ry="2.97"/><ellipse class="cls-9" cx="1551.98" cy="609.91" rx="9.26" ry="2.97"/><ellipse class="cls-9" cx="1623.74" cy="581.73" rx="8.49" ry="2.97"/><ellipse class="cls-9" cx="1089.78" cy="585.44" rx="3.86" ry="3.71"/><ellipse class="cls-9" cx="1085.15" cy="609.91" rx="8.49" ry="2.97"/><ellipse class="cls-9" cx="1054.29" cy="579.51" rx="8.49" ry="3.71"/><ellipse class="cls-9" cx="1069.72" cy="638.83" rx="6.94" ry="6.67"/><path class="cls-9" d="M1474.93,519.27c-49.92-10.91-99.7-28.29-150.74-24.4C1288,497.64,1253.66,511,1218.83,521c-146.75,42.29-306.68,25.15-451.54-22.75-16.84-5.57-34.34-11.64-52-9.44-20.58,2.56-38,15.95-58.14,20.81-30.47,7.36-64-5.43-93.51,4.92-16.54,5.8-29.58,18.18-45.1,26.16C465.53,568,402,539,346.34,517,230,471,100.29,456.54-24,475.63l-.45.05c-.65,4.76-1.27,9.6-1.82,14.5,9.64,1.33.08,18.12,12.25,17.32-.52,23.47,2.82,37.59,1,61-4.85,62.29,5.62,118.24,5.32,180.77q0,8.76.11,17.54l75,21.08S27.46,694.06,29,655.5s50.48-21,69-61-15-31.15-16-71,53-30.88,53-30.88c7.28,1.39,14.42,1.67,22.14-.46,22.14-6.09,52.11-1.64,71.85,7.26s58.32,8.89,83,20.76,57.1,16.31,57.1,37.08-3.09,37.08,10.8,47.46,33.38,32.74,51.41,30.46,42.73,5.14,50.44,25.9,20.06,41.53,20.06,41.53,37.2-4.34,18.6-21.45S498.73,621,471,622.52s-32.41,22.25-55.56,0S376.82,590,379.9,575.85s23.15-17.11,47.84-6.73,43.12,14.94,50.88,3.77,33.77-2.17,47-16.32,24,2.17,42.55-17.11,47.73-31,55.5-15.52,60.25,5.14,68-3.76,37-26.7,57.1-13.35,46.15,33.65,90.21,25,47.14,16.55,74.92,21,49.42,2.8,64.83,5.11c6.29.94,8.16,4,9.29,8.35.41,10.87,5.14,26.54,26.95,34.74h0l1.7.67c33,13.36,9.28,33.76,19.9,52.73,10.8,19.28,1.55,34.11,40.13,51.91s54,13.35,23.14-14.83-52.47-11.87-54-46c-1.53-33.84,24.43-40-3.12-56l-.64-.38h0c-.58-.35-1.17-.68-1.77-1-10.34-5.85-19.09-10.43-26-13.87a6.65,6.65,0,0,1-.9-1.38c-3.83-8.21,34.75-21.56,37.83-15.63s57.1-8.9,72.53,3,36.24-19.18,57.47-11.07,70.62-24.53,76.8-15.63,43.21,0,54-13.35,28.37-5.82,44.28-3.65,59.11-5.25,60.66,8.1S1486.39,538,1486.39,538s21.61,1.48,49.39,5.93,64.81,14.83,74.07,10.38,35.5,1.49,58.64,5.94,58.65-1.49,80.25-3,75.62-13.35,86.42,0,92.26,28.29,118.66,26c8.29-.72,17.77-1.79,26.89-2.93.09-3.37.17-6.75.26-10.12C1818.72,521.17,1640.78,555.52,1474.93,519.27Z"/><path class="cls-11" d="M599.83,576.34a7.76,7.76,0,0,1,.63,4.88,7.51,7.51,0,0,0-.29,1.81c.11,2.32,3.34,4.18,2.41,6.34-.35.82-1.29,1.48-1.17,2.36s1.29,1.36,1.55,2.23c.52,1.73-2.7,2.63-2.75,4.43,0,1,1,1.86.84,2.85-.21,1.38-2.47,2-2.28,3.37.15,1,1.56,1.53,1.53,2.53s-1.21,1.4-1.31,2.28c-.13,1.09,1.42,1.83,1.36,2.92,0,.72-.76,1.2-1.35,1.65s-1.14,1.23-.74,1.85c.24.38.74.52,1.09.8,1.38,1.12-.14,3.62,1.07,4.91a1.69,1.69,0,0,0,2.44-.1c1-1.29-.39-3.57.9-4.62.31-.25.71-.36,1-.61.88-.74.43-2.14-.27-3.05s-1.62-1.81-1.54-2.93,1.25-2,1.76-3a3,3,0,0,0-.6-3.41c-.32-.31-.73-.59-.8-1-.18-1.1,1.8-1.27,2.3-2.28.41-.83-.37-1.75-.39-2.66s.83-1.93.5-2.87c-.23-.66-1-1.11-1.05-1.8-.09-1.42,2.58-1.46,3-2.81s-1.89-2.5-1.63-4c.22-1.18,1.91-1.47,2.55-2.49.8-1.29-.42-3.08.29-4.42.27-.52.8-.89,1-1.43a1.94,1.94,0,0,0-.62-2.14,4.24,4.24,0,0,0-2.25-.87,8.86,8.86,0,0,0-6.14,1.47"/><path class="cls-11" d="M614.4,577.74c-1.28,1.13-2.68,2.86-1.77,4.3.46.72,1.41,1.1,1.75,1.88.45,1-.34,2.11-1,3s-1.34,2.12-.67,3c.36.5,1,.72,1.39,1.23.63.91-.09,2.09-.74,3s-1.24,2.19-.44,3c.24.23.57.36.82.59.85.78.38,2.16-.27,3.11s-1.49,2-1.18,3.08,1.39,1.58,1.55,2.57c.21,1.38-1.52,2.78-.77,4,.18.28.47.48.65.76.94,1.46-1.79,2.92-1.64,4.63.1,1.09,1.37,1.89,1.28,3s-1.83,2.26-1.15,3.29a5.35,5.35,0,0,0,.69.65c.8.85.23,2.18.29,3.32a3.11,3.11,0,0,0,2.47,2.76c.7-1.46-.24-3.46.9-4.63.53-.54,1.45-.81,1.58-1.54.19-1-1.4-1.58-1.69-2.6-.35-1.22,1.29-2.15,1.45-3.41.19-1.57-2-2.67-1.92-4.25,0-1.17,1.26-2,1.45-3.17s-.85-2.54-.4-3.74,1.86-1.71,1.69-2.82c-.11-.67-.82-1.11-1-1.75-.48-1.36,1.34-2.56,1.35-4,0-1.11-1.07-2.08-.89-3.17.24-1.41,2.42-2.14,2.21-3.55-.13-.93-1.31-1.51-1.36-2.45s1.27-1.75,1.23-2.77-1.66-1.78-1.57-2.89c0-.59.56-1,.88-1.53a2.52,2.52,0,0,0-.89-3.39,2.75,2.75,0,0,0-3.53.86"/><path class="cls-11" d="M624.4,577.77a2.93,2.93,0,0,0-.76,3.57c.34.64.94,1.22.9,1.94-.08,1.6-3.07,2-3,3.56,0,1,1.2,1.5,1.55,2.4.69,1.81-2.17,3.33-2,5.24.12,1,1.12,1.85,1.07,2.89-.07,1.2-1.57,2.16-1.23,3.32.22.75,1.13,1.15,1.38,1.89.47,1.44-1.79,2.5-1.81,4,.47.88,2,.8,2.46,1.69.59,1.19-1.42,2.46-.92,3.68.31.78,1.44,1,1.8,1.73.68,1.39-1.78,3.1-.76,4.28.43.5,1.36.63,1.45,1.27.06.43-.33.78-.63,1.11a2.94,2.94,0,0,0,.07,4.06c1.16,1,3.39.55,3.79-.89s-.62-2.9.29-3.91c.42-.46,1.15-.64,1.45-1.18.41-.71-.19-1.58-.85-2.09s-1.48-1-1.71-1.74c-.42-1.37,1.18-2.49,1.64-3.85.52-1.52-.47-3.13-1.66-4.25a3.13,3.13,0,0,1-1-1.19c-.49-1.48,1.67-2.66,1.71-4.21s-2-2.65-1.76-4.17c.14-.9,1-1.48,1.6-2.22a3.38,3.38,0,0,0,.26-3.67c-.31-.55-.79-1.08-.75-1.7.07-.85,1.05-1.33,1.45-2.09.66-1.23-.37-2.65-1.39-3.64a1.75,1.75,0,0,1-.58-.83c-.15-.71.61-1.25,1.11-1.8a2.56,2.56,0,0,0,.08-3.37,2.19,2.19,0,0,0-3.29.23"/><path class="cls-12" d="M595.65,576.66a6.22,6.22,0,0,1-6.34.45,3.7,3.7,0,0,1-1.64-1.56c-.73-1.5.17-3.23,1-4.67a59.8,59.8,0,0,0,3.85-7.13c.79-1.83,1.41-3.74,2.33-5.52,3.43-6.63,10.83-10.74,18.4-12.15a16.19,16.19,0,0,1,5.72-.21,18.62,18.62,0,0,1,5.91,2.52,19.35,19.35,0,0,1,5.3,4.07c1.69,2,2.48,4.6,3.33,7.07a31.82,31.82,0,0,0,4.36,9c1,1.27,2.15,2.56,2.23,4.14.1,2.22-2.21,4-4.52,4.21a6.82,6.82,0,0,0-2.22.31,6.07,6.07,0,0,0-1.28.91,7.37,7.37,0,0,1-7,1,2.21,2.21,0,0,0-.82-.21,2,2,0,0,0-1.11.6,6.67,6.67,0,0,1-7.4.38,2,2,0,0,0-.94-.4,1.65,1.65,0,0,0-.74.21,10.62,10.62,0,0,1-4.67,1.14,4.68,4.68,0,0,1-4-2.23,12.15,12.15,0,0,1-5.85,1.52c-2-.15-4.12-1.63-4.17-3.59"/><g class="cls-13"><path class="cls-12" d="M591.87,576.65c.2,2.11,1.17,4.07,1.73,6.12s.67,4.41-.67,6.09a7.67,7.67,0,0,1-2,1.66c-2.78,1.75-5.87,3-8.68,4.7s-5.45,4-6.6,7a16.06,16.06,0,0,0-.81,5.56,30.55,30.55,0,0,0,2.1,12.6c1.89,4.35,5.21,7.95,8.47,11.47-3.72-4.65-7.16-9.71-8.48-15.44s-.19-12.27,4.19-16.36a22.86,22.86,0,0,1,5-3.38c2.59-1.37,5.37-2.65,7.19-4.88a11.22,11.22,0,0,0,2.31-7.24A22.31,22.31,0,0,0,594,577c-.21-.55-.5-1.16-1.09-1.32s-1.26.62-.79,1"/></g><g class="cls-13"><path class="cls-12" d="M593.71,575.17c1,4.06,4.15,7.6,4.1,11.77,0,2.61-1.33,5-2.7,7.3-4.28,7.07-9.65,14.14-9.88,22.32-.15,5.21,1.84,10.27,4.42,14.85s5.76,8.84,8.28,13.45c-1.75-5-4.57-9.48-6.75-14.27s-3.72-10.09-2.71-15.23c1.17-6,5.61-10.86,8.57-16.26A25.68,25.68,0,0,0,600.4,588,16.51,16.51,0,0,0,597,577a5.6,5.6,0,0,0-3.35-2.27"/></g><g class="cls-13"><path class="cls-12" d="M605.77,576.35a21.88,21.88,0,0,1,2,17c-.85,2.84-2.27,5.49-3.37,8.24a39,39,0,0,0-1.61,23.91c1.41,5.6,4.05,10.83,6.14,16.22a87.28,87.28,0,0,1,4.26,14.73,27.81,27.81,0,0,0-1.15-9.7c-2.76-10.43-7.95-20.66-6.92-31.37.76-7.94,4.91-15.25,6.21-23.12a33,33,0,0,0-.29-12.25,6.23,6.23,0,0,0-1.33-3,2.65,2.65,0,0,0-3.14-.64"/></g><g class="cls-13"><path class="cls-12" d="M617.45,577.19a17.85,17.85,0,0,1,.65,10.34c-.67,3.44-1.91,6.76-2.81,10.15a54.28,54.28,0,0,0-.5,26c.9,4,2.24,7.83,2.52,11.86a45.41,45.41,0,0,1-.52,8.71l-1.44,11.69c1.5-2.46,1.84-5.39,2.1-8.23q.48-5.3.7-10.6a42.65,42.65,0,0,0-.21-7.91c-.36-2.49-1.11-4.91-1.55-7.38a57.65,57.65,0,0,1-.51-12.18,58.53,58.53,0,0,1,1-10.74c1.5-6.74,5.27-13.3,4.17-20.1a3.1,3.1,0,0,0-.84-1.91,1.38,1.38,0,0,0-1.93,0"/></g><g class="cls-13"><path class="cls-12" d="M632.94,573.49c1.53.38,1.63,2.41,1.39,3.91l-1.25,8a19.22,19.22,0,0,0-.29,6.54c.82,4.5,4.58,7.85,7.94,11.07s6.72,7.2,6.37,11.75a14.83,14.83,0,0,1-2.07,5.79c-2.16,4-4.73,7.74-6.39,11.92s-2.31,8.95-.53,13.08c-2.52-4.83-1.74-10.64-.17-15.83s3.88-10.25,4.3-15.65a8.43,8.43,0,0,0-.7-4.66,14.39,14.39,0,0,0-3.43-3.54,23.57,23.57,0,0,1-7.43-15.09,34.43,34.43,0,0,1,2.78-16.69"/></g><g class="cls-13"><path class="cls-12" d="M629.23,577.6c-3.26,7.45-6.58,15.34-5.49,23.36,1,7.76,6.17,14.71,6.51,22.53.18,4.15-1,8.23-2,12.28a111.88,111.88,0,0,0-2.21,12.69c-.31,2.74-.47,5.71,1.08,8-.39-12.65,5.83-25.07,4.06-37.61-1.19-8.41-5.93-16.41-5-24.84.62-5.85,3.93-11.37,3.49-17.23"/></g><path class="cls-11" d="M715.07,568.29a4.51,4.51,0,0,0-.46,3.17,4.37,4.37,0,0,1,.21,1.17c-.08,1.51-2.44,2.72-1.76,4.12.25.53.94,1,.85,1.53s-.94.88-1.13,1.44c-.38,1.13,2,1.71,2,2.89,0,.64-.72,1.2-.61,1.84.15.89,1.8,1.3,1.66,2.19-.11.64-1.14,1-1.11,1.64s.88.91.95,1.48-1,1.18-1,1.89c0,.47.56.78,1,1.08s.83.8.54,1.2c-.17.24-.54.33-.79.52-1,.72.1,2.35-.78,3.19a1.37,1.37,0,0,1-1.79-.07c-.74-.84.29-2.32-.65-3-.22-.16-.52-.24-.74-.4-.64-.48-.31-1.39.2-2s1.18-1.18,1.12-1.91-.91-1.27-1.28-2a1.78,1.78,0,0,1,.44-2.21c.23-.2.53-.39.58-.66.13-.72-1.31-.83-1.68-1.48s.27-1.14.28-1.73-.6-1.25-.36-1.86c.17-.43.74-.72.77-1.17.06-.92-1.89-.94-2.21-1.82s1.38-1.63,1.18-2.57c-.16-.76-1.39-1-1.85-1.61-.59-.84.3-2-.22-2.87-.2-.34-.59-.58-.76-.93a1.15,1.15,0,0,1,.46-1.38,3.22,3.22,0,0,1,1.63-.57,7.15,7.15,0,0,1,4.49.95"/><path class="cls-11" d="M704.43,569.49c.94.9,2,2.28,1.3,3.42-.34.58-1,.88-1.28,1.5-.33.81.24,1.69.74,2.39s1,1.69.49,2.41c-.27.39-.76.57-1,1-.46.73.07,1.67.55,2.38s.9,1.74.32,2.36c-.18.19-.42.29-.6.47-.63.62-.28,1.73.2,2.48s1.08,1.59.85,2.46-1,1.26-1.12,2c-.16,1.1,1.1,2.22.55,3.17-.13.22-.34.38-.47.6-.69,1.17,1.31,2.34,1.2,3.7-.07.87-1,1.51-.94,2.37s1.34,1.81.85,2.63a4.18,4.18,0,0,1-.51.52c-.58.67-.17,1.73-.21,2.65a2.41,2.41,0,0,1-1.8,2.2c-.51-1.16.17-2.77-.66-3.69-.39-.43-1.06-.65-1.16-1.24-.13-.83,1-1.25,1.24-2.07.25-1-.94-1.72-1.06-2.72-.14-1.25,1.43-2.13,1.4-3.39,0-.93-.91-1.61-1-2.53s.61-2,.29-3-1.36-1.37-1.24-2.25c.08-.53.6-.88.76-1.4.35-1.08-1-2-1-3.18,0-.89.78-1.66.64-2.53-.17-1.12-1.76-1.71-1.61-2.83.1-.75,1-1.21,1-2s-.92-1.39-.9-2.2,1.22-1.42,1.16-2.31c0-.47-.42-.81-.65-1.22a2.12,2.12,0,0,1,.65-2.7,1.91,1.91,0,0,1,2.58.68"/><path class="cls-11" d="M697.13,569.4a1.91,1.91,0,0,1,.56,2.43c-.25.44-.69.83-.66,1.32.06,1.08,2.24,1.33,2.2,2.41,0,.66-.88,1-1.13,1.64-.51,1.22,1.58,2.26,1.43,3.55-.09.7-.82,1.27-.78,2s1.14,1.47.89,2.25c-.16.51-.82.79-1,1.29-.35,1,1.3,1.69,1.31,2.72-.34.59-1.46.54-1.79,1.14-.43.81,1,1.67.67,2.5-.22.53-1.05.67-1.31,1.18-.5.94,1.3,2.1.56,2.91-.32.34-1,.42-1.06.86,0,.29.24.53.45.75a1.89,1.89,0,0,1-.05,2.76c-.84.68-2.47.38-2.77-.61s.46-2-.21-2.65c-.3-.31-.83-.43-1.06-.8s.14-1.07.63-1.42,1.08-.65,1.25-1.19c.3-.93-.86-1.69-1.2-2.61s.34-2.13,1.21-2.89a2.21,2.21,0,0,0,.7-.8c.36-1-1.22-1.81-1.25-2.86s1.47-1.8,1.29-2.83c-.1-.62-.76-1-1.17-1.51a2.17,2.17,0,0,1-.19-2.5c.23-.37.58-.73.55-1.15-.05-.58-.77-.91-1.06-1.42-.49-.84.27-1.8,1-2.47a1.24,1.24,0,0,0,.43-.57c.1-.48-.45-.85-.81-1.22a1.64,1.64,0,0,1-.06-2.29,1.67,1.67,0,0,1,2.4.16"/><path class="cls-12" d="M718.12,568.63a4.51,4.51,0,0,0,4.62.33,2.63,2.63,0,0,0,1.2-1.13c.53-1.1-.12-2.37-.75-3.41a42.29,42.29,0,0,1-2.82-5.21c-.57-1.34-1-2.73-1.7-4-2.5-4.85-7.9-7.85-13.43-8.87a11.49,11.49,0,0,0-4.17-.16,13.43,13.43,0,0,0-4.32,1.84,14.31,14.31,0,0,0-3.87,3,16,16,0,0,0-2.43,5.16,23.33,23.33,0,0,1-3.18,6.54,5.93,5.93,0,0,0-1.63,3c-.07,1.63,1.61,2.94,3.3,3.08a4.85,4.85,0,0,1,1.62.22,4.46,4.46,0,0,1,.94.67,5.37,5.37,0,0,0,5.09.75,1.44,1.44,0,0,1,.6-.15,1.46,1.46,0,0,1,.81.43,4.85,4.85,0,0,0,5.4.28,1.4,1.4,0,0,1,.69-.29,1.15,1.15,0,0,1,.54.15,7.65,7.65,0,0,0,3.4.83A3.38,3.38,0,0,0,711,570a8.91,8.91,0,0,0,4.27,1.11c1.49-.12,3-1.19,3-2.63"/><g class="cls-13"><path class="cls-12" d="M721.49,567.49a29.1,29.1,0,0,1-1.27,4.6,5.35,5.35,0,0,0,.49,4.6,5.82,5.82,0,0,0,1.46,1.24c2,1.32,4.28,2.27,6.34,3.55a11.07,11.07,0,0,1,4.82,5.24,12.58,12.58,0,0,1,.59,4.19,23.56,23.56,0,0,1-1.54,9.49c-1.37,3.28-3.8,6-6.18,8.65,2.72-3.51,5.23-7.32,6.19-11.64s.14-9.24-3-12.33a16.92,16.92,0,0,0-3.7-2.55c-1.89-1-3.91-2-5.24-3.67a8.62,8.62,0,0,1-1.69-5.45,17.05,17.05,0,0,1,1.23-5.66c.15-.42.36-.88.79-1s.93.47.58.75"/></g><g class="cls-13"><path class="cls-12" d="M719.54,565.8c-.73,3-3,5.54-3,8.58a11,11,0,0,0,2,5.33c3.13,5.17,7,10.33,7.22,16.3.11,3.8-1.35,7.5-3.23,10.84s-4.21,6.45-6,9.82c1.28-3.62,3.34-6.92,4.93-10.42s2.72-7.37,2-11.12c-.86-4.38-4.09-7.92-6.25-11.87a18.76,18.76,0,0,1-2.46-8.14,12.1,12.1,0,0,1,2.48-8,4.1,4.1,0,0,1,2.44-1.66"/></g><g class="cls-13"><path class="cls-12" d="M713.17,569a15.93,15.93,0,0,0-1.48,12.44c.62,2.07,1.65,4,2.46,6a28.49,28.49,0,0,1,1.18,17.45c-1,4.08-3,7.9-4.49,11.84a64.11,64.11,0,0,0-3.11,10.75,20.51,20.51,0,0,1,.84-7.08c2-7.61,5.81-15.08,5.06-22.9-.56-5.8-3.59-11.13-4.54-16.88a24,24,0,0,1,.21-8.94,4.55,4.55,0,0,1,1-2.23,1.93,1.93,0,0,1,2.29-.46"/></g><g class="cls-13"><path class="cls-12" d="M704.64,566.69a12.91,12.91,0,0,0-.47,7.54c.48,2.52,1.39,4.94,2.05,7.41a39.78,39.78,0,0,1,.36,19c-.66,2.88-1.64,5.72-1.84,8.66a33.09,33.09,0,0,0,.38,6.36l1,8.53a13.75,13.75,0,0,1-1.53-6c-.23-2.58-.41-5.16-.51-7.75a30.9,30.9,0,0,1,.15-5.77c.26-1.81.81-3.58,1.13-5.38a60.23,60.23,0,0,0-.4-16.74c-1.09-4.92-3.84-9.7-3-14.67a2.39,2.39,0,0,1,.61-1.39,1,1,0,0,1,1.42,0"/></g><g class="cls-13"><path class="cls-12" d="M691.5,561.06c-1.11.32-1.18,2-1,3.31l.92,6.75a19,19,0,0,1,.21,5.52c-.6,3.8-3.35,6.63-5.8,9.35s-4.9,6.08-4.65,9.91a14,14,0,0,0,1.51,4.9c1.57,3.35,3.46,6.53,4.66,10.06s1.69,7.56.39,11c1.84-4.08,1.27-9,.13-13.37s-2.83-8.66-3.14-13.21a8,8,0,0,1,.51-3.94,11.61,11.61,0,0,1,2.5-3,21.18,21.18,0,0,0,5.43-12.74,33.1,33.1,0,0,0-2-14.09"/></g><g class="cls-13"><path class="cls-12" d="M697.21,567.66c2.11,5.8,4.24,11.93,2.35,17.57-1.82,5.47-7.23,9.83-8.42,15.43-.62,3,0,6.07.41,9.12a65.24,65.24,0,0,1,.57,9.45c0,2-.21,4.18-1.88,5.65,1.78-9.08-2.46-18.85.55-27.68,2-5.91,7.21-11.07,7.35-17.28.09-4.3-2.29-8.71-1.23-12.88"/></g><path class="cls-23" d="M1315.67,588a6.38,6.38,0,0,0-.31,1.36c-.1.76-.5,2.08-2.11.47-2.14-2.13-11-11.6-21.07-9.16s-1.84,10.08-6.11,11.3l-2.75,1.22s11.91,10.69,23.21,5.2a21.4,21.4,0,0,0,6.57-6s.61-1.53,2.44-.31,2.45,3.67,4.58,3.36a4.49,4.49,0,0,1-2.44-5.19c.92-3.66,5.19-5.19,5.19-5.19S1317.64,582.61,1315.67,588Z"/><path class="cls-6" d="M1295.08,598.22s3.66,0,6.72,4C1301.8,602.19,1294.16,602.5,1295.08,598.22Z"/><path class="cls-6" d="M1303.32,584.78s-9.46,4.89-6.72,8.25a4.42,4.42,0,0,0,6.11.92s-4.27.61-3.66-2.75S1303.32,584.78,1303.32,584.78Z"/><path class="cls-24" d="M1312.67,589.24c-2.86-2.88-11.15-10.84-20.49-8.58-.4.1-.77.2-1.11.31h0s5.23-4.74,19-1.07c0,0,5.5.91,4.28,4.58C1313.64,586.51,1313.06,588.17,1312.67,589.24Z"/><path class="cls-6" d="M1306.53,598.38a21.4,21.4,0,0,0,6.57-6l.06-.13c.92,1.29,2.92,4.87-1.28,6.85a12.49,12.49,0,0,1-8.73.42A15.47,15.47,0,0,0,1306.53,598.38Z"/><path class="cls-6" d="M1293.65,599a9.1,9.1,0,0,1-1.93,3.52,3.48,3.48,0,0,1,.06-4.19C1292.39,598.55,1293,598.78,1293.65,599Z"/><path class="cls-24" d="M1284.35,592.73c12.13,4,9.51-7.64,9.51-7.64,4.74,5.17.66,10.5-2.16,13.19a31.8,31.8,0,0,1-8.38-5.1Z"/><path class="cls-6" d="M1315.36,589.35a6.38,6.38,0,0,1,.31-1.36c2-5.38,7.2-2.9,7.2-2.9s-4.27,1.53-5.19,5.19a4.49,4.49,0,0,0,2.44,5.19c-2.13.31-2.75-2.13-4.58-3.36a2.56,2.56,0,0,0-1.07-.45,2.65,2.65,0,0,0,.08-1.08C1315.1,590.55,1315.29,589.84,1315.36,589.35Z"/><path class="cls-23" d="M1319.83,584.53a6.83,6.83,0,0,1,3,.56s-4.27,1.53-5.19,5.19a4.49,4.49,0,0,0,2.44,5.19c-1.73.25-2.46-1.31-3.65-2.56C1315.24,588.78,1317.87,585.92,1319.83,584.53Z"/><circle class="cls-25" cx="1290.04" cy="589.21" r="0.92"/><circle class="cls-23" cx="1289.58" cy="589.21" r="0.46"/><path class="cls-23" d="M1256.67,602a6.38,6.38,0,0,0-.31,1.36c-.1.76-.5,2.08-2.11.47-2.14-2.13-11-11.6-21.07-9.16s-1.84,10.08-6.11,11.3l-2.75,1.22s11.91,10.69,23.21,5.2a21.4,21.4,0,0,0,6.57-6s.61-1.53,2.44-.31,2.45,3.67,4.58,3.36a4.49,4.49,0,0,1-2.44-5.19c.92-3.66,5.19-5.19,5.19-5.19S1258.64,596.61,1256.67,602Z"/><path class="cls-6" d="M1236.08,612.22s3.66,0,6.72,4C1242.8,616.19,1235.16,616.5,1236.08,612.22Z"/><path class="cls-6" d="M1244.32,598.78s-9.46,4.89-6.72,8.25a4.42,4.42,0,0,0,6.11.92s-4.27.61-3.66-2.75S1244.32,598.78,1244.32,598.78Z"/><path class="cls-24" d="M1253.67,603.24c-2.86-2.88-11.15-10.84-20.49-8.58-.4.1-.77.2-1.11.31h0s5.23-4.74,19-1.07c0,0,5.5.91,4.28,4.58C1254.64,600.51,1254.06,602.17,1253.67,603.24Z"/><path class="cls-6" d="M1247.53,612.38a21.4,21.4,0,0,0,6.57-6l.06-.13c.92,1.29,2.92,4.87-1.28,6.85a12.49,12.49,0,0,1-8.73.42A15.47,15.47,0,0,0,1247.53,612.38Z"/><path class="cls-6" d="M1234.65,613a9.1,9.1,0,0,1-1.93,3.52,3.48,3.48,0,0,1,.06-4.19C1233.39,612.55,1234,612.78,1234.65,613Z"/><path class="cls-24" d="M1225.35,606.73c12.13,4,9.51-7.64,9.51-7.64,4.74,5.17.66,10.5-2.16,13.19a31.8,31.8,0,0,1-8.38-5.1Z"/><path class="cls-6" d="M1256.36,603.35a6.38,6.38,0,0,1,.31-1.36c2-5.38,7.2-2.9,7.2-2.9s-4.27,1.53-5.19,5.19a4.49,4.49,0,0,0,2.44,5.19c-2.13.31-2.75-2.13-4.58-3.36a2.56,2.56,0,0,0-1.07-.45,2.65,2.65,0,0,0,.08-1.08C1256.1,604.55,1256.29,603.84,1256.36,603.35Z"/><path class="cls-23" d="M1260.83,598.53a6.83,6.83,0,0,1,3,.56s-4.27,1.53-5.19,5.19a4.49,4.49,0,0,0,2.44,5.19c-1.73.25-2.46-1.31-3.65-2.56C1256.24,602.78,1258.87,599.92,1260.83,598.53Z"/><circle class="cls-25" cx="1231.04" cy="603.21" r="0.92"/><circle class="cls-23" cx="1230.58" cy="603.21" r="0.46"/><g class="cls-26"><path class="cls-6" d="M-81,553.25-81.78,571c52.86-7.69,344.35,2.41,344.35,2.41,44.8-.12,99.06,29.82,242.45,35.76s241.14-3.85,241.14-3.85C838,625,957.12,620,1017.25,622.51s235.15-8.06,235.15-8.06c33.3,15.23,130.25,23.2,162.9,18.62s66.12,6.7,95.23,11.86,136-2.27,136-2.27c11.76,6.93,32.86,10.89,71.3,13.3l-128.51,5.09s-164.51-17.21-204.53-20.35-270.08-5.26-270.08-5.26-46.18,13.67-5,25.77c34.2,10,98.6,12.14,119.42,12.55,37.37,16.57,99.59,29.19,151.88,34.33,45.74,4.49,115.21.31,131.89-.81a172.44,172.44,0,0,0,43.94,6.61l329.27,11.42s-316.81-13.87-338.32-16.25-122.28-28.82-122.28-28.82l133.33,6.27c49.27,3.53,306.75,14.2,306.75,14.2-50.88-2.11-253.33-34.25-253.33-34.25l175-7.91,8.34.18c91,1.79,161.26,20.53,161.26,20.53l-7.17-12.17c-38.51-7.2-81.08-10.1-121.68-11.79l-19-2.95-30.79,1.22c-53.15-1.72-97.43-3.62-116.14-14.22-37.66-21.34-103.6-32-103.6-32,113.08-7.18,395.89,24.32,395.89,24.32l3.43-7.77-152.1-18.17L1745,583.44l226.25-16.33-244.57,11.62s-309-32.59-403.33-30.57-215.55,18.76-215.55,18.76-92.81-31.54-146.86-31.8-194,19.65-194,19.65L649.4,524.18,806,580.12s-101.76-4.21-152.91-.4-78.54-5.23-78.54-5.23c-112-50.14-311.78-74.24-311.78-74.24,67,20.58,308.34,82,308.34,82L270.63,565.84l-196-4.16c94.75-11.9,143-55.39,143-55.39a167.25,167.25,0,0,1-17.22,8.39c-100.34-30.79-282.95,2.9-282.95,2.9l-.28,6.35-.25,5.5,73.12,22.81Zm1181.87,98.69s-5.57-13.59,39.08-10.26,226.78,6.43,226.78,6.43-65.89,22.51-82.85,21.81S1121.6,672.1,1100.88,651.94Zm397.8,50.63c.56.22,1.12.42,1.69.63-17.56,1-72,3.88-97.62,2.82-30.83-1.28-87.54-11-87.54-11-37-8.16-57.33-16-67.18-20.6l162,6.71S1468.31,690.92,1498.68,702.57Zm124.67-24.52s-267.06-3.65-316.33-7.18c0,0,64.21-19.6,95-18.32S1577.63,664.28,1623.35,678.05ZM1636,636.29s-84.14,16.29-132.86.42-95.06-15.8-120-10.9-121.35-14.92-121.35-14.92l122.51-10.75,160.34,6.65C1558.56,607.36,1600.58,634.82,1636,636.29Zm142-31.7s-311.7-7-330.2-7.75c0,0,70.79-28.71,98.55-27.56S1740.54,579.3,1778,604.59Zm-274.82-37.1s-71,32.66-103.18,27.37S1274.74,564,1274.74,564,1408.14,551.68,1503.2,567.49Zm-243.87-4.18,100.6,29.89s-217.53,28.56-315.85,16.57C1044.08,609.77,1102.81,574.63,1259.33,563.31Zm-181.28,12.27-43,27.89s-164.88-8.82-214.52-38.57C820.57,564.9,965.25,507.61,1078.05,575.58ZM951.48,607.91S825.71,622.48,711.32,590C711.32,590,875.37,583,951.48,607.91ZM648,589.4c33.91,1.4,73.56,12.94,73.56,12.94-59.3,13.36-205.33-2.58-267.09-3.16s-134.88-23.39-134.88-23.39ZM-74,521.76c87.83-20.18,245.57-8.74,273.19-6.52C133,542.77,23.5,549.67,1.08,548.74-17.83,548-56.84,530.07-74,521.76Z"/><path class="cls-6" d="M1256.57,796.87c53.87,4.22,149.16-19.53,149.16-19.53S1525,804.05,1618.8,813.87s404.57,2.92,404.57,2.92L2266,848.61l-224-35,62.56-17.19,153.17-5.52-2.73-8s-284.58,8-396.6-8.53c0,0,66.65-5.15,106.08-23.29s178.85,7.41,289-3.84l8.24-11.53s-71.63,12.85-162.51,7.11-131-5.43-150,3.67c0,0-105.85-16.25-135.32-13.52s-63.83,11.2-95.94,3.93-129.43-7.34-164,5.08c0,0-173.42-25-233.55-27.49-32.77-1.36-82.81-6.36-136.64-8.7C1137.35,656.17,948,626.32,894.24,627c-54.09.73-174.55.19-197.91,3.62L375,615.17a172.49,172.49,0,0,0-44.37,3c-16.52-2.5-85.36-12.41-131.33-11.72-52.55.79-115.67,8.22-154.39,21.63-20.78-1.31-85.13-4.56-120.1,2.62-42.1,8.65,2.69,26.09,2.69,26.09s229.39,16.94,269.55,17.12,205.59-3.36,205.59-3.36l215,26.47c-6.52,1-12.63,1.83-18.4,2.54a76,76,0,0,0-55.14,34.34c-3.85,6.07-6.84,10.52-7.32,10.5a.61.61,0,0,0,0,.13,291.3,291.3,0,0,0-39.17-4.34c-66.3-2.75-148.72,9.66-173.66,14.56s-101.3,2.72-101.3,2.72c-86.5-68.85-305.17-83.85-305.17-83.85L-83,690.4c16.64.83,57.81,3.19,75.89,7.06,0,0-51.17,12-76.63,17.42l-.33,11c18,12.61,260.69,42.45,260.69,42.45l176.86,17.22c95,3.94,191.44-7.31,234.9-13.37,60.68-3.84,198.37-15.57,286.79-46.54,0,0,28.11-6.75,78.72,1.29s152.37,12.25,152.37,12.25L869.87,819.68c-5.08-.11-9.91-.25-14.37-.44-60.13-2.49-235.15,8-235.15,8-33.3-15.22-130.26-23.2-162.9-18.62s-66.12-6.69-95.24-11.86-136,2.28-136,2.28C208.12,788.45,168.12,784.81,77.07,783S-84.2,762.49-84.2,762.49L-77,774.65c108.76,20.33,250,6.41,287.61,27.75s103.6,32,103.6,32C201.1,841.56-81.7,810.06-81.7,810.06l-3.44,7.77L67,836l60.78,22.3L-98.5,874.64,146.08,863s309,32.59,403.33,30.56S765,874.83,765,874.83s92.81,31.53,146.86,31.8,194-19.65,194-19.65l117.57,30.58-156.59-55.94s101.76,4.22,152.9.41,78.55,5.23,78.55,5.23C1410.26,917.4,1610,941.5,1610,941.5c-67-20.58-308.34-82-308.34-82l300.48,16.41,196,4.17c-94.76,11.9-143,55.39-143,55.39a169.53,169.53,0,0,1,17.23-8.4c100.34,30.79,282.94-2.9,282.94-2.9l.29-6.35.24-5.49-73.12-22.81,71.1-1,.8-17.77c-52.86,7.7-344.35-2.41-344.35-2.41-44.8.13-99.07-29.82-242.45-35.76s-241.14,3.85-241.14,3.85C1043.51,818.65,938,821,874.16,819.78l197.51-50.29S1202.69,792.66,1256.57,796.87ZM57,747.59C-44.37,735.48-79.3,722.16-79.3,722.16L8.28,698.1s153.65,18.24,209,58.11C217.29,756.21,158.44,759.71,57,747.59ZM1571.8,794.12s95-17.82,127.58-20.43,100.34,35.81,100.34,35.81C1703.6,817.38,1571.8,794.12,1571.8,794.12Zm505.06,1.15c-39.61,22.1-206.21,17.17-234,16s-95.71-35.62-95.71-35.62C1765.68,776.44,2076.86,795.27,2076.86,795.27Zm-391.48-53.8c24.4,6.94,70.57,10.83,120.53-.94S1938.24,752,1938.24,752c-35.47-1.47-79.79,22.4-93.66,21.83l-160.35-6.65-121.09-20.84S1661,734.52,1685.38,741.47ZM1659.3,772l-102.91,21.45c-154.93-24.23-210.29-64.1-210.29-64.1C1445.13,725.57,1659.3,772,1659.3,772Zm-322.72-37.11,40.3,31.34c-118.47,58.38-257.48-10.67-257.48-10.67C1171.52,730.05,1336.58,734.92,1336.58,734.92Zm-153.25-29.18c-44.8-1.93-92.19-2-134.44,3.41,0,0-77.68-14.36-197.19-21.61,16.54-9.42,83-44.14,161-42.3C1106.59,658.33,1173.18,699.22,1183.33,705.74ZM776.54,634c108.45-7.38,105.1-1.58,217.39,9l2.68.27c-34.61-1-95.08,4.24-145.88,44.16q-20.12-1.22-41.74-2.12c-55.38-2.3-97.82.08-131.65,3.63,2-9,8-34.48,12.26-45.19C694.82,630.65,776.54,634,776.54,634Zm-411-14.81c19.59-.53,281,9.57,330.46,11.49-9.12,1.56-14.06,11.54-16.7,23-24.6-1-258-10.61-304.77-11.15l-133.4-4.78S343.9,619.82,365.55,619.23Zm-233-5.2s57.38-5,88.21-3.77c25.66,1.06,79.6,8.44,97,10.88l-1.74.49c-31.3,9.1-90.22,14.08-90.22,14.08L63.76,629C74,625.21,94.91,619.09,132.54,614ZM-46.83,652.61c-44.78-.37-38-13.45-38-13.45,22.45-18.37,167-3.47,183.94-2.77S179.68,665,179.68,665-2,653-46.83,652.61Zm262.11,10.87c-30.84-1.28-93.06-26.13-93.06-26.13,49.41.56,315.8,19,315.8,19C391.24,666.32,246.11,664.75,215.28,663.48ZM426,667s199.2-14.87,253.35-13.23c-3.07,13.38-3,28.79-2.83,35.3-14.76,1.57-27.87,3.35-39.69,5.07Zm117,78.65-2.45-.48C541.86,745.05,543,745,543,745.66Zm-4.31,8.05s-58.85,3.5-81.8-1.41C456.89,752.3,505.13,744.41,538.69,753.71ZM320.5,762.47s168.77-8.83,222,9.2C542.52,771.67,397.81,795.34,320.5,762.47Zm283.4,2.23a297.29,297.29,0,0,0-60.7-19l4.82-6.21c14.77-19,38.26-29.93,63-29.23l261.44,7.4S700.34,746.51,603.9,764.7Zm345.78-47.8-328.4-13.61s74.89-16.67,136.47-12.14,208.5.73,266.38,19C1024.13,710.1,983.6,718.31,949.68,716.9Zm63.13,4.6c116.87-22.85,240.87,2.07,240.87,2.07C1175.62,742.09,1012.81,721.5,1012.81,721.5Zm934,198.49c-87.82,20.18-245.57,8.74-273.19,6.52,66.19-27.54,175.67-34.43,198.08-33.5C1890.57,893.79,1929.58,911.68,1946.77,920ZM236.71,805.46s84.14-16.29,132.86-.43,95.06,15.81,120,10.91,121.36,14.92,121.36,14.92L488.41,841.61,328.06,835C314.19,834.38,272.17,806.93,236.71,805.46Zm-142,31.69s311.71,7,330.21,7.76c0,0-70.8,28.71-98.55,27.56S132.2,862.44,94.72,837.15Zm274.83,37.11s71-32.66,103.18-27.37S598,877.79,598,877.79,464.61,890.07,369.55,874.26Zm243.87,4.17L512.81,848.55S730.35,820,828.67,832C828.67,832,769.94,867.12,613.42,878.43Zm804.83-35.86c61.76.58,134.88,23.39,134.88,23.39l-328.4-13.61c-33.92-1.41-73.56-12.94-73.56-12.94C1210.46,826,1356.49,842,1418.25,842.57Zm-256.82,9.13s-164.05,7-240.17-17.87C921.26,833.83,1047,819.27,1161.43,851.7Zm-109.26,25.14s-144.68,57.3-257.48-10.67l43-27.89S1002.54,847.09,1052.17,876.84Z"/></g><path class="cls-15" d="M948.26,434.32l-6.45-2.25a1.67,1.67,0,0,0-2.22,1.55l-.1,6.71-51,140.32a13,13,0,0,0-14.14,8.45l-20,55.11,24.52,8.91,20-55.1A13,13,0,0,0,894.2,583l51.11-141,3.74-5.05A1.66,1.66,0,0,0,948.26,434.32Z"/><path class="cls-7" d="M854.48,630.16s2.31,14.52,31.73,15.34L882,654.15l-14.76.14s-15.7-3.8-16.83-4.65.67-9.73.67-9.73Z"/><path class="cls-3" d="M854.81,637.9s10.47,9.6,24.61,9.59C879.42,647.49,864.58,649.63,854.81,637.9Z"/><path class="cls-3" d="M853.26,641.15s10.47,9.61,24.61,9.59C877.87,650.74,863,652.88,853.26,641.15Z"/><path class="cls-9" d="M1035.73,620.28s-2.27,25.81-19.25,41.68S950,694,946.21,729.55,962.47,781,962.47,781s101.85,19.84,89.5-29.76-5.15-67.37-11.06-95.19S1035.73,620.28,1035.73,620.28Z"/><path class="cls-22" d="M733.12,179.63A15.14,15.14,0,0,0,718,194.77a15.54,15.54,0,0,0,.14,1.94A10.09,10.09,0,1,0,724,206.8a15.14,15.14,0,1,0,9.17-27.17Z"/><path class="cls-6" d="M241.91,560.28s5.07,6.23,3.9,14.41c0,0-2.73-8.57-6.23-11.69Z"/><path class="cls-6" d="M238,565.34s4.28,4.29,3.11,9.74c0,0-3.89-7.4-5.06-7.79Z"/><path class="cls-6" d="M232,567.9s5,3.39,4.91,9c0,0-5.23-6.52-6.45-6.68Z"/><path class="cls-6" d="M228.92,572.57s5,3.39,4.92,9c0,0-5.24-6.52-6.46-6.68Z"/><path class="cls-6" d="M225.8,576.47s5,3.39,4.92,9c0,0-5.24-6.52-6.46-6.68Z"/><path class="cls-6" d="M255.16,589.88s2.73-11.68-1.56-17.14c0,0,2,10.91-.78,16.75Z"/><path class="cls-6" d="M248.93,575.08s4.67,6.23,3.11,14h-3.11A24.74,24.74,0,0,0,248.93,575.08Z"/><path class="cls-6" d="M244.64,580.14s4.68,4.68,3.12,9.74h-3.12S246.2,583.65,244.64,580.14Z"/><path class="cls-6" d="M240,582.09s2.72,2.73,1.94,8.57h-2.33A15.32,15.32,0,0,0,240,582.09Z"/><path class="cls-6" d="M234.9,585.6s2.34.39,2.34,6.62h-2S236.07,587.55,234.9,585.6Z"/><path class="cls-6" d="M231,587.94s2.33.39,2.33,6.62h-2S232.17,589.88,231,587.94Z"/><path class="cls-10" d="M173.93,559.3s8.18,5.07,22.21-1.56,28.83-14,41.29,0c0,0,9.35-1.55,5.46,3.51s-15.59,22.21-16.75,31.56c0,0,23.76-8.58,30-3.51,5.8,4.71-20.61,8.24-31.53,12.48a10,10,0,0,1-6,.44c-1.63-.4-3.12-1.12-2.93-2.4,0,0-17.53.39-36.62-22.6,0,0-7.79-8.57-11.3-9A17.49,17.49,0,0,1,173.93,559.3Z"/><path class="cls-27" d="M217,565.34l-1.56-13.24s0,2.33-4.28,1.55a4.17,4.17,0,0,1-4.68,3.12,5.37,5.37,0,0,1-2.72,2.73s0,3.5-1.56,3.5l7.79,5.85S212.7,565,217,565.34Z"/><path class="cls-10" d="M232.17,536.12s7,14.42,7,23.38l2.74-1.37s-5.86-13.44-6.64-24.34Z"/><circle class="cls-28" cx="232.95" cy="533.01" r="3.51"/><ellipse class="cls-6" cx="231.2" cy="562.81" rx="2.53" ry="3.31"/><circle class="cls-10" cx="232.56" cy="563" r="1.17"/><g class="cls-29"><path class="cls-30" d="M215.42,599.62A24.77,24.77,0,0,1,211.53,584c-4.68,10.13-14,5.84-26.1-5.45-8.41-7.86-14.35-10.82-17.2-11.89a11.14,11.14,0,0,0-.53,1.56c3.51.39,11.3,9,11.3,9,18.35,22.1,35.26,22.59,36.54,22.6Z"/><path class="cls-30" d="M216.11,601.11a5.13,5.13,0,0,0-.5-1.17A1.47,1.47,0,0,0,216.11,601.11Z"/></g><path class="cls-10" d="M196.14,557.74c3.24-1.53,6.52-3.09,9.8-4.43-1.25-2.51-4.63-8.4-9.22-9,0,0-1.56,2.34-5.45,2.34a3.71,3.71,0,0,1-3.9,3.12s-1.55,3.89-3.89,3.89c0,0,1.17,3.12-2.73,3.9L179.53,561C183.33,561.46,189,561.13,196.14,557.74Z"/><path class="cls-10" d="M173.17,559.93l.57-.82-3.12-12.86c-1.17,1.56-3.89,0-3.89,0,0,3.12-5.07,1.56-5.07,1.56,1.17,3.12-3.89,4.29-3.89,4.29.78,3.11-3.51,5.06-3.51,5.06,1.56,5.45-1.95,6.62-1.95,6.62,1.56,1.56,0,6.24,0,6.24,5.85-2.73,15.2-1.95,15.2-1.95l.45-.66A18,18,0,0,1,173.17,559.93Z"/><path class="cls-27" d="M196.14,557.74c3.24-1.53,6.52-3.09,9.8-4.43-1.25-2.51-4.63-8.4-9.22-9,0,0-1.56,2.34-5.45,2.34a3.71,3.71,0,0,1-3.9,3.12s-1.55,3.89-3.89,3.89c0,0,1.17,3.12-2.73,3.9L179.53,561C183.33,561.46,189,561.13,196.14,557.74Z"/><path class="cls-27" d="M173.17,559.93l.57-.82-3.12-12.86c-1.17,1.56-3.89,0-3.89,0,0,3.12-5.07,1.56-5.07,1.56,1.17,3.12-3.89,4.29-3.89,4.29.78,3.11-3.51,5.06-3.51,5.06,1.56,5.45-1.95,6.62-1.95,6.62,1.56,1.56,0,6.24,0,6.24,5.85-2.73,15.2-1.95,15.2-1.95l.45-.66A18,18,0,0,1,173.17,559.93Z"/></g></svg>