<svg id="Calque_1" data-name="Calque 1" xmlns="http://www.w3.org/2000/svg" xmlns:xlink="http://www.w3.org/1999/xlink" viewBox="0 0 1920 663"><defs><style>.cls-1,.cls-35,.cls-36{fill:none;}.cls-2{clip-path:url(#clip-path);}.cls-3{fill:#add5ff;}.cls-4{fill:#7bc2ff;}.cls-5{fill:#f5db90;}.cls-6{fill:#1b1464;}.cls-7{fill:#e6e6e6;}.cls-25,.cls-8{fill:#fff;}.cls-20,.cls-9{fill:#e1817b;}.cls-10{fill:url(#Dégradé_sans_nom_10);}.cls-11{opacity:0.2;}.cls-12{fill:#f2f2f2;}.cls-13{fill:#fbb03b;}.cls-14{fill:#f5eab9;}.cls-15{fill:#755544;}.cls-16{fill:#554034;}.cls-17{fill:#6c9664;}.cls-18{fill:#91b864;}.cls-19{fill:#cb5d65;}.cls-20{opacity:0.33;}.cls-21{fill:#16213b;}.cls-22{opacity:0.5;}.cls-23,.cls-25{opacity:0.06;}.cls-24{fill:#59677a;}.cls-26{fill:#d4ecf5;}.cls-27{fill:#eaf9fe;}.cls-28,.cls-29,.cls-30,.cls-31{fill:#c6a490;}.cls-29{opacity:0.4;}.cls-30{opacity:0.6;}.cls-31{opacity:0.8;}.cls-32{fill:#b48d71;}.cls-33{fill:#9a715a;}.cls-34{fill:#bfa389;}.cls-35{stroke:#9a715a;}.cls-35,.cls-36{stroke-linecap:round;stroke-linejoin:round;}.cls-36{stroke:#999;}</style><clipPath id="clip-path"><rect class="cls-1" y="0.5" width="1920" height="663"/></clipPath><radialGradient id="Dégradé_sans_nom_10" cx="424.5" cy="170" r="179.5" gradientUnits="userSpaceOnUse"><stop offset="0" stop-color="#f5eab9"/><stop offset="1" stop-color="#add5ff"/></radialGradient></defs><title>Mail Tester_design NEW</title><g class="cls-2"><rect class="cls-3" y="-7.5" width="1920" height="503.5"/><path class="cls-4" d="M1920,385.6c-6.53-1.52-13.89-1.57-20.91-1.55q-95.77.26-191.55.56Q853.71,387.43,0,398.67V662.5H1920Z"/><path class="cls-5" d="M724.15,615.19h7.6a9.78,9.78,0,0,0,3.38-7.6c0-5.06,12.67-16.88,34.62-11.82,0,0-9.28,20.27-1.68,19.42s8.44-11,18.57-8.44c0,0-15.2,7.6-10.13,16,0,0-5.07-6.75-10.13-1.68s-6.76,12.66,3.37,16.88c0,0-22,5.07-37.15-16.88h-6.73a3.6,3.6,0,0,1-3.42-2.31C722.06,617.69,722.22,616.36,724.15,615.19Z"/><path class="cls-6" d="M744.17,597.9c-5.88,3-9,7.17-9,9.69a9.78,9.78,0,0,1-3.38,7.6h-7.6c-1.93,1.17-2.09,2.5-1.7,3.61a3.6,3.6,0,0,0,3.42,2.31h6.73A43.61,43.61,0,0,0,741,630.3l8.45-11.73Z"/><path class="cls-6" d="M758.78,609.28s-10.14,5.07-7.6,9.29a52.7,52.7,0,0,0,6.75,8.45,34.87,34.87,0,0,1-3.38-7.6C752.87,614.35,758.78,609.28,758.78,609.28Z"/><circle class="cls-7" cx="738.93" cy="615.62" r="1.69"/><path class="cls-7" d="M745.24,624.47l-10.11-5.05-12.72-.75a.65.65,0,0,1,0,.13,3.6,3.6,0,0,0,3.42,2.31h6.73A43.61,43.61,0,0,0,741,630.3Z"/><circle class="cls-6" cx="738.09" cy="615.62" r="0.84"/><path class="cls-5" d="M868,619.77h7.09a9.15,9.15,0,0,0,3.15-7.09c0-4.73,11.81-15.75,32.28-11,0,0-8.66,18.9-1.57,18.12s7.87-10.24,17.32-7.88c0,0-14.17,7.09-9.45,15,0,0-4.72-6.3-9.45-1.57s-6.3,11.81,3.15,15.75c0,0-20.47,4.72-34.65-15.75h-6.28a3.34,3.34,0,0,1-3.18-2.15C866.07,622.1,866.22,620.85,868,619.77Z"/><path class="cls-6" d="M886.7,603.64c-5.49,2.76-8.43,6.68-8.43,9a9.15,9.15,0,0,1-3.15,7.09H868c-1.81,1.08-2,2.33-1.59,3.36a3.34,3.34,0,0,0,3.18,2.15h6.28a40.83,40.83,0,0,0,7.88,8.58l7.87-10.94Z"/><path class="cls-6" d="M900.32,614.25s-9.45,4.73-7.09,8.67a49,49,0,0,0,6.3,7.87,32,32,0,0,1-3.15-7.09C894.8,619,900.32,614.25,900.32,614.25Z"/><circle class="cls-7" cx="881.81" cy="620.16" r="1.58"/><path class="cls-7" d="M887.69,628.42l-9.42-4.72L866.4,623s0,.08,0,.12a3.34,3.34,0,0,0,3.18,2.15h6.28a40.83,40.83,0,0,0,7.88,8.58Z"/><circle class="cls-6" cx="881.02" cy="620.16" r="0.79"/><path class="cls-5" d="M689.58,566.31h5.28a6.8,6.8,0,0,0,2.35-5.28c0-3.52,8.8-11.74,24.06-8.22,0,0-6.46,14.08-1.18,13.5s5.87-7.63,12.91-5.87c0,0-10.56,5.28-7,11.15,0,0-3.52-4.7-7-1.18s-4.7,8.81,2.35,11.74c0,0-15.26,3.52-25.82-11.74h-4.68a2.49,2.49,0,0,1-2.37-1.6C688.12,568,688.24,567.11,689.58,566.31Z"/><path class="cls-6" d="M703.49,554.29c-4.09,2.06-6.28,5-6.28,6.74a6.8,6.8,0,0,1-2.35,5.28h-5.28c-1.34.8-1.46,1.73-1.18,2.5a2.49,2.49,0,0,0,2.37,1.6h4.68a30.08,30.08,0,0,0,5.87,6.39l5.86-8.15Z"/><path class="cls-6" d="M713.64,562.2s-7,3.52-5.28,6.45a36.3,36.3,0,0,0,4.69,5.87,24.37,24.37,0,0,1-2.35-5.28C709.53,565.72,713.64,562.2,713.64,562.2Z"/><circle class="cls-7" cx="699.85" cy="566.6" r="1.17"/><path class="cls-7" d="M704.23,572.75l-7-3.51-8.84-.52,0,.09a2.49,2.49,0,0,0,2.37,1.6h4.68a30.08,30.08,0,0,0,5.87,6.39Z"/><circle class="cls-6" cx="699.26" cy="566.6" r="0.59"/><path class="cls-6" d="M124.52,591.23a13.17,13.17,0,0,1,.66,2.84c.21,1.58,1,4.33,4.39,1,4.46-4.46,22.94-24.22,44-19.12s3.82,21,12.74,23.58l5.73,2.55s-24.85,22.3-48.42,10.83c0,0-8.6-4.78-13.7-12.43,0,0-1.27-3.18-5.1-.63s-5.1,7.64-9.56,7c0,0,7-3.18,5.1-10.83s-10.83-10.83-10.83-10.83S120.42,580,124.52,591.23Z"/><path class="cls-8" d="M167.48,612.58s-7.64,0-14,8.28C153.47,620.86,169.39,621.5,167.48,612.58Z"/><path class="cls-8" d="M150.28,584.54s19.75,10.2,14,17.21-12.75,1.91-12.75,1.91,8.92,1.27,7.65-5.74S150.28,584.54,150.28,584.54Z"/><path class="cls-5" d="M130.78,593.84c6-6,23.27-22.62,42.76-17.9.82.2,1.59.42,2.3.65h0s-10.91-9.89-39.58-2.24c0,0-11.47,1.91-8.92,9.56C128.76,588.15,130,591.6,130.78,593.84Z"/><path class="cls-8" d="M143.59,612.9s-8.6-4.78-13.7-12.43a1.36,1.36,0,0,0-.14-.26c-1.91,2.69-6.08,10.16,2.69,14.28,6.82,3.21,13.9,2.12,18.2.88A32.41,32.41,0,0,1,143.59,612.9Z"/><path class="cls-8" d="M170.45,614.15a18.92,18.92,0,0,0,4,7.35c2.58-3.44,1.1-6.87-.13-8.74C173.1,613.26,171.8,613.73,170.45,614.15Z"/><path class="cls-5" d="M189.87,601.11c-25.31,8.4-19.84-15.93-19.84-15.93-9.89,10.8-1.37,21.91,4.49,27.51A66.23,66.23,0,0,0,192,602.07Z"/><path class="cls-8" d="M125.18,594.07a13.17,13.17,0,0,0-.66-2.84c-4.1-11.22-15-6.05-15-6.05s8.92,3.19,10.83,10.83-5.1,10.83-5.1,10.83c4.46.64,5.74-4.46,9.56-7a5.47,5.47,0,0,1,2.24-1,5.81,5.81,0,0,1-.18-2.26C125.71,596.57,125.31,595.09,125.18,594.07Z"/><path class="cls-6" d="M115.85,584a14.31,14.31,0,0,0-6.35,1.16s8.92,3.19,10.83,10.83-5.1,10.83-5.1,10.83c3.62.52,5.14-2.73,7.62-5.34C125.43,592.87,119.93,586.92,115.85,584Z"/><circle class="cls-7" cx="178" cy="593.78" r="1.91"/><circle class="cls-6" cx="178.95" cy="593.78" r="0.96"/><path class="cls-6" d="M207.42,538.15a10.32,10.32,0,0,1,.53,2.26c.16,1.25.83,3.43,3.48.78C215,537.65,229.64,522,246.33,526s3,16.69,10.12,18.71l4.55,2s-19.73,17.71-38.44,8.6c0,0-6.83-3.79-10.87-9.86,0,0-1-2.53-4.05-.51s-4,6.07-7.59,5.57c0,0,5.57-2.53,4-8.6s-8.6-8.6-8.6-8.6S204.17,529.24,207.42,538.15Z"/><path class="cls-8" d="M241.53,555.1s-6.07,0-11.13,6.57C230.4,561.67,243,562.18,241.53,555.1Z"/><path class="cls-8" d="M227.87,532.84s15.68,8.1,11.13,13.66S228.88,548,228.88,548s7.08,1,6.07-4.56S227.87,532.84,227.87,532.84Z"/><path class="cls-5" d="M212.39,540.22c4.75-4.77,18.48-18,33.94-14.2.66.15,1.26.33,1.83.51h0s-8.66-7.85-31.42-1.78c0,0-9.1,1.52-7.08,7.59C210.79,535.71,211.75,538.45,212.39,540.22Z"/><path class="cls-8" d="M222.56,555.35s-6.83-3.79-10.87-9.86c0,0,0-.09-.11-.21-1.52,2.14-4.83,8.06,2.13,11.34,5.42,2.54,11,1.68,14.45.69A25.27,25.27,0,0,1,222.56,555.35Z"/><path class="cls-8" d="M243.88,556.35a15.09,15.09,0,0,0,3.21,5.83,5.75,5.75,0,0,0-.11-6.94C246,555.64,245,556,243.88,556.35Z"/><path class="cls-5" d="M259.3,546c-20.09,6.66-15.75-12.65-15.75-12.65-7.85,8.57-1.09,17.39,3.57,21.84A52.53,52.53,0,0,0,261,546.75Z"/><path class="cls-8" d="M208,540.41a10.32,10.32,0,0,0-.53-2.26c-3.25-8.91-11.92-4.8-11.92-4.8s7.08,2.53,8.6,8.6-4,8.6-4,8.6c3.54.5,4.55-3.54,7.59-5.57a4.39,4.39,0,0,1,1.78-.75,4.23,4.23,0,0,1-.14-1.79C208.37,542.39,208.05,541.21,208,540.41Z"/><path class="cls-6" d="M200.54,532.43a11.27,11.27,0,0,0-5,.92s7.08,2.53,8.6,8.6-4,8.6-4,8.6c2.87.41,4.08-2.17,6-4.24C208.14,539.45,203.78,534.73,200.54,532.43Z"/><circle class="cls-7" cx="249.87" cy="540.18" r="1.52"/><circle class="cls-6" cx="250.63" cy="540.18" r="0.76"/><path class="cls-9" d="M466.72,458s-15.35-8.85-27.55-1.36C439.17,456.64,447.41,466.74,466.72,458Z"/><polygon class="cls-6" points="473.13 456.04 472.27 462.38 466.72 458 473.13 456.04"/><path class="cls-9" d="M448.35,468.11s-17.82-10.14-32.17-1.25C416.18,466.86,425.69,478.55,448.35,468.11Z"/><polygon class="cls-6" points="455.87 465.73 454.79 473.15 448.35 468.11 455.87 465.73"/><path class="cls-9" d="M493.08,479.85s-15.35-8.85-27.55-1.36C465.53,478.49,473.77,488.59,493.08,479.85Z"/><polygon class="cls-6" points="499.49 477.88 498.63 484.22 493.08 479.85 499.49 477.88"/><path class="cls-9" d="M455.53,482.5s-15.35-8.86-27.55-1.36C428,481.14,436.22,491.23,455.53,482.5Z"/><polygon class="cls-6" points="461.94 480.52 461.08 486.87 455.53 482.5 461.94 480.52"/><path class="cls-9" d="M480.71,494.41s-15.35-8.85-27.55-1.36C453.16,493.05,461.4,503.15,480.71,494.41Z"/><polygon class="cls-6" points="487.12 492.44 486.26 498.78 480.71 494.41 487.12 492.44"/><path class="cls-9" d="M526.71,493.41s-15.35-8.85-27.55-1.36C499.16,492.05,507.4,502.15,526.71,493.41Z"/><polygon class="cls-6" points="533.12 491.44 532.26 497.78 526.71 493.41 533.12 491.44"/><path class="cls-9" d="M410.71,504.41s-15.35-8.85-27.55-1.36C383.16,503.05,391.4,513.15,410.71,504.41Z"/><polygon class="cls-6" points="417.12 502.44 416.26 508.78 410.71 504.41 417.12 502.44"/><path class="cls-9" d="M469.71,522.41s-15.35-8.85-27.55-1.36C442.16,521.05,450.4,531.15,469.71,522.41Z"/><polygon class="cls-6" points="476.12 520.44 475.26 526.78 469.71 522.41 476.12 520.44"/><path class="cls-9" d="M439,495.54s-15.35-8.85-27.55-1.36C411.4,494.18,419.65,504.28,439,495.54Z"/><polygon class="cls-6" points="445.36 493.57 444.51 499.92 438.95 495.54 445.36 493.57"/><path class="cls-9" d="M464.24,507.59s-16.44-9.33-29.7-1.1C434.54,506.49,443.3,517.26,464.24,507.59Z"/><polygon class="cls-6" points="471.19 505.38 470.18 512.23 464.24 507.59 471.19 505.38"/><path class="cls-9" d="M445.24,536.59s-16.44-9.33-29.7-1.1C415.54,535.49,424.3,546.26,445.24,536.59Z"/><polygon class="cls-6" points="452.19 534.38 451.18 541.23 445.24 536.59 452.19 534.38"/><path class="cls-9" d="M496.24,542.59s-16.44-9.33-29.7-1.1C466.54,541.49,475.3,552.26,496.24,542.59Z"/><polygon class="cls-6" points="503.19 540.38 502.18 547.23 496.24 542.59 503.19 540.38"/><path class="cls-9" d="M506.39,506.47s-13.88-7.63-25.4-.32C481,506.15,488.27,515.16,506.39,506.47Z"/><polygon class="cls-6" points="512.37 504.44 511.37 510.3 506.39 506.47 512.37 504.44"/><path class="cls-9" d="M533.39,477.47s-13.88-7.63-25.4-.32C508,477.15,515.27,486.16,533.39,477.47Z"/><polygon class="cls-6" points="539.37 475.44 538.37 481.3 533.39 477.47 539.37 475.44"/><path class="cls-9" d="M493.39,444.47s-13.88-7.63-25.4-.32C468,444.15,475.27,453.16,493.39,444.47Z"/><polygon class="cls-6" points="499.37 442.44 498.37 448.3 493.39 444.47 499.37 442.44"/><path class="cls-9" d="M506.39,464.47s-13.88-7.63-25.4-.32C481,464.15,488.27,473.16,506.39,464.47Z"/><polygon class="cls-6" points="512.37 462.44 511.37 468.3 506.39 464.47 512.37 462.44"/><path class="cls-9" d="M425.39,516.47s-13.88-7.63-25.4-.32C400,516.15,407.27,525.16,425.39,516.47Z"/><polygon class="cls-6" points="431.37 514.44 430.37 520.3 425.39 516.47 431.37 514.44"/><path class="cls-9" d="M412.39,483.47s-13.88-7.63-25.4-.32C387,483.15,394.27,492.16,412.39,483.47Z"/><polygon class="cls-6" points="418.37 481.44 417.37 487.3 412.39 483.47 418.37 481.44"/><path class="cls-9" d="M507.81,524.19s-11.17-6.14-20.44-.26C487.37,523.93,493.22,531.19,507.81,524.19Z"/><polygon class="cls-6" points="512.63 522.55 511.81 527.28 507.81 524.19 512.63 522.55"/><path class="cls-9" d="M534.81,453.19s-11.17-6.14-20.44-.26C514.37,452.93,520.22,460.19,534.81,453.19Z"/><polygon class="cls-6" points="539.63 451.56 538.82 456.28 534.81 453.19 539.63 451.56"/><path class="cls-9" d="M463.81,562.19s-11.17-6.14-20.44-.26C443.37,561.93,449.22,569.19,463.81,562.19Z"/><polygon class="cls-6" points="468.63 560.55 467.81 565.28 463.81 562.19 468.63 560.55"/><circle class="cls-10" cx="424.5" cy="170" r="179.5"/><g class="cls-11"><path class="cls-8" d="M1214.05,403.65a121.79,121.79,0,0,1-12.3-6.92s33.83,34.56,102.63,46.58l-143.23-3-219.9,3s178.18-39.07,227.8-52.59c0,0-146.61,12-230.06,46.58,0,0-20.3,6-57.51,1.5s-111.65-4.51-111.65-4.51L886,396.73l-86.84,19.53s-101.49-19.53-141-21-108.26,19.53-108.26,19.53-88-16.53-156.76-21S97.71,404.24,97.71,404.24L-2.65,394.93c0,.67-.07,1.34-.11,2l86.94,10.31-45.11,15-43,3.48c-.07,2.49-.16,5-.22,7.48,68-3.67,171.25-7.68,223.68-1.94,0,0-48.49,6-76.68,21-14,7.47-46.4,7.52-85.26,7.15l-22.44-1.9-14,1.64c-8.5,0-17.11.08-25.75.29,0,1.51,0,3-.05,4.54,15-1,31.63-1.6,49.35-1.2l6.1.13,127.54,11.52s-141.24,17.12-183,18v0c24.66,0,188-.08,221.29-1.13l97.55-.56s-74.43,16.92-90.22,18c-13,.93-172.61,1.48-228.41,1.64v.19l221.65,1.56a121.5,121.5,0,0,0,32.29-3.64c12.14,1.37,62.73,6.74,96.27,4.76,38.34-2.25,84.18-9.88,112-21.29,15.21.34,62.3.79,87.6-5.77,30.44-7.9-2.82-19.74-2.82-19.74s-168-5.64-197.36-4.51-150,9-150,9l-93.66-7.91c28.15-.62,43.68-3,52.49-7.86,0,0,77.82,9,99.24,6s46.24-10.52,69.92-6,94.73,1.5,119.54-9c0,0,127.44,13.53,171.42,13.53s130.81,7.51,198.48-4.51c0,0,71,10.52,175.92,10.52s145.48-21,178.18-19.54c0,0,213.14,1.51,251.49,9V441.81l-51.88-3,54.13-15v-9S1288.32,383.42,1214.05,403.65ZM394.3,505.5s-41.73,5.64-64.28,5.64c-18.77,0-58.39-3.9-71.17-5.22l1.25-.42c22.56-7.89,65.41-13.53,65.41-13.53H444C436.67,495.16,421.61,500.47,394.3,505.5Zm129.69-35c32.7-1.13,28.19,9,28.19,9-15.79,14.66-121.79,7.9-134.2,7.9s-59.77-19.18-59.77-19.18S491.28,471.67,524,470.54Zm-191.71,0c22.55,0,68.79,16.92,68.79,16.92C365,488.58,169.88,483,169.88,483,203.71,473.92,309.72,470.54,332.28,470.54Zm95.85-63.29s-68.79,16.53-92.47,19.53-74.43-24-74.43-24C331.15,393.73,428.13,407.25,428.13,407.25Zm-368.76,15c28.19-18,150-19.53,170.28-19.53s71,24,71,24C287.17,426.78,59.37,422.27,59.37,422.27Zm287.57,28.55c-18.05-4.51-51.88-6-88,4.51s-97-4.51-97-4.51c25.94,0,57.51-19.53,67.66-19.53H346.94l89.09,12S365,455.33,346.94,450.82Zm18-24,74.43-19.53C553.31,420.77,595,449.32,595,449.32,522.86,455.33,365,426.78,365,426.78Zm236.82,18-30.45-22.54c84.58-48.08,188.33,0,188.33,0C722.47,443.31,601.8,444.81,601.8,444.81Zm60.9,6c56.39-16.53,175.92-6,175.92-6C754,465.85,662.7,450.82,662.7,450.82Zm363.13,9c-45.11-1.51-152.25,6-195.1-6,0,0,29.32-7.52,54.13-7.52h240.21S1070.94,461.34,1025.83,459.84Zm332.68-24c-16.4,0-96.1-8.69-143.52-31.69,20.24-.81,135.78-4.54,199.24,13.56C1401.4,423.44,1372.34,435.8,1358.51,435.8Z"/><path class="cls-8" d="M1211.34,524.67c29.32,1.13,197.35-4.51,197.35-4.51s33.27-11.84,2.82-19.73c-25.3-6.56-72.39-6.12-87.6-5.78-27.83-11.41-73.67-19-112-21.29-33.54-2-84.12,3.39-96.26,4.76a121.27,121.27,0,0,0-32.3-3.63l-235.1,1.65c-17-3.34-104.91-6.73-144.38-9-39.24-2.25-178.44,14.47-214,50.68-39.38.08-76.07,2.31-100,2.31-44,0-171.42,13.52-171.42,13.52-24.81-10.51-95.85-13.52-119.53-9s-48.5-3-69.92-6c-6.81-1-19.31-.7-33.19.1,0,.77,0,1.54,0,2.3,13.6-.48,27.42.3,38.79,3.61,36.08,10.52,69.91,9,88,4.51s89.09,7.51,89.09,7.51l-89.09,12H5.23c-2.12,0-5.19-.86-8.94-2.21.07,2.7.13,5.4.2,8.09,40.9-.77,74.82-1.37,79.79-1.37,0,0-50.75,24-71,24-1.89,0-4.68,0-8.19-.06,0,1.87.09,3.73.14,5.6,64.78,3.15,137.52,5.7,171.57,3.47,68.8-4.51,156.76-21,156.76-21s68.79,21,108.26,19.53,135.89-15,135.89-15L712.21,614.2c-46.66-1.07-123.6-6.19-184.84,4.69,0,0-71-10.52-175.92-10.52S206,629.4,173.27,627.9c0,0-99.87-.7-175.18-3.56q.13,7.59.23,15.18c30.35,3,88.85,12.2,126.75,30.59-13.71.55-71.17,2.43-126.54-2,0,1.66,0,3.31,0,5,41.63,5,91.39,7.35,127.47-2.47a120.86,120.86,0,0,1,12.31,6.91s-33.84-34.55-102.63-46.57l143.22,3,219.91-3S220.63,670,171,683.49c0,0,146.6-12,230.06-46.57,0,0,20.3-6,57.51-1.51s111.65,4.51,111.65,4.51L454.07,677.48,540.9,658s101.5,19.53,141,21,108.26-19.54,108.26-19.54,88,16.53,156.76,21S1242.35,670,1242.35,670l178.18,16.53L1255.88,667l45.11-15,111.65-9-2.26-6s-207.5,15-289.82,6c0,0,48.49-6,76.68-21s130.82,0,210.89-12l5.63-9s-51.87,12-118.41,10.51-95.85,0-109.39,7.52c0,0-77.81-9-99.24-6s-46.23,10.51-69.91,6-94.73-1.51-119.54,9c0,0-127.44-13.52-171.42-13.52-3.26,0-6.79,0-10.5-.12L545.42,545.69s74.43,0,111.64-4.5,57.51,1.5,57.51,1.5c63.55,26.31,163.69,39.56,207.86,44.38,31.53,6,101.6,17.56,171.06,17.56l129.69-7.52s178.18-15,191.71-24l.12-8.39c-18.41-4.9-55.38-15.65-55.38-15.65,13.33-2.36,43.47-2.87,55.65-3l.18-12.8s-160.14,4.5-225.55,54.09c0,0-55.82-.75-73.87-5.26s-77.81-16.53-126.3-16.53A204.75,204.75,0,0,0,961,567.62s0-.06,0-.1c-.35,0-2.39-3.47-5-8.21a55.32,55.32,0,0,0-39.13-27.82c-4.19-.71-8.62-1.57-13.35-2.5l157.85-13.34S1182,523.54,1211.34,524.67ZM455.2,627.9H215s54.13-15,99.24-13.52,152.24-6,195.1,6C509.33,620.39,480,627.9,455.2,627.9Zm46.23,1.5c84.58-21,175.93-6,175.93-6C621,639.92,501.43,629.4,501.43,629.4ZM911.93,667s68.79-16.53,92.47-19.54,74.43,24,74.43,24C1008.91,680.49,911.93,667,911.93,667Zm368.76-15c-28.19,18-150,19.53-170.28,19.53s-71.05-24-71.05-24C1052.89,647.43,1280.69,651.94,1280.69,651.94ZM993.12,623.39c18,4.51,51.88,6,88-4.5s97,4.5,97,4.5c-25.94,0-57.51,19.54-67.66,19.54H993.12l-89.09-12S975.08,618.89,993.12,623.39Zm-18,24L900.65,667C786.75,653.44,745,624.9,745,624.9,817.2,618.89,975.08,647.43,975.08,647.43Zm-236.82-18,30.45,22.54c-84.58,48.08-188.34,0-188.34,0C617.59,630.91,738.26,629.4,738.26,629.4ZM1348.36,549l63.15,21s-25.94,9-100.37,15-117.28,1.51-117.28,1.51C1235.58,558.05,1348.36,549,1348.36,549Zm-150-32.82c-22.56,0-128.56-3.38-162.39-12.4,0,0,195.09-5.64,231.18-4.51C1267.16,499.3,1220.92,516.21,1198.37,516.21Zm219.91-9s4.51,10.15-28.2,9-165.77,2.26-165.77,2.26,47.36-19.17,59.77-19.17S1402.49,492.53,1418.28,507.19Zm-222.17-31.57c22.56,0,64.28,5.63,64.28,5.63,27.31,5,42.38,10.34,49.73,13.54H1191.6s-42.85-5.64-65.41-13.54l-1.25-.42C1137.72,479.52,1177.35,475.62,1196.11,475.62Zm-106,2.25c15.79,1.13,90.22,18,90.22,18l-97.55-.56c-34.18-1.07-204.88-1.12-222.88-1.13-1.55-8.82-4.83-16.56-11.43-18C884.66,476.29,1075.82,476.85,1090.11,477.87Zm-459.55-1.69c82.32-4.51,80.07-9,159,0,0,0,59.77,0,63.15,10.15,2.76,8.27,6.27,27.79,7.47,34.72-24.58-3.77-55.49-6.91-96-6.91q-15.8,0-30.54.3c-35.78-31.93-79.76-37.78-105.06-38.14Zm-13.76,1.07c57,1.06,104.37,29.52,116.14,37.2-87.49,1.75-144.67,10.21-144.67,10.21-30.67-5.45-65.27-6.88-98-6.82C497.85,513.2,547.81,484.24,616.8,477.25Zm-580,100s50.75-27,74.43-24,92.47,19.53,92.47,19.53S106.73,586.26,36.81,577.25ZM215,572.74l-74.43-19.53s157.88-28.55,230.06-22.54C370.62,530.67,328.89,559.22,215,572.74Zm132-15,30.44-22.53s120.67,1.5,157.89,22.53C535.27,557.71,431.52,605.79,346.94,557.71Zm91.34-28.54s91.35-15,175.93,6C614.21,535.18,494.67,545.69,438.28,529.17Zm222.16,4.5c-24.81,0-54.13-7.51-54.13-7.51,42.86-12,150-4.51,195.1-6s99.24,13.52,99.24,13.52ZM1118.3,588.1c-57.51,22.54-162.39,0-162.39,0C995.38,576.08,1118.3,588.1,1118.3,588.1Zm-99.24-12c-16.92,3-59.77-1.5-59.77-1.5C984.1,568.57,1019.06,576.08,1019.06,576.08Zm-60.85-8-1.8.29C956.44,567.84,957.26,567.9,958.21,568ZM908,539.29a55.34,55.34,0,0,1,45,24.19l3.33,4.87a211.35,211.35,0,0,0-44.94,12.52c-69.81-16.85-194.5-44.19-194.5-44.19Zm-18.32-13c-8.58-1.67-18.09-3.44-28.82-5.1.36-4.94.89-16.64-.91-26.91,39.59.47,184.53,18,184.53,18Z"/></g><path class="cls-12" d="M1104,219.18s22.33-2.23,32.76,8.94c0,0,23.82-14.15,34.24-12.66,0,0-7.44,7.45-20.84,8.94L1139,231.84s8.93-3.72,11.17-3,1.48,3.72,1.48,3.72l2.24,4.47-5.21-3.72a33.91,33.91,0,0,1-11.17,3.72c-6,.75-9.68,0-12.66,2.23,0,0-1.48-3.72-4.46-4.46l7.44-1.49s3-3.72-6-6S1107.72,224.4,1104,219.18Z"/><path d="M1109.13,219c-3.1,0-5.13.17-5.13.17,2.56,3.59,5.83,5.06,10.53,6.36C1109.68,223.1,1108.76,220.74,1109.13,219Z"/><path d="M1167.06,215.52c-2.93,2.48-9.32,7.25-16.9,8.88,13.4-1.49,20.84-8.94,20.84-8.94A15,15,0,0,0,1167.06,215.52Z"/><path d="M1127.12,238.14c1.57,1.49,3.83.35,5.27-.68A22,22,0,0,0,1127.12,238.14Z"/><path class="cls-13" d="M1151.68,232.4l-2.66,1.18,4.86,3.47-2.24-4.47A1.32,1.32,0,0,0,1151.68,232.4Z"/><path class="cls-12" d="M1307.46,222.28c3.29-3,1-6.44,0-12.36s9.06-16.91,9.06-16.91c-1.17-1.74.22-4.18.22-4.18-1.63-.93.57-2.91.57-2.91-1.81-1.56.39-3.54.39-3.54-1.8-1.56.57-2.9.57-2.9a2.13,2.13,0,0,1,.4-3.54,2.34,2.34,0,0,1-.25-3.37l10.41,5.37,4.05,14.66c-6.53,8.67-4.17,19.69-4.17,19.69,12.29-2.71,16.38,7.14,16.38,7.14a6.79,6.79,0,0,1,5.06,3.41c-4.88-2.77-14.73,1.32-14.73,1.32-16.69,6.67-32.88,7.71-37.23,6.85s-7.87,6.3-7.87,6.3l-6.86-5s8.18-.2,10.2-2.82,7.87-6.29,7.87-6.29-3-15.66-18.85-16.07c0,0-9.11,1.83-7.55,0,0,0-5-.68-3.25-1.84,0,0-4.18-.22-3.08-1.21,0,0-4.82,0-3.08-1.21,0,0-3.72-1-1.17-1.74,0,0,25.57-8.09,45.32-1.19a12.55,12.55,0,0,0-2.92,11.79C1308.89,218.79,1307.46,222.28,1307.46,222.28Z"/><path d="M1318.84,188.94a2.05,2.05,0,0,1,.57-2.91,2,2,0,0,1,.57-2.9,2,2,0,0,1,.57-2.9c-2-2.2,1-3.72,1-3.72-2.79-2.66.85-1.88.85-1.88h0l-4-2.06a2.34,2.34,0,0,0,.25,3.37,2.13,2.13,0,0,0-.4,3.54s-2.37,1.34-.57,2.9c0,0-2.2,2-.39,3.54,0,0-2.2,2-.57,2.91,0,0-1.39,2.44-.22,4.18C1316.92,189.46,1318.84,188.94,1318.84,188.94Z"/><path d="M1265.73,202.92c-1.74,1.17,3.08,1.21,3.08,1.21-1.1,1,3.08,1.21,3.08,1.21-1.74,1.16,3.25,1.84,3.25,1.84-1.56,1.81,7.55,0,7.55,0-4,.42-5.35-2-5.35-2a4.58,4.58,0,0,1-3.08-1.21c-1.73,1.17-3.08-1.2-3.08-1.2a4.64,4.64,0,0,1-2.9-.57c-2.09-.11.47-2.12.47-2.12-2.63.61-4.19,1.08-4.19,1.08C1262,201.89,1265.73,202.92,1265.73,202.92Z"/><path d="M1282.69,207.16l.91.05A2.34,2.34,0,0,0,1282.69,207.16Z"/><path d="M1298.2,231c-2.46-.48-4.65,1.59-6.09,3.48,7.52.4,11.23-2,12.69-3.31A30.13,30.13,0,0,1,1298.2,231Z"/><path class="cls-13" d="M1345.09,219.4c-.16.82-.36,1.72-.54,2.52a10.06,10.06,0,0,1,5.61.92,6.79,6.79,0,0,0-5.06-3.41Z"/><path class="cls-12" d="M1221,262.5s13,8,17,9,6,9,4,16-8,6-8,6,3-8-2-13S1221,267.5,1221,262.5Z"/><path class="cls-12" d="M1226,292.5l1,3s15-1,18,0c0,0,5,1,6,0a6.19,6.19,0,0,0-2-4c-2-2,2-5,6-5s8-9,8-9a83.28,83.28,0,0,0-14,4c-8,3-10,9-13,10S1226,292.5,1226,292.5Z"/><path d="M1255,286.5c4,0,8-9,8-9s-.58.1-1.62.32C1260.14,280.36,1257.28,285.74,1255,286.5Z"/><path d="M1228.78,277a22.42,22.42,0,0,0-2.78-6.5,22.06,22.06,0,0,1-2.82-6.68L1221,262.5C1221,266.45,1224.74,272.26,1228.78,277Z"/><path d="M1230.52,295.3l.48.2c3.52,1.41,5.06.34,5.66-.42C1234.48,295.12,1232.27,295.21,1230.52,295.3Z"/><polygon class="cls-13" points="1250.77 294.3 1252 295.5 1251 295.5 1250.77 294.3"/><path class="cls-14" d="M1940,354s-659.87,47.81-809,108.67-106.53,110.2,80.87,174.51c168,57.63,177.87,90.31,317.78,92.77S1940,731.21,1940,731.21Z"/><path class="cls-15" d="M1520.11,173.39s104.08,124.2,112,262.11H1560S1577.22,293.36,1520.11,173.39Z"/><circle class="cls-16" cx="1528" cy="228.5" r="16"/><path class="cls-17" d="M1541.68,124.54l4.51-11.27c-.73-1.45-1.53-2.92-2.42-4.4C1518.7,67.08,1479,53.5,1479,53.5s0,.17.12.47c7.36,5.88,7.7,10.32,12.42,20.42l-5.18,5.23c2.44,8.13,5.4,17.58,8.77,27.47,4.85-2.4,12.81-6.26,12.08-5.53s-4.24,14.61-6.12,22.23c1.68,4.49,3.42,9,5.22,13.34l9.26-8.41-4.09,20.42c5.59,12.3,11.57,23.21,17.67,30.77,0,0,30.95-22.82,20.91-56.94Z"/><path class="cls-17" d="M1469.6,200.8l10.74,7.88c21.56-20,49.33-29.29,49.33-29.29s-32.34-34.36-62.23-27.54l2.16,16.57-12.2-13c-13.62,6.55-26.18,19.43-33.68,36.44L1432,205h-12.78a91,91,0,0,0,.76,46.49,138,138,0,0,0,27.29-13.58c-1.85-6.24-4.82-15.15-4.82-15.15l12.53,9.85A114.13,114.13,0,0,0,1473.25,216c.45-.51.91-1,1.37-1.51Z"/><path class="cls-17" d="M1497.81,259.31l10.08,2.88a381.53,381.53,0,0,0,12.32-40l-7.78-9.89h10.19c4.35-18.65,6.53-32.39,6.53-32.39-30.3-7.31-50.15,27.16-50.15,27.16a159.86,159.86,0,0,0-13.93,31l7.66,7.66-9.42-1.45c-3,11.66-3.39,21.54-2.39,29.8,4.34,1.86,10.77,5.08,10.77,5.08l-8.85,4.42c5,17.32,16.16,24.83,16.16,24.83,10.56-7.26,19.45-22.76,26.68-40.57Z"/><path class="cls-18" d="M1479,53.5s0,.17.12.47c7.36,5.88,7.7,10.32,12.42,20.42l-5.18,5.23c2.44,8.13,5.4,17.58,8.77,27.47,4.85-2.4,12.81-6.26,12.08-5.53s-4.24,14.61-6.12,22.23c1.68,4.49,3.42,9,5.22,13.34l9.26-8.41-4.09,20.42c5.59,12.3,11.57,23.21,17.67,30.77C1554.22,112,1479,53.5,1479,53.5Z"/><path class="cls-18" d="M1478.12,307.75c.56.44.88.66.88.66,10.56-7.26,19.45-22.76,26.68-40.57l-7.87-8.53,10.08,2.88a381.53,381.53,0,0,0,12.32-40l-7.78-9.89h10.19c4.35-18.65,6.53-32.39,6.53-32.39C1473,210.61,1475.79,284.75,1478.12,307.75Z"/><path class="cls-18" d="M1420.07,251.44a139.64,139.64,0,0,0,27.19-13.55c-1.85-6.24-4.82-15.15-4.82-15.15l12.53,9.85A114.13,114.13,0,0,0,1473.25,216c.45-.51.91-1,1.37-1.51l-5-13.64,10.74,7.88c21.56-20,49.33-29.29,49.33-29.29s-.31-.33-.9-.92C1458.27,146.62,1427.23,228.5,1420.07,251.44Z"/><path class="cls-18" d="M1596.09,205.59l-12.61,9.25c-25.31-23.51-57.92-34.39-57.92-34.39s38-40.35,73.07-32.34l-2.54,19.46,14.33-15.23c16,7.69,30.74,22.81,39.54,42.79l-9.71,15.37h15c4.13,16.27,4.46,34.8-.9,54.59a161.81,161.81,0,0,1-32-15.95c2.17-7.33,5.66-17.79,5.66-17.79l-14.72,11.57a134.49,134.49,0,0,1-21.47-19.54c-.53-.6-1.07-1.19-1.61-1.77Z"/><path class="cls-17" d="M1654.24,265.05a163.44,163.44,0,0,1-31.91-15.91c2.17-7.33,5.66-17.79,5.66-17.79l-14.72,11.57a134.49,134.49,0,0,1-21.47-19.54c-.53-.6-1.07-1.19-1.61-1.77l5.9-16-12.61,9.25c-25.31-23.51-57.92-34.39-57.92-34.39s.36-.39,1-1.08C1609.39,142,1645.84,238.11,1654.24,265.05Z"/><circle class="cls-16" cx="1529" cy="196.5" r="16"/><circle class="cls-16" cx="1556" cy="209.5" r="16"/><path class="cls-15" d="M1794.46,125.34s-120,143.18-129.09,302.16h83.11S1728.62,263.65,1794.46,125.34Z"/><circle class="cls-16" cx="1773.84" cy="179.66" r="18.44"/><path class="cls-17" d="M1790.69,70.91l-.75-14c1.33-1.31,2.74-2.61,4.26-3.9,42.82-36.37,91.19-36.53,91.19-36.53l-.31.47c-10.2,3.7-12.22,8.42-21.1,17.71l3.72,7.62c-5.67,8-12.39,17.2-19.73,26.75-4.41-4.4-11.67-11.57-11.14-10.5s-.77,17.53-1.54,26.54c-3.49,4.28-7,8.51-10.62,12.64l-7-12.61-3.09,23.81c-10.64,11.36-21.21,21.07-30.66,27.07,0,0-25.37-36.36-1.8-69.9Z"/><path class="cls-17" d="M1841.23,180.82l-14.65,4.63c-16.13-29.83-43-50.21-43-50.21s48-25.57,78.12-7.08l-8.48,17.3,18.12-9.65c12.45,12.18,21.4,30.89,23.3,52.23l-13.86,11.24,14,4.72c-1.27,16.43-6.8,33.77-18,50.49a159.3,159.3,0,0,1-24.77-24.92c4.32-6.13,10.86-14.76,10.86-14.76l-17.33,6.13A132.23,132.23,0,0,1,1831.64,196c-.3-.72-.62-1.44-.94-2.15Z"/><path class="cls-17" d="M1788.81,234.28l-12.08-.58a440.69,440.69,0,0,1,1.33-48.23l12.15-7.93-11.12-3.76c2.13-22,4.83-37.78,4.83-37.78,35.79,3.21,44.72,48.19,44.72,48.19a184.44,184.44,0,0,1,3.76,39l-11.2,5.54,10.83,1.89c-1.08,13.83-4.26,24.79-8.41,33.43-5.42.43-13.63,1.57-13.63,1.57l8,8.09c-11.89,17.05-26.81,21.15-26.81,21.15-8.85-11.84-12.83-32.05-14.14-54.16Z"/><path class="cls-18" d="M1885.39,16.5l-.31.47c-10.2,3.7-12.22,8.42-21.1,17.71l3.72,7.62c-5.67,8-12.39,17.2-19.73,26.75-4.41-4.4-11.67-11.57-11.14-10.5s-.77,17.53-1.54,26.54c-3.49,4.28-7,8.51-10.62,12.64l-7-12.61-3.09,23.81c-10.64,11.36-21.21,21.07-30.66,27.07C1781.64,52.59,1885.39,16.5,1885.39,16.5Z"/><path class="cls-18" d="M1792.4,294.45c-.77.27-1.2.4-1.2.4-8.85-11.84-12.83-32.05-14.14-54.16l11.75-6.41-12.08-.58a440.69,440.69,0,0,1,1.33-48.23l12.15-7.93-11.12-3.76c2.13-22,4.83-37.78,4.83-37.78C1833.88,190.27,1803.44,270.2,1792.4,294.45Z"/><path class="cls-18" d="M1876.59,254.41a160,160,0,0,1-24.67-24.84c4.32-6.13,10.86-14.76,10.86-14.76l-17.33,6.13A132.23,132.23,0,0,1,1831.64,196c-.3-.72-.62-1.44-.94-2.15l10.53-13-14.65,4.63c-16.13-29.83-43-50.21-43-50.21s.46-.25,1.31-.67C1873.61,125.84,1877.25,226.72,1876.59,254.41Z"/><path class="cls-18" d="M1715.86,171.09l15.22,9.68c27.31-29,64-44,64-44s-46.77-43.5-86.53-31.6l4.41,22.18-17.65-16.41c-17.8,10.06-33.6,28.59-42.2,52.24l12.34,16.94-17.25,1.15c-3.51,19-2.47,40.37,5.21,62.72a186.36,186.36,0,0,0,35.62-20.8c-3.06-8.26-7.87-20-7.87-20L1699,215.34a155.21,155.21,0,0,0,23.19-24.12c.56-.73,1.14-1.44,1.72-2.16Z"/><path class="cls-17" d="M1653.53,243.93A187.65,187.65,0,0,0,1689,223.19c-3.06-8.26-7.87-20-7.87-20L1699,215.34a155.21,155.21,0,0,0,23.19-24.12c.56-.73,1.14-1.44,1.72-2.16l-8-18,15.22,9.68c27.31-29,64-44,64-44s-.45-.42-1.29-1.16C1695.7,98.94,1661.14,212.31,1653.53,243.93Z"/><circle class="cls-16" cx="1784.21" cy="151.99" r="18.44"/><path class="cls-19" d="M1534.57,504.16s-9,4.77-11.34,9.87,1.32,12.06,1.32,12.06,2.78,10,7.89,12.4c0,0,9.44,4.54,15.4,1.36l-11.43-3.48,11.9,2s-15.08-7.93-17.73-12.9l-1.95-7.26s10.84,0,13.06-1.85S1534.57,504.16,1534.57,504.16Z"/><path class="cls-19" d="M1533.61,496.37s-12.83,1.09-16.28,4.21c0,0-6.95,3.71-4.87,16l-2.49,10.9s3.25,8.48,14.61,9.45c0,0-10.73-5.77-10.57-9,0,0,5.08-8.45,4.42-14.48s.79-8.09.79-8.09,11.43,3.49,15.64.6S1533.61,496.37,1533.61,496.37Z"/><path class="cls-19" d="M1542.26,489.84s-11.43-3.48-17.7-2c0,0-4.8-.63-11.23,4.07s-9.88,7.82-9.88,7.82a24,24,0,0,0-3.65,14.71l5.77-10.74s7.49-2.71,10.18-6.06l7.42-5.23s11.5,6,16.53,5.87Z"/><path class="cls-19" d="M1551.27,487.59s-13.25-5.7-19.81-6c0,0-11.8-7.76-23-1.17,0,0,13.59-.86,21.51,3.22l1.82,2.22,14.25,5.18Z"/><path class="cls-19" d="M1557.6,488.69s-1.66-5.5-4.47-7.19L1539.58,474a8.8,8.8,0,0,1,8-1.72s4.44-3.65,8.55-.73c0,0-2.89-4.21-9.91-3,0,0-9.08-.27-10.94,5.83,0,0-1.69,2.82,5.93,5.14s12.33,8.75,12.33,8.75Z"/><path class="cls-19" d="M1570.24,490.87s4.44-3.64,7.72-3.48l15.41,1.37a8.83,8.83,0,0,0-5.7-5.9s-1.66-5.5-6.69-5.37c0,0,4.73-1.89,9.9,3,0,0,7.69,4.84,5.83,10.93,0,0-.16,3.28-7.79,1s-15.11.4-15.11.4Z"/><path class="cls-19" d="M1581.75,518.53s4.77,9,3.91,14.52-7.82,9.27-7.82,9.27-7.89,6.76-13.46,5.9c0,0-10.37-1.49-13.55-7.46l11.43,3.48-11-5s16.93,1.82,21.9-.83l5.67-4.93s-9-6.07-9.81-8.82S1581.75,518.53,1581.75,518.53Z"/><path class="cls-19" d="M1588,514.59s10,8,11.17,12.56c0,0,3.71,7-4.88,16l-4,10.43s-7.42,5.24-17.4-.3c0,0,12.13,1.2,13.82-1.62,0,0,.5-9.84,4.41-14.48s3.85-7.16,3.85-7.16-11.43-3.48-13.32-8.22S1588,514.59,1588,514.59Z"/><path class="cls-19" d="M1584.17,502.61s10.8,3.29,15,7.7c0,0,4.1,2,6.66,9.11s3.63,11.33,3.63,11.33a22.61,22.61,0,0,1-4.88,13.46l1.12-11.45s-4.44-6.08-4.78-10.11l-3.07-8s-12.17-1.35-16-4.1Z"/><path class="cls-19" d="M1576.63,494s14.31,1.9,20.11,5c0,0,14.1-.6,20.31,10.78,0,0-11.23-7.7-20.11-8.27l-2.71,1-14.88-2.87Z"/><path class="cls-20" d="M1534.57,504.16s-9,4.77-11.34,9.87,1.32,12.06,1.32,12.06,2.78,10,7.89,12.4c0,0,9.44,4.54,15.4,1.36l-11.43-3.48,11.9,2s-15.08-7.93-17.73-12.9l-1.95-7.26s10.84,0,13.06-1.85S1534.57,504.16,1534.57,504.16Z"/><path class="cls-20" d="M1533.61,496.37s-12.83,1.09-16.28,4.21c0,0-6.95,3.71-4.87,16l-2.49,10.9s3.25,8.48,14.61,9.45c0,0-10.73-5.77-10.57-9,0,0,5.08-8.45,4.42-14.48s.79-8.09.79-8.09,11.43,3.49,15.64.6S1533.61,496.37,1533.61,496.37Z"/><path class="cls-20" d="M1542.26,489.84s-11.43-3.48-17.7-2c0,0-4.8-.63-11.23,4.07s-9.88,7.82-9.88,7.82a24,24,0,0,0-3.65,14.71l5.77-10.74s7.49-2.71,10.18-6.06l7.42-5.23s11.5,6,16.53,5.87Z"/><path class="cls-20" d="M1551.27,487.59s-13.25-5.7-19.81-6c0,0-11.8-7.76-23-1.17,0,0,13.59-.86,21.51,3.22l1.82,2.22,14.25,5.18Z"/><path class="cls-20" d="M1557.6,488.69s-1.66-5.5-4.47-7.19L1539.58,474a8.8,8.8,0,0,1,8-1.72s4.44-3.65,8.55-.73c0,0-2.89-4.21-9.91-3,0,0-9.08-.27-10.94,5.83,0,0-1.69,2.82,5.93,5.14s12.33,8.75,12.33,8.75Z"/><path class="cls-20" d="M1570.24,490.87s4.44-3.64,7.72-3.48l15.41,1.37a8.83,8.83,0,0,0-5.7-5.9s-1.66-5.5-6.69-5.37c0,0,4.73-1.89,9.9,3,0,0,7.69,4.84,5.83,10.93,0,0-.16,3.28-7.79,1s-15.11.4-15.11.4Z"/><path class="cls-20" d="M1581.75,518.53s4.77,9,3.91,14.52-7.82,9.27-7.82,9.27-7.89,6.76-13.46,5.9c0,0-10.37-1.49-13.55-7.46l11.43,3.48-11-5s16.93,1.82,21.9-.83l5.67-4.93s-9-6.07-9.81-8.82S1581.75,518.53,1581.75,518.53Z"/><path class="cls-20" d="M1588,514.59s10,8,11.17,12.56c0,0,3.71,7-4.88,16l-4,10.43s-7.42,5.24-17.4-.3c0,0,12.13,1.2,13.82-1.62,0,0,.5-9.84,4.41-14.48s3.85-7.16,3.85-7.16-11.43-3.48-13.32-8.22S1588,514.59,1588,514.59Z"/><path class="cls-20" d="M1584.17,502.61s10.8,3.29,15,7.7c0,0,4.1,2,6.66,9.11s3.63,11.33,3.63,11.33a22.61,22.61,0,0,1-4.88,13.46l1.12-11.45s-4.44-6.08-4.78-10.11l-3.07-8s-12.17-1.35-16-4.1Z"/><path class="cls-20" d="M1576.63,494s14.31,1.9,20.11,5c0,0,14.1-.6,20.31,10.78,0,0-11.23-7.7-20.11-8.27l-2.71,1-14.88-2.87Z"/><ellipse class="cls-19" cx="1561.38" cy="505.66" rx="19.12" ry="31.67" transform="translate(622.69 1851.95) rotate(-73.06)"/><circle class="cls-21" cx="1547.35" cy="520.96" r="2.79"/><circle class="cls-21" cx="1564.12" cy="526.07" r="2.79"/><g class="cls-22"><path class="cls-8" d="M1109.44,500a189.21,189.21,0,0,0-39.68,21.52c-9.45,6.7-19,15.51-20,27-.92,10.64,5.84,20.47,13.59,27.86a91.76,91.76,0,0,0,38,21.71c7.1,2,14.54,3.2,21,6.67,12.26,6.53,19.62,20.28,32.33,25.92,12.29,5.47,26.56,2.11,39.94,3.58,30.63,3.36,52.87,31.1,82.18,40.56,12.08,3.9,24.93,4.55,37.61,5.17l26.34,1.28c7,.35,14.4.61,20.64-2.59s10.6-11.16,7.36-17.36c-2.9-5.57-10-7.12-16.27-8.06l-47.77-7.17c-6.88-1-13.94-2.13-19.94-5.63-5.36-3.13-9.46-8-13.76-12.41a143.27,143.27,0,0,0-61.22-37.45c-18.29-5.55-39-8.17-52-22.14-12.05-12.93-14.07-32.26-23.68-47.09a53.53,53.53,0,0,0-26.38-21"/></g><g class="cls-22"><path class="cls-8" d="M1107.85,500.43l.3.12c.44-.18.86-.37,1.3-.54Z"/><path class="cls-8" d="M1352.63,653.29l-47.77-7.17c-6.88-1-13.94-2.12-19.94-5.63-5.36-3.13-9.46-8-13.76-12.41a143.27,143.27,0,0,0-61.22-37.45c-18.29-5.55-39-8.17-52-22.14-12.05-12.94-14.07-32.26-23.68-47.09a53.5,53.5,0,0,0-26.08-20.85,189,189,0,0,0-38.39,21c-1.86,1.32-3.71,2.72-5.51,4.2a28.37,28.37,0,0,0-.62,3.94c-.91,11.74,5.84,22.57,13.6,30.71a89.92,89.92,0,0,0,38,23.93c7.1,2.22,14.54,3.53,21,7.35,12.27,7.2,19.63,22.35,32.33,28.58,12.29,6,26.56,2.32,39.94,3.94,30.64,3.7,52.87,34.27,82.19,44.7,12.07,4.3,24.93,5,37.61,5.7l26.33,1.41a74,74,0,0,0,10.53,0c4-3.88,6.19-9.82,3.65-14.68C1366,655.78,1358.86,654.23,1352.63,653.29Z"/></g><g class="cls-22"><path class="cls-8" d="M1107.85,500.43l.3.12c.44-.18.86-.37,1.3-.54Z"/><path class="cls-8" d="M1336.9,660.82l26.33,1.41c2,.11,4.1.21,6.16.21a9.59,9.59,0,0,0-.49-1.09c-2.9-5.57-10-7.12-16.27-8.06l-47.77-7.17c-6.88-1-13.94-2.12-19.94-5.63-5.36-3.13-9.46-8-13.76-12.41a143.27,143.27,0,0,0-61.22-37.45c-18.29-5.55-39-8.17-52-22.14-12.05-12.94-14.07-32.26-23.68-47.09a53.5,53.5,0,0,0-26.08-20.85,189.28,189.28,0,0,0-36,19.35c.67,10.19,6.74,19.51,13.6,26.72a90,90,0,0,0,38,23.93c7.1,2.22,14.54,3.53,21,7.35,12.27,7.2,19.63,22.35,32.33,28.58,12.29,6,26.56,2.32,39.94,3.94,30.64,3.7,52.87,34.27,82.19,44.7C1311.36,659.42,1324.22,660.14,1336.9,660.82Z"/></g><g class="cls-23"><polygon class="cls-8" points="375.64 1068.5 414.85 172.23 454.05 1068.5 375.64 1068.5"/><polygon class="cls-8" points="454.05 -769.5 414.85 126.78 375.64 -769.5 454.05 -769.5"/><polygon class="cls-8" points="185.36 1040.25 410.12 171.73 262.05 1056.56 185.36 1040.25"/><polygon class="cls-8" points="644.34 -741.25 419.57 127.27 567.64 -757.56 644.34 -741.25"/><polygon class="cls-8" points="5.12 973.04 405.6 170.26 76.74 1004.94 5.12 973.04"/><polygon class="cls-8" points="824.58 -674.04 424.09 128.74 752.96 -705.94 824.58 -674.04"/><polygon class="cls-8" points="-157.21 869.81 401.49 167.88 -93.79 915.91 -157.21 869.81"/><polygon class="cls-8" points="986.91 -570.81 428.21 131.12 923.49 -616.91 986.91 -570.81"/><polygon class="cls-8" points="-294.52 735.08 397.96 164.7 -242.07 793.36 -294.52 735.08"/><polygon class="cls-8" points="1124.21 -436.08 431.74 134.3 1071.77 -494.36 1124.21 -436.08"/><polygon class="cls-8" points="-400.8 574.73 395.16 160.86 -361.62 642.65 -400.8 574.73"/><polygon class="cls-8" points="1230.49 -275.73 434.53 138.15 1191.32 -343.65 1230.49 -275.73"/><polygon class="cls-8" points="-471.4 395.79 393.23 156.51 -447.21 470.37 -471.4 395.79"/><polygon class="cls-8" points="1301.1 -96.79 436.46 142.49 1276.9 -171.37 1301.1 -96.79"/><polygon class="cls-8" points="-503.25 206.07 392.25 151.86 -495.09 284.06 -503.25 206.07"/><polygon class="cls-8" points="2043 -11.5 437.45 147.14 1982 -102.5 2043 -11.5"/><polygon class="cls-8" points="-494.94 13.88 392.25 147.11 -503.18 91.86 -494.94 13.88"/><polygon class="cls-8" points="1935 389.5 437.45 151.89 1945 273.5 1935 389.5"/><polygon class="cls-8" points="-446.83 -172.38 393.24 142.46 -471.11 -97.82 -446.83 -172.38"/><polygon class="cls-8" points="1975 657.5 436.45 156.54 1982 556.5 1975 657.5"/><polygon class="cls-8" points="-361.04 -344.56 395.18 138.12 -400.3 -276.68 -361.04 -344.56"/><polygon class="cls-8" points="1262.74 694.55 434.52 160.88 1432 694.5 1262.74 694.55"/><polygon class="cls-8" points="-241.32 -495.13 397.97 134.28 -293.83 -436.9 -241.32 -495.13"/><polygon class="cls-8" points="1071.01 794.13 431.72 164.72 1123.53 735.9 1071.01 794.13"/><polygon class="cls-8" points="-92.89 -617.51 401.51 131.1 -156.37 -571.48 -92.89 -617.51"/><polygon class="cls-8" points="922.59 916.51 428.19 167.9 986.07 870.48 922.59 916.51"/><polygon class="cls-8" points="77.74 -706.34 405.63 128.73 6.08 -674.52 77.74 -706.34"/><polygon class="cls-8" points="751.96 1005.34 424.07 170.27 823.62 973.52 751.96 1005.34"/><polygon class="cls-8" points="263.11 -757.74 410.15 127.27 186.4 -741.52 263.11 -757.74"/><polygon class="cls-8" points="566.58 1056.73 419.55 171.73 643.3 1040.52 566.58 1056.73"/></g><polygon class="cls-24" points="1691.76 401.61 1666.42 408.07 1650.63 437.02 1694.17 443.25 1727.1 408.32 1699.31 389.65 1691.76 401.61"/><path class="cls-25" d="M1697.27,417l-19.45,6.27-4.36,17,20.71,3,32.93-34.92-17.63-11.85C1705,403.56,1697.27,417,1697.27,417Z"/><polygon class="cls-24" points="1712.15 409.32 1758.11 404.29 1804.57 419.57 1790.52 441.52 1726.94 452.46 1688.86 436.78 1712.15 409.32"/><polygon class="cls-25" points="1753.57 404.79 1748.75 427.29 1767.02 445.57 1790.52 441.52 1804.57 419.57 1758.11 404.29 1753.57 404.79"/><polygon class="cls-24" points="1705.28 427.29 1691.55 427.29 1683.54 438.32 1682.4 446.74 1697.27 451.32 1709.86 451.32 1719.01 437.59 1705.28 427.29"/><polygon class="cls-25" points="1719.01 437.59 1705.28 427.29 1700.24 427.29 1694.05 435.82 1692.69 445.81 1709.98 451.13 1719.01 437.59"/><polygon class="cls-24" points="1803.82 424.56 1793.23 426.29 1788.58 436.63 1788.86 443.9 1800.96 445.9 1810.66 444.31 1815.82 431.55 1803.82 424.56"/><polygon class="cls-25" points="1815.82 431.55 1803.82 424.56 1799.93 425.2 1796.34 433.19 1796.67 441.81 1810.73 444.14 1815.82 431.55"/><path class="cls-26" d="M1852.43,425.24s2.9,1.27,3.72-.81-6.61-4.17-8.53-3.9-4,1.62-1,3.16A14.22,14.22,0,0,0,1852.43,425.24Z"/><path class="cls-27" d="M1851.64,421.51l-17.52,4.85s-4.08,1.48-2.72,5.68,8.66,13.08,21.73,5.19c0,0,6.28-3.06,3.35-7.67S1851.64,421.51,1851.64,421.51Z"/><path class="cls-26" d="M1831.4,432c1.33,4.1,8.29,12.62,20.73,5.77.77-2.62,1.35-7.35.07-15.32-.37-.63-.56-1-.56-1l-17.52,4.85S1830,427.84,1831.4,432Z"/><path class="cls-27" d="M1831.4,432a12.75,12.75,0,0,0,14.31,8.13,35.11,35.11,0,0,0,6.18-18.22l-.25-.44-17.52,4.85S1830,427.84,1831.4,432Z"/><path class="cls-26" d="M1831.4,432a13,13,0,0,0,8.94,8c4-4,10.64-11.59,11.39-18.38l-.09-.16-17.52,4.85S1830,427.84,1831.4,432Z"/><path class="cls-27" d="M1831.4,432a12.85,12.85,0,0,0,4.5,5.93,73.48,73.48,0,0,0,15.8-16.36l-.06-.1-17.52,4.85S1830,427.84,1831.4,432Z"/><path class="cls-26" d="M1831.4,432a11.41,11.41,0,0,0,1.6,3c4.51-2.53,13.22-7.8,18.69-13.46l0-.08-17.52,4.85S1830,427.84,1831.4,432Z"/><path class="cls-27" d="M1831.23,431.38a79.87,79.87,0,0,0,20.15-9.8l-17.26,4.78S1830.48,427.69,1831.23,431.38Z"/><path class="cls-26" d="M1539.51,417.45h0a8.76,8.76,0,0,0-2.55.36A8.76,8.76,0,0,1,1539.51,417.45Z"/><path class="cls-26" d="M1536.86,417.84c.05-.28.08-.56.1-.82h0a6.46,6.46,0,0,0,0-.74v-.38a2.53,2.53,0,0,0,0-.28v0l0-.26v-.06c0-.08,0-.16,0-.23l-.08-.29h0a5.19,5.19,0,0,0-2.52-2.76c0-.06,0-.12.08-.19l-.06.15a4.4,4.4,0,0,0-1.12-.29,5.42,5.42,0,0,0-2.42,5.06c.45.16,2.06.84.63,1.79l-.24.13a6.23,6.23,0,0,0,.24.61l5.27-.47C1536.74,418.47,1536.81,418.15,1536.86,417.84Z"/><path class="cls-26" d="M1528.33,415.33a14.4,14.4,0,0,1-6.46-3.58A11,11,0,0,0,1521,418c2,1,5.16,1.86,7.51-.56A3,3,0,0,1,1528.33,415.33Z"/><path class="cls-26" d="M1529.74,425.09v0h.3a5.39,5.39,0,0,0,1.88-.24,6,6,0,0,0,1.7-.89,8,8,0,0,0-1.85-5.74,1.71,1.71,0,0,1-.37.3,1.58,1.58,0,0,1-1.1.24,9.83,9.83,0,0,1-1.5,1.88,11.1,11.1,0,0,1-1.78,3,6,6,0,0,1-.59.64A9,9,0,0,0,1529.74,425.09Z"/><path class="cls-27" d="M1522.05,421.64s-7,4.95-5,8.8a22.72,22.72,0,0,0,4.36,2.46,11.86,11.86,0,0,0,4.47-8.81A21.64,21.64,0,0,1,1522.05,421.64Z"/><path class="cls-26" d="M1518.06,431.09l.06,0Z"/><path class="cls-26" d="M1517.84,431l.08.05Z"/><path class="cls-26" d="M1517.65,430.82l.08.05Z"/><path class="cls-26" d="M1517.29,430.57l.07.05Z"/><path class="cls-26" d="M1517.47,430.7l.08.06Z"/><path class="cls-26" d="M1517.2,430.51l0,0Z"/><path class="cls-26" d="M1517.1,430.44h0Z"/><path class="cls-26" d="M1519.34,431.86h0Z"/><path class="cls-26" d="M1518.48,431.35l0,0Z"/><path class="cls-26" d="M1518.72,431.5l.09.05Z"/><path class="cls-26" d="M1519,431.67l.09.06Z"/><path class="cls-26" d="M1517.13,430.46l0,0Z"/><path class="cls-26" d="M1520,432.2h0Z"/><path class="cls-26" d="M1520.36,432.39l-.09-.05Z"/><path class="cls-26" d="M1520.75,432.58l-.1-.05Z"/><path class="cls-26" d="M1529.74,425.09a9.51,9.51,0,0,1-3.81-1h0a11.86,11.86,0,0,1-4.47,8.81,20.19,20.19,0,0,0,5.62,1.57A15.16,15.16,0,0,0,1529.74,425.09Z"/><path class="cls-27" d="M1542.64,413.29a6.53,6.53,0,0,0-5.82,1.46l.08.29c0,.07,0,.15,0,.23v.06l0,.26v0a2.53,2.53,0,0,1,0,.28v.38a6.46,6.46,0,0,1,0,.74h0c0,.26,0,.54-.1.82a7.26,7.26,0,0,1,7.15,1.37A14.76,14.76,0,0,0,1542.64,413.29Z"/><path class="cls-26" d="M1544,419.21a7.26,7.26,0,0,0-7.15-1.37,12.37,12.37,0,0,1-.95,3.18,11.93,11.93,0,0,1,6.74,4.57A14.34,14.34,0,0,0,1544,419.21Z"/><path class="cls-27" d="M1535.91,421a8.56,8.56,0,0,1-1.54,2.31,36.49,36.49,0,0,1,4.68,7.15s0,0,0,0a15.88,15.88,0,0,0,3.56-4.85A11.93,11.93,0,0,0,1535.91,421Z"/><path class="cls-27" d="M1533.82,406c-1.08,1.35-2.53,3.65-2.09,5.8a4.06,4.06,0,0,1,2.58.19,5,5,0,0,1,4.81-3.43A10.82,10.82,0,0,0,1533.82,406Z"/><path class="cls-26" d="M1529.93,412.76a4.25,4.25,0,0,1,1.8-1c-.44-2.15,1-4.45,2.09-5.8-.26,0-.51-.07-.77-.09a13,13,0,0,0-5.21.59A5.33,5.33,0,0,0,1529.93,412.76Z"/><path class="cls-27" d="M1529.2,413.58a4.9,4.9,0,0,1,.73-.82,5.32,5.32,0,0,1-2.09-6.28,10,10,0,0,0-6,5.26,14.35,14.35,0,0,0,6.47,3.59A5.09,5.09,0,0,1,1529.2,413.58Z"/><path class="cls-26" d="M1522.05,421.64s-7,4.95-5,8.8l.35.25c3.58-1.12,5-6.44,5.47-8.41Z"/><path class="cls-26" d="M1539.12,408.53a5,5,0,0,0-4.83,3.47,5.19,5.19,0,0,1,2.52,2.76,6.54,6.54,0,0,1,5.83-1.47A14,14,0,0,0,1539.12,408.53Z"/><path class="cls-27" d="M1530.31,418.77a1.64,1.64,0,0,0,.85-.12h0l.24-.13.22-.16.07-.07.09-.09a.94.94,0,0,0,.09-.12l0-.05a.47.47,0,0,0,.06-.15h0a.92.92,0,0,0,0-.16h0a.65.65,0,0,0,0-.13.05.05,0,0,0,0,0,.47.47,0,0,0-.05-.1l0,0-.07-.09,0,0-.09-.08-.05,0-.09-.07a4.16,4.16,0,0,0-.73-.35,5.42,5.42,0,0,1,2.42-5.06,4,4,0,0,0-1.46.1,4.25,4.25,0,0,0-1.8,1,4.9,4.9,0,0,0-.73.82,5.09,5.09,0,0,0-.87,1.75,3,3,0,0,0,.19,2.11A2.42,2.42,0,0,0,1530.31,418.77Z"/><path class="cls-26" d="M1532,434.27a14.63,14.63,0,0,0,7-3.79,36.31,36.31,0,0,0-4.68-7.16,6.56,6.56,0,0,1-2.51,1.56,18.91,18.91,0,0,1,.66,6.56A15.1,15.1,0,0,1,1532,434.27Z"/><path class="cls-27" d="M1530,425.09h-.3a15.2,15.2,0,0,1-2.66,9.37,14.61,14.61,0,0,0,6.66-.68,16,16,0,0,0-1.15-9.18A5.75,5.75,0,0,1,1530,425.09Z"/><path class="cls-27" d="M1533.61,424a8.52,8.52,0,0,0,.76-.65l.47.58h0c-.16-.2-.32-.4-.47-.57a8.56,8.56,0,0,0,1.54-2.31c.3.07.63.17,1,.29h0c-.35-.12-.68-.22-1-.29a12.32,12.32,0,0,0,.91-3,.15.15,0,0,1,0-.13s0-.05,0-.08l.25-.07c0-.35,0-.7,0-1a5.6,5.6,0,0,0-5.68.35c.41.26.74.66.3,1.15A8.05,8.05,0,0,1,1533.61,424Z"/><path class="cls-27" d="M1522.07,421.65a21.1,21.1,0,0,0,3.86,2.44h0c.38.18.75.33,1.11.46a12.53,12.53,0,0,0,3.31-5.78,2.4,2.4,0,0,1-1.83-1.33h0c-2.34,2.4-5.49,1.54-7.48.58a14,14,0,0,0,1,3.6Z"/><path class="cls-27" d="M1525.79,425.43h0c0-.12,0-.24,0-.36C1525.83,425.19,1525.81,425.31,1525.79,425.43Z"/><path class="cls-28" d="M1813.15,415.44s3.29-7.7,3.11-15.34,5.12-8.08,5.12-8.08,13.7,3,12.31,11.26A32.78,32.78,0,0,0,1813.15,415.44Z"/><path class="cls-29" d="M1837,393.25c1.17-1.8-.15-4.85-.15-4.85a9.31,9.31,0,0,0-3.41,1.11C1835.23,390.51,1836.63,391.8,1837,393.25Z"/><path class="cls-30" d="M1836.1,396.11a2.17,2.17,0,0,1,.07.24c2.19-2.76.17-5.3-3-7a4.43,4.43,0,0,0-5,.21C1831.9,390.77,1835.61,394.55,1836.1,396.11Z"/><path class="cls-31" d="M1836.1,396.11c-.63-2-6.68-7.78-11-6.72-2.61.64-3.48,1.81-3.76,2.63h0s13.7,3,12.31,11.26C1835.67,402,1836.74,398.15,1836.1,396.11Z"/><path class="cls-30" d="M1833.76,402.69c0,.19,0,.39-.07.59a32.78,32.78,0,0,0-20.54,12.16s11,1.85,17.61-2.87C1835.89,408.87,1834.58,404.45,1833.76,402.69Z"/><path class="cls-32" d="M1813.57,414.91c4.84-.42,13.78-1.83,15.57-6.5a33.2,33.2,0,0,0,1.4-4.48A33.38,33.38,0,0,0,1813.57,414.91Z"/><path class="cls-15" d="M773.25,481.92l13.83,69.35S838.2,588.52,941,581.86,1130.1,560.44,1190.77,480c0,0,13.83-21.79-23.78-31.74s-165.72-45-323.72-4.23Z"/><path class="cls-33" d="M1172.2,470s19.61-4.85,11.11-15a56.23,56.23,0,0,0-16.32-6.73c-37.6-9.95-165.72-45-323.72-4.23l-70,37.9S1003.26,530.36,1172.2,470Z"/><path class="cls-34" d="M801.68,479.86l58.2-34.25s179.41-33.9,313.13,11.82c0,0-66,37.68-219.3,37.1C953.71,494.53,831.51,494.24,801.68,479.86Z"/><path class="cls-15" d="M837.47,488.15l23.79-17.58-1.38-25-58.2,34.25C809.05,483.41,822.06,486.1,837.47,488.15Z"/><path class="cls-15" d="M1172.24,443.45l18.3,5s10.39,54.81-64.48,89.83c0,0,45-60.72,39.52-88.45Z"/><path class="cls-32" d="M1166,455.14c-132.89-42.27-306.16-9.53-306.16-9.53l1.38,25s167.91-6.23,234.69,6.12l29-1.59c19.71-5.39,33.07-10.67,40.61-14A41.42,41.42,0,0,0,1166,455.14Z"/><polygon class="cls-16" points="1165.58 449.83 1172.24 443.45 1190.54 448.45 1184.77 455.78 1165.58 449.83"/><path class="cls-33" d="M1190.56,448.58l-5.63,7.19c-4,31.4-43.94,69.47-58.26,82.21C1198.87,503.89,1191,451.38,1190.56,448.58Z"/><path class="cls-35" d="M779,510.5s160,60.55,369.63-7.81"/><path class="cls-35" d="M784,535.8s140.53,56.93,345.9-2.52"/><path class="cls-35" d="M819.46,485.73l40.07-24.37s134.73-20.46,291,5.7"/><polygon class="cls-16" points="923.12 448.14 964.28 449.88 912.1 493.63 868.48 491.27 923.12 448.14"/><path class="cls-15" d="M924.88,494l40-33.17-.6-11L912.1,493.63C916.6,493.79,920.89,493.93,924.88,494Z"/><path class="cls-15" d="M912.1,493.63l-1.82-.1,0,0Z"/><path class="cls-16" d="M1166.18,460.78h0l-72.82-13L1052,489.05C1115.24,481.25,1152,467.19,1166.18,460.78Z"/><path class="cls-35" d="M1162.15,474.18s-25,57.65-40.05,66.38"/><path class="cls-16" d="M814.49,446.22l.29,6.14a1.88,1.88,0,0,0,2.11,1.69l5.85-1.14,139.4,19.68a15.11,15.11,0,0,0,12.25,11l54.74,7.72,6.63-20.66L973.6,460.18c-5.59-.79-10.18,2.18-11.44,6.92l-140-19.65-5.67-2.4A1.3,1.3,0,0,0,814.49,446.22Z"/><path class="cls-16" d="M1019.91,492.24,956.5,475.63c-5.49-1.35-10.35,1.14-12.08,5.74l-137.37-33.6-5.41-3a1.31,1.31,0,0,0-2.06,1l-.32,6.14a1.86,1.86,0,0,0,1.93,1.89l5.94-.54,136.72,33.55a14.56,14.56,0,0,0,3.67,7.66c3.94,0,6.19,0,6.19,0C977.93,494.62,1000,493.76,1019.91,492.24Z"/><path class="cls-16" d="M1295.92,466.5h-6.84a3.08,3.08,0,0,0-3.08,3.08v5.92h2l2,39h6l2-39h1v-5.92A3.08,3.08,0,0,0,1295.92,466.5Z"/><path class="cls-36" d="M1164.5,462s3.73,6.46,17.86,6.73L1288,475.5s9.5,2.5,10.5.5"/><path class="cls-36" d="M1190.55,464.93c0,.07,3,6.07-10,6.07s-15.57-5.25-15.57-5.25"/><path class="cls-36" d="M1288.05,476.56s6.45,2.44,10.45,1.44"/><path class="cls-36" d="M1287.5,478a22.6,22.6,0,0,0,11,1"/></g></svg>