<svg id="Calque_1" data-name="Calque 1" xmlns="http://www.w3.org/2000/svg" xmlns:xlink="http://www.w3.org/1999/xlink" viewBox="0 0 1920 663"><defs><style>.cls-1,.cls-23{fill:none;}.cls-2{clip-path:url(#clip-path);}.cls-3{fill:#437ec0;}.cls-4{fill:#1b1464;}.cls-24,.cls-5{fill:#fff;}.cls-6{fill:#f5db90;}.cls-7{fill:#e6e6e6;}.cls-8{fill:#999;}.cls-9{fill:#e1817b;}.cls-10{fill:#5e97c7;}.cls-11{opacity:0.85;fill:url(#Dégradé_sans_nom_22);}.cls-12{fill:#f2f2f2;}.cls-13{fill:#fbb03b;}.cls-14{opacity:0.03;}.cls-15{fill:#cb5d65;}.cls-16{opacity:0.65;}.cls-17{opacity:0.15;}.cls-18{fill:#554034;}.cls-19{fill:#755544;}.cls-20{fill:#9a715a;}.cls-21{fill:#bfa389;}.cls-22{fill:#b48d71;}.cls-23{stroke:#9a715a;stroke-linecap:round;stroke-linejoin:round;}.cls-24{opacity:0.5;}</style><clipPath id="clip-path"><rect class="cls-1" y="0.5" width="1920" height="663"/></clipPath><radialGradient id="Dégradé_sans_nom_22" cx="328" cy="175.5" r="184" gradientUnits="userSpaceOnUse"><stop offset="0" stop-color="#f5eab9"/><stop offset="0.24" stop-color="#c9d2bd"/><stop offset="0.6" stop-color="#90b2c2"/><stop offset="0.86" stop-color="#6c9ec6"/><stop offset="1" stop-color="#5e97c7"/></radialGradient></defs><title>Mail Tester_design NEW</title><g class="cls-2"><path class="cls-3" d="M1920,385.64c-6.53-1.56-13.89-1.61-20.91-1.59q-95.77.27-191.55.57Q853.71,387.52,0,399V669.5H1920Z"/><path class="cls-4" d="M1319.08,511.15a10.32,10.32,0,0,0-.53,2.26c-.16,1.25-.83,3.43-3.48.78-3.54-3.54-18.21-19.22-34.9-15.17s-3,16.69-10.12,18.71l-4.55,2s19.73,17.71,38.44,8.6c0,0,6.83-3.79,10.87-9.86,0,0,1-2.53,4-.51s4.05,6.07,7.59,5.57c0,0-5.57-2.53-4-8.6s8.6-8.6,8.6-8.6S1322.33,502.24,1319.08,511.15Z"/><path class="cls-5" d="M1285,528.1s6.07,0,11.13,6.57C1296.1,534.67,1283.46,535.18,1285,528.1Z"/><path class="cls-5" d="M1298.63,505.84s-15.68,8.1-11.13,13.66,10.12,1.52,10.12,1.52-7.08,1-6.07-4.56S1298.63,505.84,1298.63,505.84Z"/><path class="cls-6" d="M1314.11,513.22c-4.75-4.77-18.48-18-33.94-14.2-.66.15-1.26.33-1.83.51h0s8.66-7.85,31.42-1.78c0,0,9.1,1.52,7.08,7.59C1315.71,508.71,1314.75,511.45,1314.11,513.22Z"/><path class="cls-5" d="M1303.94,528.35s6.83-3.79,10.87-9.86c0,0,0-.09.11-.21,1.52,2.14,4.83,8.06-2.13,11.34-5.42,2.54-11,1.68-14.45.69A25.27,25.27,0,0,0,1303.94,528.35Z"/><path class="cls-5" d="M1282.62,529.35a15.09,15.09,0,0,1-3.21,5.83,5.75,5.75,0,0,1,.11-6.94C1280.51,528.64,1281.55,529,1282.62,529.35Z"/><path class="cls-6" d="M1267.2,519c20.09,6.66,15.75-12.65,15.75-12.65,7.85,8.57,1.09,17.39-3.57,21.84a52.53,52.53,0,0,1-13.88-8.44Z"/><path class="cls-5" d="M1318.55,513.41a10.32,10.32,0,0,1,.53-2.26c3.25-8.91,11.92-4.8,11.92-4.8s-7.08,2.53-8.6,8.6,4,8.6,4,8.6c-3.54.5-4.55-3.54-7.59-5.57a4.39,4.39,0,0,0-1.78-.75,4.23,4.23,0,0,0,.14-1.79C1318.13,515.39,1318.45,514.21,1318.55,513.41Z"/><path class="cls-4" d="M1326,505.43a11.27,11.27,0,0,1,5,.92s-7.08,2.53-8.6,8.6,4,8.6,4,8.6c-2.87.41-4.08-2.17-6-4.24C1318.36,512.45,1322.72,507.73,1326,505.43Z"/><circle class="cls-7" cx="1276.63" cy="513.18" r="1.52"/><circle class="cls-4" cx="1275.87" cy="513.18" r="0.76"/><path class="cls-4" d="M1394.08,576.15a10.32,10.32,0,0,0-.53,2.26c-.16,1.25-.83,3.43-3.48.78-3.54-3.54-18.21-19.22-34.9-15.17s-3,16.69-10.12,18.71l-4.55,2s19.73,17.71,38.44,8.6c0,0,6.83-3.79,10.87-9.86,0,0,1-2.53,4-.51s4.05,6.07,7.59,5.57c0,0-5.57-2.53-4-8.6s8.6-8.6,8.6-8.6S1397.33,567.24,1394.08,576.15Z"/><path class="cls-5" d="M1360,593.1s6.07,0,11.13,6.57C1371.1,599.67,1358.46,600.18,1360,593.1Z"/><path class="cls-5" d="M1373.63,570.84s-15.68,8.1-11.13,13.66,10.12,1.52,10.12,1.52-7.08,1-6.07-4.56S1373.63,570.84,1373.63,570.84Z"/><path class="cls-6" d="M1389.11,578.22c-4.75-4.77-18.48-18-33.94-14.2-.66.15-1.26.33-1.83.51h0s8.66-7.85,31.42-1.78c0,0,9.1,1.52,7.08,7.59C1390.71,573.71,1389.75,576.45,1389.11,578.22Z"/><path class="cls-5" d="M1378.94,593.35s6.83-3.79,10.87-9.86c0,0,0-.09.11-.21,1.52,2.14,4.83,8.06-2.13,11.34-5.42,2.54-11,1.68-14.45.69A25.27,25.27,0,0,0,1378.94,593.35Z"/><path class="cls-5" d="M1357.62,594.35a15.09,15.09,0,0,1-3.21,5.83,5.75,5.75,0,0,1,.11-6.94C1355.51,593.64,1356.55,594,1357.62,594.35Z"/><path class="cls-6" d="M1342.2,584c20.09,6.66,15.75-12.65,15.75-12.65,7.85,8.57,1.09,17.39-3.57,21.84a52.53,52.53,0,0,1-13.88-8.44Z"/><path class="cls-5" d="M1393.55,578.41a10.32,10.32,0,0,1,.53-2.26c3.25-8.91,11.92-4.8,11.92-4.8s-7.08,2.53-8.6,8.6,4,8.6,4,8.6c-3.54.5-4.55-3.54-7.59-5.57a4.39,4.39,0,0,0-1.78-.75,4.23,4.23,0,0,0,.14-1.79C1393.13,580.39,1393.45,579.21,1393.55,578.41Z"/><path class="cls-4" d="M1401,570.43a11.27,11.27,0,0,1,5,.92s-7.08,2.53-8.6,8.6,4,8.6,4,8.6c-2.87.41-4.08-2.17-6-4.24C1393.36,577.45,1397.72,572.73,1401,570.43Z"/><circle class="cls-7" cx="1351.63" cy="578.18" r="1.52"/><circle class="cls-4" cx="1350.87" cy="578.18" r="0.76"/><path class="cls-4" d="M1441.08,532.51a9.34,9.34,0,0,0-.44,1.88c-.13,1.05-.69,2.86-2.9.65-2.94-2.94-15.15-16-29-12.62s-2.52,13.88-8.41,15.57l-3.79,1.68s16.41,14.73,32,7.16a29.55,29.55,0,0,0,9-8.21s.84-2.11,3.37-.42,3.37,5,6.31,4.63a6.21,6.21,0,0,1-3.36-7.16c1.26-5,7.15-7.15,7.15-7.15S1443.79,525.1,1441.08,532.51Z"/><path class="cls-5" d="M1412.7,546.62s5,0,9.26,5.47C1422,552.09,1411.44,552.51,1412.7,546.62Z"/><path class="cls-5" d="M1424.07,528.1s-13,6.73-9.26,11.36,8.41,1.26,8.41,1.26-5.89.84-5-3.78S1424.07,528.1,1424.07,528.1Z"/><path class="cls-6" d="M1437,534.24c-4-4-15.38-14.94-28.25-11.82-.54.13-1,.27-1.52.43h0s7.21-6.54,26.14-1.49c0,0,7.58,1.27,5.9,6.32C1438.28,530.48,1437.48,532.76,1437,534.24Z"/><path class="cls-5" d="M1428.48,546.83a29.55,29.55,0,0,0,9-8.21s0-.07.09-.18c1.26,1.78,4,6.71-1.77,9.44a17.24,17.24,0,0,1-12,.58A21.5,21.5,0,0,0,1428.48,546.83Z"/><path class="cls-5" d="M1410.74,547.66a12.54,12.54,0,0,1-2.67,4.85,4.83,4.83,0,0,1,.09-5.78Q1409.41,547.24,1410.74,547.66Z"/><path class="cls-6" d="M1397.92,539c16.71,5.55,13.1-10.52,13.1-10.52,6.54,7.13.91,14.47-3,18.17a43.82,43.82,0,0,1-11.55-7Z"/><path class="cls-5" d="M1440.64,534.39a9.34,9.34,0,0,1,.44-1.88c2.71-7.41,9.92-4,9.92-4s-5.89,2.1-7.15,7.15a6.21,6.21,0,0,0,3.36,7.16c-2.94.42-3.79-3-6.31-4.63a3.62,3.62,0,0,0-1.48-.63,3.79,3.79,0,0,0,.12-1.49C1440.29,536,1440.55,535.06,1440.64,534.39Z"/><path class="cls-4" d="M1446.81,527.75a9.44,9.44,0,0,1,4.19.77s-5.89,2.1-7.15,7.15a6.21,6.21,0,0,0,3.36,7.16c-2.39.34-3.39-1.81-5-3.53C1440.48,533.6,1444.11,529.66,1446.81,527.75Z"/><circle class="cls-7" cx="1405.76" cy="534.2" r="1.26"/><circle class="cls-4" cx="1405.13" cy="534.2" r="0.63"/><path class="cls-8" d="M373.81,518.69s6.58,22.87-1.46,34.12c0,0,21.5-14.44,16.25-41.13S373.81,518.69,373.81,518.69Z"/><path class="cls-8" d="M435.71,512.8c-4.14-.2-10.38-2.49-13.95-3.94a5.54,5.54,0,0,1-3.35-4h0a25.47,25.47,0,0,0-20.06-19.9c-14.37-2.71-33.1,2.28-49.5,9.65-7.25,3.19-9.31.7-9.31.7-8.59-7.57-19.05-6.17-22-5.59a.43.43,0,0,0-.21.74l5.07,4.83c8.38,7.47,1.78,13.18.84,13.92-25.1,16.82-50.62,12.5-50.62,12.5,1.13-16.24-14.76-14.39-14.76-14.39,12.77,14.62-19.54,22.41-19.54,22.41l5.43,3.39c13.83,6.45,24.37-6.86,24.37-6.86,14.11,17.49,35.78,22,35.78,22,47.19,7.6,71.17-11.3,82.28-19.64s28.53-14.39,41.14-9.81S441.78,513.1,435.71,512.8Z"/><path class="cls-7" d="M437.06,519c-10.57-6.08-39-18.41-61.58,8.31-28.32,33.5-106.79-.67-106.79-.67l0,.19c14.12,17,35.26,21.39,35.26,21.39,47.19,7.6,71.17-11.3,82.28-19.64s28.53-14.39,41.14-9.81C432,520.5,435.2,520.16,437.06,519Z"/><path class="cls-8" d="M355.27,526.68s-5.71,28.86-20.91,36.66c0,0,31.79-3.69,41.12-36S355.27,526.68,355.27,526.68Z"/><circle class="cls-4" cx="407.5" cy="504" r="1.5"/><path class="cls-9" d="M606.28,564s13.41-7.73,24.07-1.19C630.35,562.82,623.14,571.64,606.28,564Z"/><polygon class="cls-4" points="600.68 562.29 601.43 567.83 606.28 564.01 600.68 562.29"/><path class="cls-9" d="M622.32,572.83s15.57-8.85,28.1-1.08C650.42,571.75,642.12,582,622.32,572.83Z"/><polygon class="cls-4" points="615.76 570.76 616.7 577.23 622.32 572.83 615.76 570.76"/><path class="cls-9" d="M583.26,583.09s13.41-7.73,24.06-1.19C607.32,581.9,600.12,590.72,583.26,583.09Z"/><polygon class="cls-4" points="577.66 581.37 578.41 586.91 583.26 583.09 577.66 581.37"/><path class="cls-9" d="M616.06,585.4s13.4-7.73,24.06-1.19C640.12,584.21,632.92,593,616.06,585.4Z"/><polygon class="cls-4" points="610.46 583.68 611.21 589.22 616.06 585.4 610.46 583.68"/><path class="cls-9" d="M594.06,595.8s13.41-7.73,24.07-1.18C618.13,594.62,610.92,603.44,594.06,595.8Z"/><polygon class="cls-4" points="588.46 594.08 589.21 599.63 594.06 595.8 588.46 594.08"/><path class="cls-9" d="M655.2,604.54s13.41-7.73,24.06-1.19C679.26,603.35,672.06,612.17,655.2,604.54Z"/><polygon class="cls-4" points="649.6 602.82 650.35 608.36 655.2 604.54 649.6 602.82"/><path class="cls-9" d="M603.67,620.26s13.41-7.73,24.06-1.19C627.73,619.07,620.53,627.89,603.67,620.26Z"/><polygon class="cls-4" points="598.07 618.54 598.82 624.08 603.67 620.26 598.07 618.54"/><path class="cls-9" d="M630.53,596.79s13.41-7.73,24.07-1.18C654.6,595.61,647.39,604.42,630.53,596.79Z"/><polygon class="cls-4" points="624.93 595.07 625.68 600.61 630.53 596.79 624.93 595.07"/><path class="cls-9" d="M608.45,607.32s14.36-8.15,25.94-1C634.39,606.36,626.74,615.76,608.45,607.32Z"/><polygon class="cls-4" points="602.38 605.39 603.26 611.37 608.45 607.32 602.38 605.39"/><path class="cls-9" d="M571.64,606.33s12.11-6.65,22.17-.27C593.81,606.06,587.46,613.93,571.64,606.33Z"/><polygon class="cls-4" points="566.41 604.56 567.29 609.69 571.64 606.34 566.41 604.56"/><path class="cls-9" d="M430.64,598.33s12.11-6.65,22.17-.27C452.81,598.06,446.46,605.93,430.64,598.33Z"/><polygon class="cls-4" points="425.41 596.56 426.29 601.69 430.64 598.34 425.41 596.56"/><path class="cls-9" d="M571.64,569.65s12.11-6.65,22.17-.27C593.81,569.38,587.46,577.25,571.64,569.65Z"/><polygon class="cls-4" points="566.41 567.88 567.29 573 571.64 569.65 566.41 567.88"/><path class="cls-9" d="M408.64,612.65s12.11-6.65,22.17-.27C430.81,612.38,424.46,620.25,408.64,612.65Z"/><polygon class="cls-4" points="403.41 610.88 404.29 616 408.64 612.65 403.41 610.88"/><path class="cls-9" d="M642.38,615.07s12.12-6.66,22.18-.28C664.56,614.79,658.21,622.66,642.38,615.07Z"/><polygon class="cls-4" points="637.15 613.29 638.03 618.42 642.38 615.07 637.15 613.29"/><path class="cls-9" d="M653.73,586.25s12.12-6.66,22.18-.28C675.91,586,669.56,593.84,653.73,586.25Z"/><polygon class="cls-4" points="648.5 584.47 649.38 589.6 653.73 586.25 648.5 584.47"/><rect class="cls-10" y="-0.5" width="1920" height="407"/><circle class="cls-11" cx="328" cy="175.5" r="184"/><path class="cls-12" d="M1145,244.9s37.33-3.73,54.76,14.93c0,0,39.82-23.64,57.24-21.15,0,0-12.44,12.44-34.84,14.93l-18.67,12.45s14.93-6.23,18.67-5,2.48,6.22,2.48,6.22l3.74,7.47-8.71-6.23a56.9,56.9,0,0,1-18.67,6.23c-10,1.24-16.18,0-21.16,3.73,0,0-2.48-6.22-7.46-7.47l12.44-2.49s5-6.22-10-10S1151.22,253.61,1145,244.9Z"/><path d="M1153.58,244.6c-5.19,0-8.58.3-8.58.3,4.28,6,9.74,8.45,17.6,10.62C1154.5,251.45,1153,247.5,1153.58,244.6Z"/><path d="M1250.41,238.77c-4.89,4.15-15.58,12.13-28.25,14.84,22.4-2.49,34.84-14.93,34.84-14.93A24.85,24.85,0,0,0,1250.41,238.77Z"/><path d="M1183.64,276.59c2.63,2.49,6.41.58,8.82-1.15A37,37,0,0,0,1183.64,276.59Z"/><path class="cls-13" d="M1224.71,267l-4.45,2,8.12,5.8-3.74-7.47Z"/><path class="cls-12" d="M1182,148.36s18.57,11.43,24.29,12.85,8.57,12.86,5.71,22.86-11.43,8.57-11.43,8.57,4.29-11.43-2.86-18.57S1182,155.5,1182,148.36Z"/><path class="cls-12" d="M1189.14,191.21l1.43,4.29s21.43-1.43,25.72,0c0,0,7.14,1.43,8.57,0a8.83,8.83,0,0,0-2.86-5.71c-2.86-2.86,2.86-7.15,8.57-7.15S1242,169.79,1242,169.79a118.21,118.21,0,0,0-20,5.71c-11.43,4.29-14.29,12.86-18.57,14.29S1189.14,191.21,1189.14,191.21Z"/><path d="M1230.57,182.64c5.72,0,11.43-12.85,11.43-12.85s-.83.13-2.32.45C1237.91,173.87,1233.83,181.56,1230.57,182.64Z"/><path d="M1193.11,169.07a31.7,31.7,0,0,0-4-9.28,31.23,31.23,0,0,1-4-9.55c-1.9-1.13-3.12-1.88-3.12-1.88C1182,154,1187.35,162.3,1193.11,169.07Z"/><path d="M1195.59,195.22l.7.28c5,2,7.22.48,8.08-.6C1201.25,195,1198.1,195.09,1195.59,195.22Z"/><polygon class="cls-13" points="1224.52 193.78 1226.29 195.5 1224.86 195.5 1224.52 193.78"/><path class="cls-7" d="M749.67,242.3a14.27,14.27,0,0,0-6.09,1.37,16.13,16.13,0,0,0-14.8-9.73,16.35,16.35,0,0,0-2,.13,17.37,17.37,0,0,0,.2-2.52,17.83,17.83,0,0,0-22.06-17.4,25,25,0,0,0-24.5-30.35,25.16,25.16,0,0,0-6.18.79,40.59,40.59,0,0,0-73.39,4.68,20.22,20.22,0,0,0-25.49,19.6,20.48,20.48,0,0,0,.59,4.8c-.2,0-.39,0-.59,0a20.3,20.3,0,0,0-20.3,20.3c0,.41,0,.82.06,1.23-.22,0-.43,0-.66,0a20.85,20.85,0,0,0-16.07,7.55,32.09,32.09,0,0,0-17.95-5.16c-14.51,0-26.27,8.55-26.27,19.1s11.76,19.1,26.27,19.1a31.77,31.77,0,0,0,18.61-5.62,20.85,20.85,0,0,0,34.85-6.45,27.47,27.47,0,0,0,48.85,3.57,38.18,38.18,0,0,0,55.52-5,24.44,24.44,0,0,0,42.64,1.88,16.08,16.08,0,0,0,16.34-.37,14.32,14.32,0,1,0,12.41-21.45Z"/><path class="cls-12" d="M756.39,244a14.29,14.29,0,0,0-12.81-.3,16.13,16.13,0,0,0-14.8-9.73,16.35,16.35,0,0,0-2,.13,17.37,17.37,0,0,0,.2-2.52,17.83,17.83,0,0,0-22.06-17.4,25,25,0,0,0-24.5-30.35,25.16,25.16,0,0,0-6.18.79,40.59,40.59,0,0,0-73.39,4.68,20.22,20.22,0,0,0-25.49,19.6,20.48,20.48,0,0,0,.59,4.8c-.2,0-.39,0-.59,0a20.3,20.3,0,0,0-20.3,20.3c0,.41,0,.82.06,1.23-.22,0-.43,0-.66,0a20.85,20.85,0,0,0-16.07,7.55,32.09,32.09,0,0,0-17.95-5.16c-11.42,0-21.14,5.3-24.75,12.71a50.15,50.15,0,0,0,24.15,5.8c11.48,0,21.74-3.38,28.52-8.67a18.48,18.48,0,0,0,32.29-10.63A52.49,52.49,0,0,0,658,241.08a29.25,29.25,0,0,0,45.45,5.22A29.25,29.25,0,0,0,756.39,244Z"/><path class="cls-12" d="M501.94,217.27a5,5,0,0,0-7.09-5.28,8,8,0,1,0-9.54,9.33,7.81,7.81,0,0,0-.31,2.18,8,8,0,0,0,16,0,8.09,8.09,0,0,0-.7-3.27A5,5,0,0,0,501.94,217.27Z"/><path class="cls-12" d="M1436.5,170.5a7.5,7.5,0,0,0-7.5,7.5,7.61,7.61,0,0,0,.07,1,4.94,4.94,0,0,0-2.07-.46,5,5,0,1,0,5,5.46,7.5,7.5,0,1,0,4.55-13.46Z"/><path class="cls-7" d="M764.5,164.5a14.46,14.46,0,0,0-11.4,5.56,8.88,8.88,0,0,0-3.1-.56,9,9,0,1,0,2.5,17.64,14.5,14.5,0,1,0,12-22.64Z"/><path class="cls-12" d="M764.5,164.5a14.46,14.46,0,0,0-11.4,5.56,8.88,8.88,0,0,0-3.1-.56,9,9,0,0,0-8.42,12.17,15.45,15.45,0,0,0,16.11,1.05,15.48,15.48,0,0,0,17.5,6.05A14.48,14.48,0,0,0,764.5,164.5Z"/><path class="cls-7" d="M1295.42,267.09A25.92,25.92,0,0,1,1321.27,243l1.08,0a32.92,32.92,0,1,1,65-9.74,25.91,25.91,0,0,1,38.83,22.09A23,23,0,0,1,1445,266.72a12.91,12.91,0,0,1,10.28,6.34,18,18,0,0,1,10.29-3.15c9.15,0,16.57,6.52,16.57,14.55S1474.76,299,1465.61,299a17.64,17.64,0,0,1-12-4.57,8.9,8.9,0,0,1-14,2,23,23,0,0,1-31.31-2.43,14.79,14.79,0,0,1-24.61,3,37.84,37.84,0,0,1-59.73-2.25,24.73,24.73,0,0,1-2.6.13,25.84,25.84,0,0,1-12.5-3.21,14.81,14.81,0,1,1-13.35-24.56Z"/><path class="cls-12" d="M1303.87,280.12a19.76,19.76,0,0,1-20.85,1.23,14.79,14.79,0,0,1,12.4-14.26A25.92,25.92,0,0,1,1321.27,243l1.08,0a32.92,32.92,0,1,1,65-9.74,25.91,25.91,0,0,1,38.83,22.09A23,23,0,0,1,1445,266.72a12.91,12.91,0,0,1,10.28,6.34,18,18,0,0,1,10.29-3.15c9.15,0,16.57,6.52,16.57,14.55a13,13,0,0,1-.44,3.32,22.63,22.63,0,0,1-29.6-5.15,22.63,22.63,0,0,1-39.76-9.07,22.63,22.63,0,0,1-30.84-14,35,35,0,0,1-52.54,23.2,22.62,22.62,0,0,1-25.13-2.64Z"/><g class="cls-14"><polygon class="cls-5" points="282.64 1076.5 321.85 180.23 361.05 1076.5 282.64 1076.5"/><polygon class="cls-5" points="361.05 -761.5 321.85 134.78 282.64 -761.5 361.05 -761.5"/><polygon class="cls-5" points="92.36 1048.25 317.12 179.73 169.05 1064.56 92.36 1048.25"/><polygon class="cls-5" points="551.34 -733.25 326.57 135.27 474.64 -749.56 551.34 -733.25"/><polygon class="cls-5" points="-87.89 981.04 312.6 178.26 -16.26 1012.94 -87.89 981.04"/><polygon class="cls-5" points="731.58 -666.04 331.09 136.74 659.96 -697.94 731.58 -666.04"/><polygon class="cls-5" points="-250.21 877.81 308.49 175.88 -186.79 923.91 -250.21 877.81"/><polygon class="cls-5" points="893.91 -562.81 335.21 139.12 830.49 -608.91 893.91 -562.81"/><polygon class="cls-5" points="-387.52 743.08 304.96 172.7 -335.07 801.36 -387.52 743.08"/><polygon class="cls-5" points="1031.21 -428.08 338.74 142.3 978.77 -486.36 1031.21 -428.08"/><polygon class="cls-5" points="-493.8 582.73 302.16 168.86 -454.62 650.65 -493.8 582.73"/><polygon class="cls-5" points="1137.49 -267.73 341.53 146.15 1098.32 -335.65 1137.49 -267.73"/><polygon class="cls-5" points="-564.4 403.79 300.23 164.51 -540.21 478.37 -564.4 403.79"/><polygon class="cls-5" points="1208.1 -88.79 343.46 150.49 1183.9 -163.37 1208.1 -88.79"/><polygon class="cls-5" points="-596.25 214.07 299.25 159.86 -588.09 292.06 -596.25 214.07"/><polygon class="cls-5" points="1987 -3.5 344.45 155.14 1926 -94.5 1987 -3.5"/><polygon class="cls-5" points="-587.94 21.88 299.25 155.11 -596.18 99.86 -587.94 21.88"/><polygon class="cls-5" points="2045 393.5 344.45 159.89 2063 182.5 2045 393.5"/><polygon class="cls-5" points="-539.83 -164.38 300.24 150.46 -564.11 -89.82 -539.83 -164.38"/><polygon class="cls-5" points="1916 623.5 343.45 164.54 1935 515.5 1916 623.5"/><polygon class="cls-5" points="-454.04 -336.56 302.18 146.12 -493.3 -268.68 -454.04 -336.56"/><polygon class="cls-5" points="1329.74 714.55 341.52 168.88 1530 718.5 1329.74 714.55"/><polygon class="cls-5" points="-334.32 -487.13 304.97 142.28 -386.83 -428.9 -334.32 -487.13"/><polygon class="cls-5" points="978.01 802.13 338.72 172.72 1030.53 743.9 978.01 802.13"/><polygon class="cls-5" points="-185.89 -609.51 308.51 139.1 -249.37 -563.48 -185.89 -609.51"/><polygon class="cls-5" points="829.59 924.51 335.19 175.9 893.07 878.48 829.59 924.51"/><polygon class="cls-5" points="-15.26 -698.34 312.63 136.73 -86.92 -666.52 -15.26 -698.34"/><polygon class="cls-5" points="658.96 1013.34 331.07 178.27 730.62 981.52 658.96 1013.34"/><polygon class="cls-5" points="170.11 -749.74 317.15 135.26 93.4 -733.52 170.11 -749.74"/><polygon class="cls-5" points="473.58 1064.73 326.55 179.73 550.3 1048.52 473.58 1064.73"/></g><path class="cls-15" d="M1619.1,464.87a7.76,7.76,0,0,1,.63,4.88,7.51,7.51,0,0,0-.29,1.81c.11,2.33,3.34,4.18,2.42,6.34-.36.82-1.3,1.48-1.18,2.36s1.29,1.36,1.55,2.23c.52,1.73-2.7,2.63-2.75,4.44,0,1,1,1.85.84,2.84-.21,1.38-2.47,2-2.27,3.37.14,1,1.55,1.53,1.52,2.53s-1.21,1.4-1.31,2.28c-.13,1.09,1.43,1.83,1.36,2.92,0,.72-.76,1.2-1.35,1.65s-1.14,1.24-.74,1.85c.24.38.74.52,1.09.8,1.38,1.12-.14,3.62,1.07,4.92a1.71,1.71,0,0,0,2.45-.11c1-1.29-.4-3.57.89-4.62.31-.25.71-.36,1-.61.88-.74.43-2.14-.26-3s-1.63-1.82-1.55-2.94,1.25-2,1.76-3a3,3,0,0,0-.6-3.41c-.32-.31-.73-.59-.8-1-.18-1.1,1.8-1.27,2.3-2.28.41-.83-.36-1.75-.39-2.66s.83-1.93.5-2.87c-.23-.66-1-1.11-1-1.8-.09-1.42,2.58-1.46,3-2.81s-1.89-2.5-1.62-3.95c.21-1.17,1.9-1.47,2.54-2.49.8-1.29-.42-3.08.29-4.42.28-.52.81-.89,1-1.43a1.93,1.93,0,0,0-.62-2.14,4.24,4.24,0,0,0-2.24-.87,8.94,8.94,0,0,0-6.15,1.47"/><path class="cls-15" d="M1633.68,466.27c-1.29,1.14-2.69,2.86-1.78,4.3.46.72,1.41,1.1,1.75,1.88.45,1-.33,2.11-1,3s-1.34,2.12-.67,3c.37.5,1,.72,1.4,1.23.62.91-.1,2.09-.75,3s-1.24,2.19-.44,3c.24.23.57.37.82.59.86.78.39,2.17-.27,3.11s-1.49,2-1.18,3.08,1.39,1.58,1.55,2.57c.21,1.38-1.52,2.79-.76,4,.17.28.46.48.64.76.94,1.46-1.79,2.92-1.64,4.63.1,1.09,1.37,1.89,1.28,3s-1.83,2.26-1.15,3.29a5.35,5.35,0,0,0,.69.65c.8.85.23,2.18.29,3.32a3.11,3.11,0,0,0,2.47,2.76c.7-1.46-.24-3.46.9-4.63.53-.54,1.45-.81,1.58-1.54.19-1-1.4-1.58-1.69-2.6-.34-1.22,1.29-2.15,1.45-3.41.19-1.57-2-2.67-1.92-4.25,0-1.17,1.26-2,1.45-3.17s-.85-2.54-.4-3.74,1.87-1.71,1.69-2.82c-.11-.67-.81-1.11-1-1.75-.48-1.36,1.34-2.56,1.35-4,0-1.11-1.07-2.08-.89-3.17.24-1.41,2.42-2.14,2.21-3.55-.13-.93-1.31-1.51-1.36-2.45s1.27-1.74,1.24-2.77-1.67-1.77-1.58-2.89c0-.59.56-1,.88-1.53a2.52,2.52,0,0,0-.89-3.39,2.74,2.74,0,0,0-3.53.87"/><path class="cls-15" d="M1643.67,466.3a2.93,2.93,0,0,0-.76,3.57c.34.64.94,1.22.9,1.94-.08,1.6-3.07,2-3,3.56,0,1,1.21,1.5,1.55,2.41.69,1.8-2.17,3.32-2,5.23.12,1,1.12,1.85,1.07,2.89-.07,1.2-1.57,2.16-1.23,3.32.22.75,1.13,1.15,1.38,1.89.47,1.44-1.78,2.5-1.81,4,.47.88,2,.8,2.46,1.69.59,1.19-1.42,2.46-.92,3.68.31.78,1.44,1,1.8,1.73.68,1.39-1.78,3.1-.76,4.28.43.5,1.36.63,1.45,1.27.06.43-.33.78-.63,1.11a2.94,2.94,0,0,0,.07,4.06c1.16,1,3.39.55,3.8-.89s-.63-2.9.28-3.91c.42-.46,1.15-.63,1.45-1.17.41-.72-.18-1.59-.85-2.1s-1.48-1-1.71-1.74c-.42-1.37,1.18-2.49,1.64-3.85.52-1.52-.47-3.13-1.66-4.25a3.06,3.06,0,0,1-1-1.19c-.49-1.48,1.67-2.66,1.71-4.21s-2-2.65-1.76-4.17c.14-.9,1-1.48,1.61-2.22a3.4,3.4,0,0,0,.25-3.67c-.31-.55-.79-1.08-.75-1.7.07-.85,1-1.33,1.45-2.09.66-1.23-.37-2.65-1.38-3.64a1.77,1.77,0,0,1-.59-.83c-.15-.71.61-1.25,1.11-1.8a2.56,2.56,0,0,0,.08-3.37,2.18,2.18,0,0,0-3.28.23"/><path class="cls-9" d="M1614.92,465.19a6.22,6.22,0,0,1-6.34.45,3.7,3.7,0,0,1-1.64-1.56c-.72-1.5.17-3.23,1-4.67a59.8,59.8,0,0,0,3.85-7.13c.79-1.83,1.41-3.74,2.33-5.52,3.43-6.63,10.83-10.74,18.4-12.14a16,16,0,0,1,5.72-.22,18.62,18.62,0,0,1,5.91,2.52,19.35,19.35,0,0,1,5.3,4.07c1.69,2,2.48,4.6,3.33,7.07a32.09,32.09,0,0,0,4.36,9c1,1.27,2.15,2.56,2.23,4.14.1,2.22-2.21,4-4.52,4.21a6.85,6.85,0,0,0-2.22.31,6.34,6.34,0,0,0-1.28.91,7.34,7.34,0,0,1-7,1,2.21,2.21,0,0,0-.82-.21,2,2,0,0,0-1.11.6,6.66,6.66,0,0,1-7.4.38,2,2,0,0,0-.94-.4,1.65,1.65,0,0,0-.74.21,10.62,10.62,0,0,1-4.67,1.14,4.63,4.63,0,0,1-4-2.23,12.22,12.22,0,0,1-5.86,1.52c-2-.15-4.12-1.63-4.17-3.59"/><g class="cls-16"><path class="cls-9" d="M1611.14,465.18c.21,2.11,1.17,4.07,1.73,6.12s.67,4.41-.67,6.09a7.67,7.67,0,0,1-2,1.66c-2.77,1.75-5.86,3-8.68,4.7s-5.45,4-6.6,7a16.06,16.06,0,0,0-.81,5.56,30.55,30.55,0,0,0,2.1,12.6c1.89,4.35,5.21,8,8.47,11.47-3.72-4.65-7.16-9.71-8.48-15.44s-.19-12.27,4.19-16.36a22.92,22.92,0,0,1,5.06-3.38c2.58-1.37,5.36-2.65,7.18-4.88a11.17,11.17,0,0,0,2.31-7.24,22.31,22.31,0,0,0-1.68-7.51c-.21-.55-.5-1.16-1.09-1.32s-1.26.62-.79,1"/></g><g class="cls-16"><path class="cls-9" d="M1613,463.7c1,4.06,4.15,7.6,4.1,11.77,0,2.61-1.33,5-2.7,7.3-4.28,7.07-9.65,14.14-9.88,22.33-.15,5.2,1.85,10.26,4.42,14.84s5.77,8.84,8.28,13.45c-1.75-4.95-4.57-9.48-6.75-14.27s-3.72-10.09-2.71-15.23c1.18-6,5.61-10.85,8.57-16.26a25.68,25.68,0,0,0,3.36-11.15,16.51,16.51,0,0,0-3.39-11,5.58,5.58,0,0,0-3.34-2.27"/></g><g class="cls-16"><path class="cls-9" d="M1625,464.88a21.86,21.86,0,0,1,2,17.06c-.85,2.83-2.27,5.48-3.37,8.23a39,39,0,0,0-1.61,23.91c1.41,5.6,4.05,10.83,6.14,16.23a86.26,86.26,0,0,1,4.26,14.72,27.81,27.81,0,0,0-1.15-9.7c-2.76-10.43-7.95-20.66-6.92-31.37.76-7.94,4.91-15.25,6.21-23.12a33,33,0,0,0-.29-12.25,6.18,6.18,0,0,0-1.33-3,2.63,2.63,0,0,0-3.14-.63"/></g><g class="cls-16"><path class="cls-9" d="M1636.72,465.72a17.77,17.77,0,0,1,.65,10.34c-.67,3.45-1.91,6.76-2.81,10.15a54.54,54.54,0,0,0-.5,26c.9,3.95,2.24,7.83,2.52,11.86a46.22,46.22,0,0,1-.51,8.71l-1.45,11.69c1.5-2.46,1.84-5.39,2.1-8.23q.48-5.29.7-10.6a42.65,42.65,0,0,0-.21-7.91c-.36-2.49-1.11-4.9-1.55-7.38a82,82,0,0,1,.55-22.92c1.49-6.74,5.27-13.3,4.16-20.1a3.15,3.15,0,0,0-.83-1.91,1.39,1.39,0,0,0-1.94,0"/></g><g class="cls-16"><path class="cls-9" d="M1652.22,462c1.52.38,1.62,2.41,1.38,3.91l-1.25,8a19.26,19.26,0,0,0-.29,6.55c.82,4.49,4.59,7.84,7.94,11.06s6.72,7.2,6.37,11.75a14.83,14.83,0,0,1-2.07,5.79c-2.15,4-4.73,7.74-6.38,11.92s-2.32,9-.54,13.08c-2.52-4.83-1.74-10.64-.17-15.83s3.88-10.25,4.3-15.65a8.43,8.43,0,0,0-.7-4.66,14.53,14.53,0,0,0-3.42-3.54,23.54,23.54,0,0,1-7.44-15.09,34.45,34.45,0,0,1,2.78-16.69"/></g><g class="cls-16"><path class="cls-9" d="M1648.5,466.13c-3.25,7.45-6.58,15.34-5.49,23.36,1,7.76,6.17,14.71,6.51,22.53.18,4.15-1,8.23-2,12.28a111.88,111.88,0,0,0-2.21,12.69c-.31,2.74-.47,5.71,1.09,8-.4-12.65,5.82-25.07,4-37.61-1.18-8.41-5.93-16.4-5-24.84.62-5.85,3.93-11.37,3.49-17.23"/></g><g class="cls-17"><path class="cls-5" d="M-30.79,453v12c51.11-6.66,335.2-8,335.2-8,43.59-1.33,97.7,17.32,237.49,17.32S776.39,465,776.39,465c90.19,10.66,205.93,4,264.55,4s228.48-12,228.48-12c33.07,9.32,127.77,12,159.33,8s64.64,2.67,93.2,5.33S1654.22,465,1654.22,465c11.76,4.34,32.46,6.42,70,7l-124.84,7s-160.84-7-199.92-8-263,4-263,4-44.34,10.5-3.75,17.5c33.72,5.82,96.48,5.42,116.75,5.12,37.1,10.12,98.19,16.88,149.3,18.88,44.71,1.75,112.13-3,128.31-4.22a241.56,241.56,0,0,0,43,3.22L1891,514s-308.9-.5-329.94-1.5-120.25-16-120.25-16l130,.5c48.1,1,299.12,1,299.12,1-49.6,0-248-16-248-16l170-10.21,8.12-.12c88.68-1.33,157.83,9.33,157.83,9.33l-7.52-8c-37.78-3.78-79.33-4.54-118.92-4.55L1812.8,467l-29.91,1.68c-51.8.33-95,.29-113.63-6.33C1631.68,449,1567,443.69,1567,443.69c109.73-8,386.31,5.33,386.31,5.33l3-5.33-148.81-8-60.12-13.32,219.46-17.32-237.5,14.65s-302.13-13.32-393.82-9.32S1126.62,429,1126.62,429s-91.69-18.65-144.3-17.32-187.89,18.65-187.89,18.65L678.69,413.05l154.82,33.31s-99.2,0-148.81,4S608,449,608,449c-111.23-30.64-306.64-41.3-306.64-41.3,66.14,12,303.64,46.63,303.64,46.63l-293.12-2.66L121,454.35c91.69-10.66,136.78-41.3,136.78-41.3-5,2.16-10.51,4.2-16.4,6.14C142.43,401.25-33.8,429-33.8,429v8l72.15,13.33ZM1123.62,486.5s-6-9,37.58-8,221-2,221-2-63.14,17-79.67,17S1144.66,499.5,1123.62,486.5Zm389.31,23,1.67.38c-17,1.16-69.85,4.62-94.87,4.62-30.06,0-85.67-5-85.67-5-36.4-4.46-56.48-9.17-66.28-12h158S1482.87,502.5,1512.93,509.5Zm120.25-20s-260,5-308.14,4c0,0,61.63-15,91.69-15S1588.09,481.5,1633.18,489.5ZM1643.7,461s-81.17,13.33-129.27,4-93.19-8-117.24-4-118.75-6.66-118.75-6.66l118.75-10.66h156.32C1567,443.69,1609.13,461,1643.7,461Zm136.79-25.31s-303.64,4-321.67,4c0,0,67.64-21.32,94.69-21.32S1742.91,419.71,1780.49,435.7Zm-269.06-17.32s-67.65,24-99.21,21.32S1289,422.38,1289,422.38,1418.23,410.39,1511.43,418.38Zm-237.5,4,99.21,17.32s-210.44,25.31-306.64,20C1066.5,459.68,1122.11,434.37,1273.93,422.38ZM1098.06,435.7l-40.58,20s-160.84-1.34-210.44-20C847,435.7,985.33,393.06,1098.06,435.7ZM976.31,461s-121.75,13.33-234.49-5.32C741.82,455.69,901.15,446.36,976.31,461Zm-296.12-4c33.07,0,72.15,6.66,72.15,6.66-57.12,10.66-199.91,4-260,5.33S360,457,360,457ZM-25.39,431.61c84.58-16,238.58-12.74,265.56-12C177,440,70.73,447.69,48.88,447.69,30.44,447.69-8.3,436.73-25.39,431.61Z"/><path class="cls-5" d="M1281.45,579.78c52.61,1.33,144.3-17.32,144.3-17.32s117.24,14.66,208.93,18.65,393.82-9.32,393.82-9.32L2266,586.44l-219.46-17.32,60.13-13.32,148.81-8-3-5.33s-276.58,13.32-386.3,5.33c0,0,64.63-5.33,102.21-18.66s174.36,0,281.09-10.66l7.51-8s-69.14,10.66-157.83,9.33-127.76,0-145.8,6.66c0,0-103.72-8-132.28-5.33s-61.63,9.33-93.19,5.33-126.27-1.33-159.33,8c0,0-169.86-12-228.48-12-32,0-80.86-2-133.35-2-47.43-32.11-233-46.93-285.27-44.94-52.61,2-169.86,5-192.44,8L415.64,482a241.56,241.56,0,0,0-43.05,3.22c-16.18-1.21-83.6-6-128.31-4.22-51.1,2-112.2,8.76-149.29,18.88-20.28-.3-83-.7-116.76,5.12C-62.36,512-18,522.5-18,522.5s224,5,263,4,199.92-8,199.92-8l210.4,11.83c-6.3.83-12.21,1.58-17.8,2.22-22.12,2.51-41.31,11.6-52.15,24.67-3.48,4.2-6.2,7.28-6.67,7.28,0,0,0,.06,0,.09-11.84-1.12-24.71-1.83-38.31-1.83-64.63,0-144.3,10.66-168.35,14.65s-98.46,4.67-98.46,4.67c-87.18-44-300.62-48-300.62-48l.24,11.35c16.23.1,56.39.54,74.16,2.64,0,0-49.27,9.53-73.81,13.88l.16,7.44c18,8,255.53,21.32,255.53,21.32l172.86,6.66c92.59,0,186-10.27,228-15.57,58.87-4.28,192.35-16,277-39.35,0,0,27.05-5.33,76.66-1.34s148.81,4,148.81,4l-226.51,60.8c-4.94.07-9.64.11-14,.11-58.62,0-228.47,12-228.47,12-33.07-9.33-127.77-12-159.33-8s-64.64-2.66-93.2-5.33S278.86,610,278.86,610c-18-6.66-57.12-8-145.81-6.66s-157.83-9.32-157.83-9.32l7.52,8c106.72,10.66,243.51-2.66,281.08,10.66S366,631.36,366,631.36C256.31,639.36-20.27,626-20.27,626l-3,5.33,148.82,8,60.12,13.32L-33.8,670l237.5-14.66s302.13,13.33,393.82,9.33S806.46,646,806.46,646s91.69,18.65,144.3,17.32,187.89-18.65,187.89-18.65L1254.39,662,1099.57,628.7s99.2,0,148.81-4S1325,626,1325,626c111.23,30.65,306.64,41.31,306.64,41.31-66.14-12-303.64-46.64-303.64-46.64l293.11,2.67,190.9-2.67C1720.36,631.36,1675.27,662,1675.27,662c5-2.17,10.51-4.21,16.4-6.14,99,17.94,275.21-9.85,275.21-9.85v-8l-72.15-13.32,69.14-2.66V610c-51.11,6.67-335.2,8-335.2,8-43.59,1.33-97.7-17.32-237.49-17.32S1156.69,610,1156.69,610c-81.63-9.64-184.18-5.1-246.37-4.15l190-39.39S1228.84,578.45,1281.45,579.78ZM112,580.08C12.8,574.75-21.77,566.76-21.77,566.76L62.4,548.1s150.32,8,205.93,33.31C268.33,581.41,211.21,585.41,112,580.08Zm1476.08-11s91.69-14.65,123.25-17.32,99.21,21.32,99.21,21.32C1717.36,581.11,1588.09,569.12,1588.09,569.12Zm491.52-13.32c-37.58,16-199.92,17.32-227,17.32s-94.7-21.32-94.7-21.32C1776,551.8,2079.61,555.8,2079.61,555.8Zm-383.3-25.31c24,4,69.15,5.32,117.25-4s129.27,4,129.27,4c-34.58,0-76.66,17.32-90.19,17.32H1696.31l-118.75-10.66S1672.26,526.49,1696.31,530.49Zm-24,21.31-99.21,17.32c-151.81-12-207.43-37.3-207.43-37.3C1461.82,526.49,1672.26,551.8,1672.26,551.8Zm-315.66-16,40.59,20c-112.74,42.64-251,0-251,0C1195.77,537.15,1356.6,535.81,1356.6,535.81Zm-150.4-15.37c-43.68-.05-89.8,1.22-130.68,6,0,0-76.22-7.51-192.83-9,15.68-6.81,78.83-32.05,154.79-33C1129.45,490.64,1196,516.33,1206.2,520.44Zm-399-36.94c105.22-8,102.21-4,211.94,0l2.62.11c-33.72.31-92.34,5.5-140,33.82q-19.62-.25-40.71-.27c-54,0-95.19,2.79-127.95,6.12,1.6-6.14,6.28-23.44,9.95-30.78C727.54,483.5,807.21,483.5,807.21,483.5ZM406.62,485c19.05-.91,273.85-1.4,322.08-1.49-8.8,1.3-13.17,8.17-15.24,16-24,0-251.52.05-297.07,1l-130,.5S385.58,486,406.62,485Zm-227,3s55.61-5,85.68-5c25,0,77.82,3.46,94.86,4.62l-1.67.38c-30.06,7-87.18,12-87.18,12h-158C123.17,497.17,143.25,492.46,179.65,488ZM6.79,519c-43.59,1-37.58-8-37.58-8,21-13,162.34-7,178.87-7s79.67,17,79.67,17S50.38,518,6.79,519Zm255.53,0c-30.06,0-91.69-15-91.69-15,48.1-1,308.14,4,308.14,4C433.68,516,292.38,519,262.32,519Zm205.18-3.5s193.19-15.58,246-16c-2.4,9.1-1.69,19.48-1.22,23.86-14.29,1.47-27,3-38.4,4.52Zm117.33,49.71-2.41-.26C583.69,564.83,584.79,564.78,584.83,565.21ZM581,570.75s-57.12,4-79.67,1.34C501.32,572.09,547.92,565.42,581,570.75ZM369,582.74s163.84-10.65,216.45,0C585.49,582.74,445.7,602.73,369,582.74Zm275.87-6.41A396.75,396.75,0,0,0,585,565.23l4.42-4.32c13.55-13.23,35.93-21.23,60-21.45l254.74-2.31S738,561.39,644.91,576.33Zm334.41-41.85H659.15s72.15-13.32,132.27-12,202.93-5.33,260.05,5.33C1051.47,527.82,1012.39,534.48,979.32,534.48Zm61.62,1.33c112.74-18.65,234.49-5.32,234.49-5.32C1200.28,545.14,1040.94,535.81,1040.94,535.81Zm917.53,107.63c-84.58,16-238.58,12.74-265.56,12,63.21-20.39,169.44-28.1,191.29-28.1C1902.64,627.36,1941.38,638.32,1958.47,643.44ZM289.38,614s81.17-13.32,129.27-4,93.19,8,117.24,4,118.75,6.66,118.75,6.66L535.89,631.36H379.57C366,631.36,324,614,289.38,614ZM152.59,639.36s303.63-4,321.67-4c0,0-67.64,21.32-94.69,21.32S190.17,655.34,152.59,639.36Zm269.06,17.32s67.64-24,99.21-21.32,123.26,17.32,123.26,17.32S514.85,664.67,421.65,656.68Zm237.5-4-99.21-17.32s210.44-25.32,306.64-20C866.58,615.37,811,640.69,659.15,652.68Zm781.63-46.63c60.12-1.34,132.27,12,132.27,12H1252.89c-33.07,0-72.15-6.66-72.15-6.66C1237.86,600.72,1380.65,607.38,1440.78,606.05Zm-249.52,13.32S1031.93,628.7,956.77,614C956.77,614,1078.52,600.72,1191.26,619.37Zm-105.22,20s-138.29,42.63-251,0l40.58-20S1036.44,620.7,1086,639.36Z"/></g><path class="cls-18" d="M1138.67,432.89a14.7,14.7,0,0,1-1.94-4.86L1009.45,372.9l-4.64-3.89a1.61,1.61,0,0,0-2.52.61l-2.54,6.08a1.6,1.6,0,0,0,1.36,2.22l6.45.5,129.71,56.3C1137.74,434.11,1138.19,433.49,1138.67,432.89Z"/><path class="cls-19" d="M768.8,450.64l14.84,66.62s50.13,34.85,149.18,26.22,182-24.74,238.86-103.68c0,0,12.87-21.33-23.63-30.12s-160.89-39.83-312.49,2.88Z"/><path class="cls-20" d="M1153.54,430.56s18.82-5.11,10.41-14.73a54.4,54.4,0,0,0-15.9-6.15c-36.5-8.79-160.89-39.83-312.49,2.88L768.8,450.64S991.81,492.44,1153.54,430.56Z"/><path class="cls-21" d="M796.19,448l55.44-34.3s172.4-36.57,302.42,4.68c0,0-62.91,37.79-210.82,40.52C943.23,458.93,825.29,461.27,796.19,448Z"/><path class="cls-19" d="M830.91,455.26l22.58-17.47-1.86-24.06L796.19,448C803.38,451.3,816,453.62,830.91,455.26Z"/><path class="cls-19" d="M1153,404.94l17.77,4.43s11.21,52.67-60.3,88.07c0,0,42.17-59.56,36.24-86.2Z"/><path class="cls-22" d="M1147.28,416.35c-129.15-37.94-295.65-2.62-295.65-2.62l1.86,24.06s161.9-9.62,226.61.87l28-2.17a274.89,274.89,0,0,0,38.88-14.41A39.47,39.47,0,0,0,1147.28,416.35Z"/><polygon class="cls-18" points="1146.72 411.24 1153.01 404.94 1170.78 409.37 1165.37 416.57 1146.72 411.24"/><path class="cls-20" d="M1170.8,409.49l-5.27,7.07c-3.21,30.38-40.92,68-54.46,80.58C1180,462.7,1171.32,412.19,1170.8,409.49Z"/><path class="cls-23" d="M774.92,478.09s155.75,55,356.53-15.47"/><path class="cls-23" d="M780.33,502.4s136.83,51.92,333.74-9.86"/><path class="cls-23" d="M813.48,453.32l38.15-24.39s129.57-22.62,280.95-.74"/><polygon class="cls-18" points="912.71 414.82 952.46 415.61 903.05 458.95 860.9 457.61 912.71 414.82"/><path class="cls-19" d="M915.39,459.07l37.89-32.87-.82-10.59L903.05,459C907.39,459,911.54,459.05,915.39,459.07Z"/><path class="cls-19" d="M903.05,459l-1.76-.05,0,0Z"/><path class="cls-18" d="M1147.54,421.79h0l-70.56-11-39,40.71C1098.81,442.64,1134,428.28,1147.54,421.79Z"/><path class="cls-23" d="M1143.93,434.81s-22.86,56.17-37.22,64.92"/><path class="cls-18" d="M933.68,415.94l-5,4.25a1.61,1.61,0,0,0,.2,2.6l5.53,3.38,91.57,111.27a12.61,12.61,0,0,0,.09,15.91l32.1,38.3L1081.44,581l-36-43.7a12.59,12.59,0,0,0-14.83-3.5L938.56,422.12l-2.36-5.58A1.6,1.6,0,0,0,933.68,415.94Z"/><path class="cls-3" d="M1048.27,589.55s29.45-3.26,36.36-13.51L1093,586.5l-14,6-9,2-11.54,1Z"/><path class="cls-24" d="M1058.57,591.48s20.27,0,25.1-9.65C1083.67,581.83,1072.08,591.48,1058.57,591.48Z"/><path class="cls-24" d="M1061.57,594.48s20.27,0,25.1-9.65C1086.67,584.83,1075.08,594.48,1061.57,594.48Z"/></g></svg>