<svg id="Calque_1" data-name="Calque 1" xmlns="http://www.w3.org/2000/svg" xmlns:xlink="http://www.w3.org/1999/xlink" viewBox="0 0 1920 663"><defs><style>.cls-1,.cls-18{fill:none;}.cls-2{clip-path:url(#clip-path);}.cls-3{fill:#284060;}.cls-4{fill:#31537c;}.cls-5{fill:#eaf9fe;}.cls-6{fill:#426895;}.cls-7{fill:#554034;}.cls-8{fill:#59677a;}.cls-9{fill:#4c5968;}.cls-10{fill:#f2f2f2;}.cls-11{fill:#16213b;}.cls-12{opacity:0.3;}.cls-13{fill:#fff;}.cls-14{fill:#755544;}.cls-15{fill:#9a715a;}.cls-16{fill:#bfa389;}.cls-17{fill:#b48d71;}.cls-18{stroke:#9a715a;stroke-linecap:round;stroke-linejoin:round;}.cls-19{fill:#add5ff;}.cls-20,.cls-23{fill:#404e63;}.cls-20,.cls-22{opacity:0.5;}.cls-21{fill:#f5eab9;}</style><clipPath id="clip-path"><rect class="cls-1" y="0.5" width="1920" height="663"/></clipPath></defs><title>Mail Tester_design NEW</title><g class="cls-2"><rect class="cls-3" y="-5.5" width="1923" height="647"/><path class="cls-4" d="M1921.19,453.92a48.37,48.37,0,0,1-41.83-12.41c-19.42-17.92-43.32,4.48-58.26-10.45s-55.27-64.24-85.15-29.88S1474,522.5,1474,522.5l287.35,207.33h159.84V463.92"/><ellipse class="cls-5" cx="1847.4" cy="509.71" rx="17.03" ry="8.2"/><ellipse class="cls-5" cx="1882.09" cy="536.2" rx="11.35" ry="5.68"/><path class="cls-6" d="M1736,401.18c24-27.55,54.64-1.31,73.56,17.87l4.12,16.49s7.47,38.84-23.9,28.38-50.79,52.37-12,88.18c19.72,18.19-17.57,23.28-59,23.9A94.17,94.17,0,0,1,1661,557.29l-96-71.79S1706.08,435.54,1736,401.18Z"/><path class="cls-5" d="M1736,401.18c29.88-34.36,70.21,14.94,85.15,29.88s38.84-7.47,58.26,10.45a48.37,48.37,0,0,0,41.83,12.41v33.13c-6.3,4.47-14.31,5.88-23.9-3.71-20.91-20.91-10.46-37.35-35.85-32.86s-41.83,3-50.79-6-12-41.83-31.38-28.38-13.44,25.39-43.32,37.34-62.64,31.37-90,42c-64,25-143.25,22.6-149,30l-16-24S1706.08,435.54,1736,401.18Z"/><path class="cls-7" d="M1471.83,640.35l6.15,6a2.1,2.1,0,0,0,3.36-.57l3.73-7.6,133.67-132.64a16.47,16.47,0,0,0,20.68-2l52.5-52.1-40-6.84-35.73,35.57a16.46,16.46,0,0,0-2.76,19.72L1479.29,633.25l-7,3.75A2.1,2.1,0,0,0,1471.83,640.35Z"/><path class="cls-8" d="M471.81,84.47a6,6,0,0,0-5-6.81,5.9,5.9,0,0,0-3.47.51A9.54,9.54,0,1,0,452,89.3,9.54,9.54,0,1,0,469.85,88,5.88,5.88,0,0,0,471.81,84.47Z"/><path class="cls-8" d="M1508.68,300.82a6,6,0,0,0-.19-10.54,9.53,9.53,0,1,0-15.77-2.18,9.83,9.83,0,0,0-2.28,1.3,9.54,9.54,0,0,0,11.68,15.08,9.44,9.44,0,0,0,2.57-3.05A5.9,5.9,0,0,0,1508.68,300.82Z"/><path class="cls-9" d="M1290.09,257.24A33.42,33.42,0,0,0,1262.81,268a20.59,20.59,0,0,0-7-1.86,20.8,20.8,0,1,0-3.31,41.46,20.52,20.52,0,0,0,5.83-.37,33.5,33.5,0,1,0,31.79-49.94Z"/><path class="cls-8" d="M1290.09,257.24A33.42,33.42,0,0,0,1262.81,268a20.59,20.59,0,0,0-7-1.86,20.74,20.74,0,0,0-21.62,26.48,35.69,35.69,0,0,0,36.9,5.39,35.82,35.82,0,0,0,39.2,17.15,33.46,33.46,0,0,0-20.17-57.87Z"/><path class="cls-10" d="M1426.16,229.5l-17.72,53.41,14.93,37.39-5.6,11.75-39.18,25.63-7.46-9.61s-23.24,32.6-23.74,32.32,23.74-22.71,23.74-22.71l8.39,7.48,43.85-26.7,8.39-15L1415,284l16.79-54.48Z"/><path class="cls-9" d="M1273,164.09a52.27,52.27,0,0,1,52.12-48.55c.73,0,1.45,0,2.17.06a66.37,66.37,0,1,1,131.09-19.66,52.25,52.25,0,0,1,78.27,44.54,46.45,46.45,0,0,1,38,22.86,26,26,0,0,1,20.73,12.79,36.23,36.23,0,0,1,20.73-6.36c18.45,0,33.42,13.14,33.42,29.34s-15,29.35-33.42,29.35a35.61,35.61,0,0,1-24.27-9.22,17.92,17.92,0,0,1-28.32,4,46.41,46.41,0,0,1-63.11-4.9,29.81,29.81,0,0,1-49.62,6,76.27,76.27,0,0,1-120.4-4.53c-1.72.17-3.47.26-5.24.26a52,52,0,0,1-25.21-6.48,29.84,29.84,0,1,1-26.91-49.5Z"/><path class="cls-8" d="M1290.07,190.36a39.85,39.85,0,0,1-42,2.47,29.83,29.83,0,0,1,25-28.74,52.27,52.27,0,0,1,52.12-48.55c.73,0,1.45,0,2.17.06a66.37,66.37,0,1,1,131.09-19.66,52.25,52.25,0,0,1,78.27,44.54,46.45,46.45,0,0,1,38,22.86,26,26,0,0,1,20.73,12.79,36.23,36.23,0,0,1,20.73-6.36c18.45,0,33.42,13.14,33.42,29.34a25.94,25.94,0,0,1-.91,6.68A45.59,45.59,0,0,1,1589,195.41a45.61,45.61,0,0,1-80.15-18.28,45.64,45.64,0,0,1-62.18-28.22,70.53,70.53,0,0,1-105.91,46.77,45.65,45.65,0,0,1-50.65-5.32Z"/><path class="cls-10" d="M489,251.21l7.77,20.08,12.21,8.09,2.36,9-4.65,8.33-8.34-4.64-13.07,8.46,2.06,10.15-5.76,8-2.37,22.14-15,6.74s-7.61,1.55-8.73,1.24-7.27,13.63-7.27,13.63l8.91-10.79,9.84-.94,15.61-9,4.09-24.07,4.86-4.69.9-3.35-1.84-6.49,8.81-6,9.46,4.95L516.57,291l-3.39-14.1-12.72-10.62-7.56-16.43Z"/><path class="cls-9" d="M639.3,231.89a17.44,17.44,0,0,0-7.43,1.67,19.63,19.63,0,0,0-18-11.85,19.29,19.29,0,0,0-2.42.16,22.3,22.3,0,0,0,.24-3.07,21.76,21.76,0,0,0-26.88-21.21,30.46,30.46,0,0,0-37.38-36,49.46,49.46,0,0,0-89.43,5.7,24.4,24.4,0,0,0-6.32-.85,24.73,24.73,0,0,0-24.73,24.73,25.06,25.06,0,0,0,.72,5.85l-.72,0a24.73,24.73,0,0,0-24.73,24.73c0,.5,0,1,.07,1.49-.27,0-.53,0-.8,0a25.4,25.4,0,0,0-19.59,9.2A39.06,39.06,0,0,0,360,226.07c-17.67,0-32,10.42-32,23.27s14.33,23.28,32,23.28c8.87,0,16.89-2.62,22.68-6.86a25.41,25.41,0,0,0,42.46-7.86,33.47,33.47,0,0,0,59.53,4.35,46.52,46.52,0,0,0,67.64-6.06,29.77,29.77,0,0,0,52,2.29,19.55,19.55,0,0,0,19.91-.46,17.45,17.45,0,1,0,15.13-26.13Z"/><path class="cls-8" d="M647.48,233.93a17.39,17.39,0,0,0-15.61-.37,19.63,19.63,0,0,0-18-11.85,19.29,19.29,0,0,0-2.42.16,22.3,22.3,0,0,0,.24-3.07,21.76,21.76,0,0,0-26.88-21.21,30.46,30.46,0,0,0-37.38-36,49.46,49.46,0,0,0-89.43,5.7,24.4,24.4,0,0,0-6.32-.85,24.73,24.73,0,0,0-24.73,24.73,25.06,25.06,0,0,0,.72,5.85l-.72,0a24.73,24.73,0,0,0-24.73,24.73c0,.5,0,1,.07,1.49-.27,0-.53,0-.8,0a25.4,25.4,0,0,0-19.59,9.2A39.06,39.06,0,0,0,360,226.07c-13.91,0-25.75,6.46-30.16,15.48,7.9,4.4,18.18,7.07,29.44,7.07,14,0,26.48-4.11,34.75-10.56a22.51,22.51,0,0,0,39.33-12.95,64,64,0,0,0,94.26,5.3A35.64,35.64,0,0,0,583,236.77a35.64,35.64,0,0,0,64.49-2.84Z"/><path class="cls-4" d="M1255.33,518.48s-70.31,34.13-141-15.27S988.57,389.69,927.89,391.78s-79.52-10-118.89-33.19-99.77-67-141-15.26-67,75.5-109.46,81.2-61,33.53-92.25,36.33-70.94-3.43-143.56,23.3S-38,440.48-38,440.48L-7,662.82,1236.14,737.5Z"/><path class="cls-6" d="M1245.78,627.52,1201.33,639l-129.69-38.4s58.54-49.76,17.62-58.48-61.18-7.63-61.81-30.67-41.94-13.63-41.94-13.63-30,63.39-66.48,70.69S839.94,597,839.94,597s-48.8-35.62-17.75-50.53,25.42-49.17-19.23-37.57S626.44,521.55,677.39,480.1s92.76-26.62,77.38-56.67-69.9-27.56-7.42-46.48c31.45-9.52,13.4-33.61-12.27-55.2,26.55,6.67,53.16,24.64,73.92,36.84,39.37,23.15,58.22,35.27,118.89,33.19s115.81,62,186.47,111.43,141,15.27,141,15.27Z"/><path class="cls-6" d="M322.76,484.16c47.16-17.36,80.4-20.81,106.49-21.87-10.23,14-18.43,24.64-22.79,29.15-20.92,21.63-4.77,44.47-37.48,46S293.12,556,293.12,556l-53.81-42.76L232.82,490C262.15,494.21,294.67,494.49,322.76,484.16Z"/><path class="cls-5" d="M1114.36,503.21c-70.66-49.4-125.79-113.52-186.47-111.43s-79.52-10-118.89-33.19-99.77-67-141-15.26-67,75.5-109.46,81.2-61,33.53-92.25,36.33-70.94-3.43-143.56,23.3S-25,428.47-25,428.47l9,52.36L210.39,583.32a264,264,0,0,0,114.5,16.29c26.79-2.15,50.66-8.08,50.84-22.37.16-13.36,0-33.56,21.23-42.23,26.9-6.49,35.4-1.08,73.62-13,45.51-14.18,13.25-49.93,45.44-54.89,33.1-5.1,26.31-28.54,55.56-26.62s2.94,30.45-33.89,41.35S496.25,507,526.26,516.22s11.16,11.62-29.52,29.53S468,524.51,421.83,536l-1.37.35a36.07,36.07,0,0,0-10.52,4.56c-3.45,5.3-3.79,11.26.93,17.11,6.25,7.73,18.33,11.64,29.94,11.19,15.05-.58,28.82-6.52,43.36-9,5.4-.92,12.3-1.75,18.37-1,14.38-4.46,29.55-7.3,45.24-6,7.35.61,16,3.05,21.25-2.28,4.88-5,6.23-11.48,11.39-16.41,4.49-4.31,15.75-7.74,17.29-13.35C598.62,518,596,514,596,510.59a15.58,15.58,0,0,1,2.95-8.83c3.14-4.55,8.34-7.36,14.31-9.45,4.27-1.5,9.42-2.38,9.73-6.59.23-3.19-1.71-6.28-1.44-9.53a2.91,2.91,0,0,1,0-.31c-2.22-8.27.22-16.82,3.93-25.35a85.81,85.81,0,0,0,6.27-23c1-7.09,2.22-14.68,7.7-20.68a24,24,0,0,1,4-3.44c0-.13.05-.26.08-.39a17.2,17.2,0,0,1,2.41-5.67c-5.47-13.16,19.77-7.83,24.09-21.84,4.75-15.42,15.78-17.12,52.61-28s40.78,24.45,66.17,33.37c7.33,2.58,15.09,3.46,22,4,11.95-1.14,31.88-1.71,31.77,10.32-.05,5.92-7.73,10.39-12.86,14.08-2.13,1.54-4.35,3-6.41,4.61-1.11,14.93,20.83,21.52,50.36,13.71,36.69-9.7,26.42,13.83,34.23,42.18s-13.35,23.33-52.48,26.83,6,16.12,40.4,13.53,43-25,25-60.09S909.6,425.08,948,414.27s22.7,5.11,32.31,31.16,40.15,1.41,42.84,19.74-12.45.4-31.05,14.92-4.5,13-22.2,19.12-20.28,15.62-19,32.65-1.81,16.83-40,26.43S850.75,597,850.75,597l27.81,22.92s44.44-45.08,64.59-59.5,39.38-5.89,27.59-26,31.57-34.25,69.16-52.36,39.38,8.62,50.67,19,28.2,26.05,55.65,30.27,32.2,3.31,51.44,11.83c13.38,5.93,40.94-4.21,56.47-10.93l38.4-23.28S1185,552.61,1114.36,503.21Z"/><ellipse class="cls-5" cx="767.45" cy="464.2" rx="4.23" ry="13.11" transform="translate(257.74 1202.21) rotate(-86.54)"/><ellipse class="cls-5" cx="803.44" cy="446.58" rx="4.83" ry="13.11" transform="translate(310.46 1222.42) rotate(-86.63)"/><ellipse class="cls-5" cx="784.53" cy="427.8" rx="3.02" ry="7.71" transform="translate(312.17 1186.33) rotate(-86.69)"/><ellipse class="cls-5" cx="730.92" cy="407.35" rx="3.02" ry="10.8" transform="translate(279.25 1111.74) rotate(-86.46)"/><ellipse class="cls-5" cx="827.73" cy="480.24" rx="1.81" ry="5.4" transform="translate(298.73 1277.69) rotate(-86.56)"/><ellipse class="cls-5" cx="731.77" cy="493.34" rx="3.02" ry="10.03" transform="translate(194.66 1193.61) rotate(-86.5)"/><ellipse class="cls-5" cx="520.27" cy="565.73" rx="2.42" ry="7.71" transform="translate(-76 1050.69) rotate(-86.52)"/><path class="cls-11" d="M318.54,488.81s80.93,16.19,89,116.54l-109.48,32.4S355.77,540.6,318.54,488.81Z"/><g class="cls-12"><path class="cls-13" d="M86,156.2q4.17-7.41,8.66-14.62c3-4.81,6-9.57,9.13-14.31s6.26-9.43,9.49-14.07,6.54-9.25,10-13.76q-4.16,7.41-8.65,14.62c-3,4.81-6,9.57-9.13,14.31s-6.26,9.42-9.5,14.07S89.45,151.68,86,156.2Z"/></g><g class="cls-12"><path class="cls-13" d="M4,215.57q4.17-7.42,8.66-14.62c3-4.82,6-9.57,9.12-14.31s6.26-9.43,9.5-14.07,6.53-9.25,10-13.77q-4.17,7.42-8.66,14.62c-3,4.82-6,9.57-9.12,14.31S17.2,197.16,14,201.8,7.43,211.05,4,215.57Z"/></g><g class="cls-12"><path class="cls-13" d="M144,60q4.17-7.42,8.66-14.62c3-4.82,6-9.57,9.12-14.31s6.26-9.43,9.49-14.08,6.54-9.24,10-13.76q-4.17,7.41-8.66,14.62c-3,4.82-6,9.57-9.13,14.31S157.2,41.6,154,46.24,147.43,55.49,144,60Z"/></g><g class="cls-12"><path class="cls-13" d="M193.5,156.2q4.17-7.41,8.66-14.62c3-4.81,6-9.57,9.13-14.31s6.26-9.43,9.49-14.07,6.54-9.25,10-13.76q-4.16,7.41-8.65,14.62c-3,4.81-6,9.57-9.13,14.31s-6.26,9.42-9.5,14.07S196.93,151.68,193.5,156.2Z"/></g><g class="cls-12"><path class="cls-13" d="M377.92,158.45q4.17-7.41,8.66-14.62c3-4.82,6-9.57,9.12-14.31s6.26-9.43,9.5-14.07,6.53-9.25,10-13.76Q411,109.1,406.5,116.3c-3,4.82-6,9.58-9.13,14.32s-6.25,9.42-9.49,14.07S381.35,153.93,377.92,158.45Z"/></g><g class="cls-12"><path class="cls-13" d="M337.92,276.45q4.17-7.41,8.66-14.62c3-4.82,6-9.57,9.12-14.31s6.26-9.43,9.5-14.07,6.53-9.25,10-13.76Q371,227.1,366.5,234.3c-3,4.82-6,9.58-9.13,14.32s-6.25,9.42-9.49,14.07S341.35,271.93,337.92,276.45Z"/></g><g class="cls-12"><path class="cls-13" d="M472.38,214.1q4.17-7.42,8.66-14.62c3-4.82,6-9.57,9.13-14.31s6.25-9.43,9.49-14.08,6.53-9.24,10-13.76Q505.45,164.76,501,172c-3,4.82-6,9.57-9.12,14.31s-6.26,9.43-9.5,14.07S475.81,209.58,472.38,214.1Z"/></g><g class="cls-12"><path class="cls-13" d="M596,136.44q4.17-7.42,8.66-14.62c3-4.82,6-9.57,9.13-14.31s6.25-9.43,9.49-14.07,6.53-9.25,10-13.77q-4.17,7.42-8.66,14.62c-3,4.82-6,9.57-9.12,14.31S609.2,118,606,122.67,599.43,131.92,596,136.44Z"/></g><g class="cls-12"><path class="cls-13" d="M609.05,224.37q4.17-7.41,8.66-14.61c3-4.82,6-9.57,9.12-14.32s6.26-9.42,9.5-14.07,6.53-9.24,10-13.76q-4.17,7.41-8.66,14.62c-3,4.82-6,9.57-9.13,14.31S622.24,206,619,210.61,612.47,219.86,609.05,224.37Z"/></g><g class="cls-12"><path class="cls-13" d="M506.55,303.18q4.17-7.43,8.66-14.62c3-4.82,6-9.57,9.12-14.31s6.26-9.43,9.5-14.08,6.53-9.24,10-13.76q-4.17,7.41-8.66,14.62c-3,4.82-6,9.57-9.13,14.31s-6.26,9.43-9.49,14.07S510,298.66,506.55,303.18Z"/></g><g class="cls-12"><path class="cls-13" d="M692.91,90.18q4.17-7.41,8.66-14.61c3-4.82,6-9.57,9.13-14.32s6.25-9.42,9.49-14.07,6.53-9.24,10-13.76Q726,40.83,721.49,48c-3,4.82-6,9.57-9.12,14.31s-6.26,9.43-9.5,14.07S696.34,85.67,692.91,90.18Z"/></g><g class="cls-12"><path class="cls-13" d="M717.76,217.52q4.17-7.41,8.66-14.62c3-4.81,6-9.57,9.12-14.31s6.26-9.43,9.5-14.07,6.53-9.25,10-13.76q-4.17,7.41-8.66,14.62c-3,4.81-6,9.57-9.12,14.31s-6.26,9.42-9.5,14.07S721.19,213,717.76,217.52Z"/></g><g class="cls-12"><path class="cls-13" d="M910.76,369.52q4.17-7.41,8.66-14.62c3-4.81,6-9.57,9.12-14.31s6.26-9.43,9.5-14.07,6.53-9.25,10-13.76q-4.17,7.41-8.66,14.62c-3,4.81-6,9.57-9.12,14.31s-6.26,9.42-9.5,14.07S914.19,365,910.76,369.52Z"/></g><g class="cls-12"><path class="cls-13" d="M966.76,197.52q4.17-7.41,8.66-14.62c3-4.81,6-9.57,9.12-14.31s6.26-9.43,9.5-14.07,6.53-9.25,10-13.76q-4.17,7.41-8.66,14.62c-3,4.81-6,9.57-9.12,14.31s-6.26,9.42-9.5,14.07S970.19,193,966.76,197.52Z"/></g><g class="cls-12"><path class="cls-13" d="M1125.76,99.52q4.17-7.41,8.66-14.62c3-4.81,6-9.57,9.12-14.31s6.26-9.43,9.5-14.07,6.53-9.25,10-13.76q-4.17,7.41-8.66,14.62c-3,4.81-6,9.57-9.12,14.31s-6.26,9.42-9.5,14.07S1129.19,95,1125.76,99.52Z"/></g><g class="cls-12"><path class="cls-13" d="M1118.76,214.52q4.17-7.41,8.66-14.62c3-4.81,6-9.57,9.12-14.31s6.26-9.43,9.5-14.07,6.53-9.25,10-13.76q-4.17,7.41-8.66,14.62c-3,4.81-6,9.57-9.12,14.31s-6.26,9.42-9.5,14.07S1122.19,210,1118.76,214.52Z"/></g><g class="cls-12"><path class="cls-13" d="M818.76,264.52q4.17-7.41,8.66-14.62c3-4.81,6-9.57,9.12-14.31s6.26-9.43,9.5-14.07,6.53-9.25,10-13.76q-4.17,7.41-8.66,14.62c-3,4.81-6,9.57-9.12,14.31s-6.26,9.42-9.5,14.07S822.19,260,818.76,264.52Z"/></g><g class="cls-12"><path class="cls-13" d="M653.77,304.89q4.17-7.41,8.66-14.62c3-4.82,6-9.57,9.13-14.31s6.26-9.43,9.49-14.07,6.54-9.25,10-13.77q-4.17,7.42-8.66,14.62c-3,4.82-6,9.57-9.13,14.31s-6.26,9.43-9.5,14.07S657.2,300.37,653.77,304.89Z"/></g><g class="cls-12"><path class="cls-13" d="M356.17,70.79q4.17-7.41,8.66-14.62c3-4.82,6-9.57,9.12-14.31s6.26-9.43,9.5-14.07,6.53-9.25,10-13.77q-4.17,7.43-8.66,14.62c-3,4.82-6,9.58-9.13,14.32s-6.25,9.42-9.49,14.06S359.59,66.27,356.17,70.79Z"/></g><g class="cls-12"><path class="cls-13" d="M279.36,136.76q4.17-7.42,8.66-14.62c3-4.82,6-9.57,9.13-14.31s6.25-9.43,9.49-14.08,6.53-9.24,10-13.76q-4.17,7.42-8.66,14.62c-3,4.82-6,9.57-9.12,14.31s-6.26,9.43-9.5,14.07S282.79,132.24,279.36,136.76Z"/></g><g class="cls-12"><path class="cls-13" d="M135.05,202.13q4.17-7.41,8.66-14.61c3-4.82,6-9.58,9.12-14.32s6.26-9.42,9.5-14.07,6.53-9.24,10-13.76q-4.17,7.41-8.66,14.62c-3,4.82-6,9.57-9.12,14.31s-6.26,9.43-9.5,14.07S138.48,197.62,135.05,202.13Z"/></g><g class="cls-12"><path class="cls-13" d="M25.68,88.17q4.17-7.41,8.66-14.62c3-4.81,6-9.57,9.13-14.31S49.73,49.81,53,45.17s6.54-9.25,10-13.76Q58.76,38.82,54.27,46c-3,4.81-6,9.57-9.13,14.31s-6.26,9.42-9.5,14.07S29.11,83.65,25.68,88.17Z"/></g><g class="cls-12"><path class="cls-13" d="M198.69,93.37q4.17-7.41,8.66-14.62c3-4.81,6-9.57,9.12-14.31S222.73,55,226,50.37s6.53-9.25,10-13.76q-4.17,7.41-8.66,14.62c-3,4.81-6,9.57-9.12,14.31s-6.26,9.42-9.5,14.07S202.12,88.85,198.69,93.37Z"/></g><g class="cls-12"><path class="cls-13" d="M162,327.82q4.17-7.43,8.66-14.62c3-4.82,6-9.57,9.13-14.32s6.25-9.42,9.49-14.07,6.53-9.24,10-13.76q-4.17,7.41-8.66,14.62c-3,4.82-6,9.57-9.12,14.31s-6.26,9.43-9.5,14.07S165.45,323.3,162,327.82Z"/></g><g class="cls-12"><path class="cls-13" d="M391.25,359.22q4.17-7.41,8.66-14.62c3-4.81,6-9.57,9.12-14.31s6.26-9.43,9.5-14.07,6.53-9.25,10-13.76q-4.17,7.41-8.66,14.62c-3,4.81-6,9.57-9.13,14.31s-6.25,9.42-9.49,14.07S394.68,354.7,391.25,359.22Z"/></g><g class="cls-12"><path class="cls-13" d="M683.22,369.5q4.17-7.41,8.66-14.62c3-4.82,6-9.57,9.12-14.31s6.26-9.43,9.5-14.07,6.53-9.25,10-13.76q-4.17,7.41-8.66,14.61c-3,4.82-6,9.58-9.13,14.32s-6.26,9.42-9.49,14.07S686.64,365,683.22,369.5Z"/></g><g class="cls-12"><path class="cls-13" d="M974,430.44q4.17-7.43,8.66-14.62c3-4.82,6-9.57,9.13-14.31s6.25-9.43,9.49-14.07,6.53-9.25,10-13.77q-4.17,7.43-8.66,14.62c-3,4.82-6,9.57-9.12,14.31S987.2,412,984,416.67,977.43,425.92,974,430.44Z"/></g><g class="cls-12"><path class="cls-13" d="M987.05,518.37q4.17-7.41,8.66-14.61c3-4.82,6-9.57,9.12-14.32s6.26-9.42,9.5-14.07,6.53-9.24,10-13.76q-4.17,7.41-8.66,14.62c-3,4.82-6,9.57-9.13,14.31s-6.26,9.43-9.49,14.07S990.47,513.86,987.05,518.37Z"/></g><g class="cls-12"><path class="cls-13" d="M884.55,597.18q4.17-7.42,8.66-14.62c3-4.82,6-9.57,9.12-14.31s6.26-9.43,9.5-14.08,6.53-9.24,10-13.76q-4.17,7.41-8.66,14.62c-3,4.82-6,9.57-9.13,14.31s-6.26,9.43-9.49,14.07S888,592.66,884.55,597.18Z"/></g><g class="cls-12"><path class="cls-13" d="M1070.91,384.18q4.17-7.41,8.66-14.61c3-4.82,6-9.57,9.13-14.32s6.25-9.42,9.49-14.07,6.53-9.24,10-13.76q-4.17,7.41-8.66,14.62c-3,4.82-6,9.57-9.12,14.31s-6.26,9.43-9.5,14.07S1074.34,379.67,1070.91,384.18Z"/></g><g class="cls-12"><path class="cls-13" d="M822,119.44q4.17-7.43,8.66-14.62c3-4.82,6-9.57,9.13-14.31s6.25-9.43,9.49-14.07,6.53-9.25,10-13.77q-4.17,7.42-8.66,14.62c-3,4.82-6,9.57-9.12,14.31S835.2,101,832,105.67,825.43,114.92,822,119.44Z"/></g><g class="cls-12"><path class="cls-13" d="M918.91,73.18q4.17-7.41,8.66-14.61c3-4.82,6-9.57,9.13-14.32s6.25-9.42,9.49-14.07,6.53-9.24,10-13.76Q952,23.83,947.49,31c-3,4.82-6,9.57-9.12,14.31s-6.26,9.43-9.5,14.07S922.34,68.67,918.91,73.18Z"/></g><g class="cls-12"><path class="cls-13" d="M1095.76,511.52q4.17-7.41,8.66-14.62c3-4.81,6-9.57,9.12-14.31s6.26-9.43,9.5-14.07,6.53-9.25,10-13.76q-4.17,7.41-8.66,14.62c-3,4.81-6,9.57-9.12,14.31s-6.26,9.42-9.5,14.07S1099.19,507,1095.76,511.52Z"/></g><g class="cls-12"><path class="cls-13" d="M1031.77,598.89q4.17-7.41,8.66-14.62c3-4.82,6-9.57,9.13-14.31s6.26-9.43,9.49-14.07,6.54-9.25,10-13.77q-4.17,7.43-8.66,14.62c-3,4.82-6,9.57-9.13,14.31s-6.26,9.43-9.5,14.07S1035.2,594.37,1031.77,598.89Z"/></g><g class="cls-12"><path class="cls-13" d="M1061.22,663.5q4.17-7.41,8.66-14.62c3-4.82,6-9.57,9.12-14.31s6.26-9.43,9.5-14.07,6.53-9.25,10-13.76q-4.17,7.41-8.66,14.61c-3,4.82-6,9.58-9.13,14.32s-6.26,9.42-9.49,14.07S1064.64,659,1061.22,663.5Z"/></g><g class="cls-12"><path class="cls-13" d="M43.7,356q4.17-7.41,8.66-14.62c3-4.81,6-9.57,9.12-14.31S67.74,317.62,71,313s6.53-9.25,10-13.76q-4.17,7.41-8.66,14.62c-3,4.81-6,9.57-9.12,14.31s-6.26,9.42-9.5,14.07S47.13,351.46,43.7,356Z"/></g><g class="cls-12"><path class="cls-13" d="M216.7,361.18q4.17-7.41,8.66-14.62c3-4.81,6-9.57,9.13-14.31s6.26-9.43,9.49-14.07,6.54-9.25,10-13.76q-4.17,7.41-8.66,14.62c-3,4.81-6,9.57-9.13,14.31s-6.26,9.42-9.5,14.07S220.13,356.66,216.7,361.18Z"/></g><g class="cls-12"><path class="cls-13" d="M473.05,81.67q4.17-7.41,8.66-14.62c3-4.81,6-9.57,9.12-14.31s6.26-9.43,9.49-14.07,6.54-9.25,10-13.76q-4.17,7.41-8.66,14.62c-3,4.81-6,9.57-9.13,14.31s-6.26,9.42-9.49,14.07S476.47,77.15,473.05,81.67Z"/></g><g class="cls-12"><path class="cls-13" d="M166.11,252.18q4.17-7.41,8.66-14.62c3-4.81,6-9.57,9.12-14.31s6.26-9.43,9.5-14.07,6.53-9.25,10-13.76q-4.17,7.41-8.66,14.62c-3,4.81-6,9.57-9.12,14.31s-6.26,9.42-9.5,14.07S169.54,247.66,166.11,252.18Z"/></g><g class="cls-12"><path class="cls-13" d="M192.92,511.45q4.17-7.41,8.66-14.62c3-4.82,6-9.57,9.12-14.31s6.26-9.43,9.5-14.07,6.53-9.25,10-13.76Q226,462.1,221.5,469.3c-3,4.82-6,9.58-9.13,14.32s-6.25,9.42-9.49,14.07S196.35,506.93,192.92,511.45Z"/></g><g class="cls-12"><path class="cls-13" d="M327.38,449.1q4.17-7.43,8.66-14.62c3-4.82,6-9.57,9.13-14.31s6.25-9.43,9.49-14.08,6.53-9.24,10-13.76Q360.45,399.76,356,407c-3,4.82-6,9.57-9.12,14.31s-6.26,9.43-9.5,14.07S330.81,444.58,327.38,449.1Z"/></g><g class="cls-12"><path class="cls-13" d="M361.55,538.18q4.17-7.42,8.66-14.62c3-4.82,6-9.57,9.12-14.31s6.26-9.43,9.5-14.08,6.53-9.24,10-13.76q-4.17,7.41-8.66,14.62c-3,4.82-6,9.57-9.13,14.31s-6.26,9.43-9.49,14.07S365,533.66,361.55,538.18Z"/></g><g class="cls-12"><path class="cls-13" d="M17,562.82q4.17-7.43,8.66-14.62c3-4.82,6-9.57,9.13-14.32s6.25-9.42,9.49-14.07,6.53-9.24,10-13.76q-4.17,7.41-8.66,14.62c-3,4.82-6,9.57-9.12,14.31s-6.26,9.43-9.5,14.07S20.45,558.3,17,562.82Z"/></g><g class="cls-12"><path class="cls-13" d="M246.25,594.22q4.17-7.41,8.66-14.62c3-4.81,6-9.57,9.12-14.31s6.26-9.43,9.5-14.07,6.53-9.25,10-13.76q-4.17,7.41-8.66,14.62c-3,4.81-6,9.57-9.13,14.31s-6.25,9.42-9.49,14.07S249.68,589.7,246.25,594.22Z"/></g><g class="cls-12"><path class="cls-13" d="M71.7,596.18q4.17-7.41,8.66-14.62c3-4.81,6-9.57,9.13-14.31s6.26-9.43,9.49-14.07,6.54-9.25,10-13.76q-4.17,7.41-8.66,14.62c-3,4.81-6,9.57-9.13,14.31s-6.26,9.42-9.5,14.07S75.13,591.66,71.7,596.18Z"/></g><g class="cls-12"><path class="cls-13" d="M21.11,487.18q4.17-7.41,8.66-14.62c3-4.81,6-9.57,9.12-14.31s6.26-9.43,9.5-14.07,6.53-9.25,10-13.76q-4.17,7.41-8.66,14.62c-3,4.81-6,9.57-9.12,14.31s-6.26,9.42-9.5,14.07S24.54,482.66,21.11,487.18Z"/></g><g class="cls-12"><path class="cls-13" d="M1287,182.2q4.17-7.41,8.66-14.62c3-4.81,6-9.57,9.13-14.31s6.26-9.43,9.49-14.07,6.54-9.25,10-13.76q-4.15,7.41-8.65,14.62c-3,4.81-6,9.57-9.13,14.31s-6.26,9.42-9.5,14.07S1290.45,177.68,1287,182.2Z"/></g><g class="cls-12"><path class="cls-13" d="M1205,241.57q4.17-7.42,8.66-14.62c3-4.82,6-9.57,9.12-14.31s6.26-9.43,9.5-14.07,6.53-9.25,10-13.77q-4.17,7.42-8.66,14.62c-3,4.82-6,9.57-9.12,14.31s-6.26,9.43-9.5,14.07S1208.43,237.05,1205,241.57Z"/></g><g class="cls-12"><path class="cls-13" d="M1345,86q4.17-7.42,8.66-14.62c3-4.82,6-9.57,9.12-14.31s6.26-9.43,9.49-14.08,6.54-9.24,10-13.76q-4.17,7.41-8.66,14.62c-3,4.82-6,9.57-9.13,14.31s-6.26,9.43-9.49,14.07S1348.43,81.49,1345,86Z"/></g><g class="cls-12"><path class="cls-13" d="M1394.5,182.2q4.17-7.41,8.66-14.62c3-4.81,6-9.57,9.13-14.31s6.26-9.43,9.49-14.07,6.54-9.25,10-13.76q-4.15,7.41-8.65,14.62c-3,4.81-6,9.57-9.13,14.31s-6.26,9.42-9.5,14.07S1397.93,177.68,1394.5,182.2Z"/></g><g class="cls-12"><path class="cls-13" d="M1578.92,184.45q4.17-7.41,8.66-14.62c3-4.82,6-9.57,9.12-14.31s6.26-9.43,9.5-14.07,6.53-9.25,10-13.76q-4.17,7.41-8.66,14.61c-3,4.82-6,9.58-9.13,14.32s-6.25,9.42-9.49,14.07S1582.35,179.93,1578.92,184.45Z"/></g><g class="cls-12"><path class="cls-13" d="M1538.92,302.45q4.17-7.41,8.66-14.62c3-4.82,6-9.57,9.12-14.31s6.26-9.43,9.5-14.07,6.53-9.25,10-13.76q-4.17,7.41-8.66,14.61c-3,4.82-6,9.58-9.13,14.32s-6.25,9.42-9.49,14.07S1542.35,297.93,1538.92,302.45Z"/></g><g class="cls-12"><path class="cls-13" d="M1673.38,240.1q4.17-7.42,8.66-14.62c3-4.82,6-9.57,9.13-14.31s6.25-9.43,9.49-14.08,6.53-9.24,10-13.76q-4.17,7.42-8.66,14.62c-3,4.82-6,9.57-9.12,14.31s-6.26,9.43-9.5,14.07S1676.81,235.58,1673.38,240.1Z"/></g><g class="cls-12"><path class="cls-13" d="M1797,162.44q4.17-7.42,8.66-14.62c3-4.82,6-9.57,9.13-14.31s6.25-9.43,9.49-14.07,6.53-9.25,10-13.77q-4.17,7.42-8.66,14.62c-3,4.82-6,9.57-9.12,14.31s-6.26,9.43-9.5,14.07S1800.43,157.92,1797,162.44Z"/></g><g class="cls-12"><path class="cls-13" d="M1810.05,250.37q4.17-7.41,8.66-14.61c3-4.82,6-9.57,9.12-14.32s6.26-9.42,9.5-14.07,6.53-9.24,10-13.76q-4.17,7.41-8.66,14.62c-3,4.82-6,9.57-9.13,14.31s-6.26,9.43-9.49,14.07S1813.47,245.86,1810.05,250.37Z"/></g><g class="cls-12"><path class="cls-13" d="M1707.55,329.18q4.17-7.43,8.66-14.62c3-4.82,6-9.57,9.12-14.31s6.26-9.43,9.5-14.08,6.53-9.24,10-13.76q-4.17,7.41-8.66,14.62c-3,4.82-6,9.57-9.13,14.31s-6.26,9.43-9.49,14.07S1711,324.66,1707.55,329.18Z"/></g><g class="cls-12"><path class="cls-13" d="M1893.91,116.18q4.17-7.41,8.66-14.61c3-4.82,6-9.57,9.13-14.32s6.25-9.42,9.49-14.07,6.53-9.24,10-13.76Q1927,66.83,1922.49,74c-3,4.82-6,9.57-9.12,14.31s-6.26,9.43-9.5,14.07S1897.34,111.67,1893.91,116.18Z"/></g><g class="cls-12"><path class="cls-13" d="M1918.76,243.52q4.17-7.41,8.66-14.62c3-4.81,6-9.57,9.12-14.31s6.26-9.43,9.5-14.07,6.53-9.25,10-13.76q-4.17,7.41-8.66,14.62c-3,4.81-6,9.57-9.12,14.31s-6.26,9.42-9.5,14.07S1922.19,239,1918.76,243.52Z"/></g><g class="cls-12"><path class="cls-13" d="M1854.77,330.89q4.17-7.41,8.66-14.62c3-4.82,6-9.57,9.13-14.31s6.26-9.43,9.49-14.07,6.54-9.25,10-13.77q-4.17,7.42-8.66,14.62c-3,4.82-6,9.57-9.13,14.31s-6.26,9.43-9.5,14.07S1858.2,326.37,1854.77,330.89Z"/></g><g class="cls-12"><path class="cls-13" d="M1557.17,96.79q4.17-7.41,8.66-14.62c3-4.82,6-9.57,9.12-14.31s6.26-9.43,9.5-14.07,6.53-9.25,10-13.77q-4.17,7.42-8.66,14.62c-3,4.82-6,9.58-9.13,14.32s-6.25,9.42-9.49,14.06S1560.59,92.27,1557.17,96.79Z"/></g><g class="cls-12"><path class="cls-13" d="M1480.36,162.76q4.17-7.42,8.66-14.62c3-4.82,6-9.57,9.13-14.31s6.25-9.43,9.49-14.08,6.53-9.24,10-13.76q-4.17,7.42-8.66,14.62c-3,4.82-6,9.57-9.12,14.31s-6.26,9.43-9.5,14.07S1483.79,158.24,1480.36,162.76Z"/></g><g class="cls-12"><path class="cls-13" d="M1336.05,228.13q4.17-7.41,8.66-14.61c3-4.82,6-9.58,9.12-14.32s6.26-9.42,9.5-14.07,6.53-9.24,10-13.76q-4.17,7.41-8.66,14.62c-3,4.82-6,9.57-9.12,14.31s-6.26,9.43-9.5,14.07S1339.48,223.62,1336.05,228.13Z"/></g><g class="cls-12"><path class="cls-13" d="M1226.68,114.17q4.17-7.41,8.66-14.62c3-4.81,6-9.57,9.13-14.31s6.26-9.43,9.49-14.07,6.54-9.25,10-13.76q-4.17,7.41-8.66,14.62c-3,4.81-6,9.57-9.13,14.31s-6.26,9.42-9.5,14.07S1230.11,109.65,1226.68,114.17Z"/></g><g class="cls-12"><path class="cls-13" d="M1399.69,119.37q4.17-7.41,8.66-14.62c3-4.81,6-9.57,9.12-14.31s6.26-9.43,9.5-14.07,6.53-9.25,10-13.76q-4.17,7.41-8.66,14.62c-3,4.81-6,9.57-9.12,14.31s-6.26,9.42-9.5,14.07S1403.12,114.85,1399.69,119.37Z"/></g><g class="cls-12"><path class="cls-13" d="M1363,353.82q4.17-7.43,8.66-14.62c3-4.82,6-9.57,9.13-14.32s6.25-9.42,9.49-14.07,6.53-9.24,10-13.76q-4.17,7.41-8.66,14.62c-3,4.82-6,9.57-9.12,14.31s-6.26,9.43-9.5,14.07S1366.45,349.3,1363,353.82Z"/></g><g class="cls-12"><path class="cls-13" d="M1592.25,385.22q4.17-7.41,8.66-14.62c3-4.81,6-9.57,9.12-14.31s6.26-9.43,9.5-14.07,6.53-9.25,10-13.76q-4.17,7.41-8.66,14.62c-3,4.81-6,9.57-9.13,14.31s-6.25,9.42-9.49,14.07S1595.68,380.7,1592.25,385.22Z"/></g><g class="cls-12"><path class="cls-13" d="M1884.22,395.5q4.17-7.41,8.66-14.62c3-4.82,6-9.57,9.12-14.31s6.26-9.43,9.5-14.07,6.53-9.25,10-13.76q-4.17,7.41-8.66,14.61c-3,4.82-6,9.58-9.13,14.32s-6.26,9.42-9.49,14.07S1887.64,391,1884.22,395.5Z"/></g><g class="cls-12"><path class="cls-13" d="M1244.7,382q4.17-7.41,8.66-14.62c3-4.81,6-9.57,9.12-14.31s6.26-9.43,9.5-14.07,6.53-9.25,10-13.76q-4.17,7.41-8.66,14.62c-3,4.81-6,9.57-9.12,14.31s-6.26,9.42-9.5,14.07S1248.13,377.46,1244.7,382Z"/></g><g class="cls-12"><path class="cls-13" d="M1417.7,387.18q4.17-7.41,8.66-14.62c3-4.81,6-9.57,9.13-14.31s6.26-9.43,9.49-14.07,6.54-9.25,10-13.76q-4.17,7.41-8.66,14.62c-3,4.81-6,9.57-9.13,14.31s-6.26,9.42-9.5,14.07S1421.13,382.66,1417.7,387.18Z"/></g><g class="cls-12"><path class="cls-13" d="M1674.05,107.67q4.17-7.41,8.66-14.62c3-4.81,6-9.57,9.12-14.31s6.26-9.43,9.49-14.07,6.54-9.25,10-13.76q-4.17,7.41-8.66,14.62c-3,4.81-6,9.57-9.13,14.31s-6.26,9.42-9.49,14.07S1677.47,103.15,1674.05,107.67Z"/></g><g class="cls-12"><path class="cls-13" d="M1367.11,278.18q4.17-7.41,8.66-14.62c3-4.81,6-9.57,9.12-14.31s6.26-9.43,9.5-14.07,6.53-9.25,10-13.76q-4.17,7.41-8.66,14.62c-3,4.81-6,9.57-9.12,14.31s-6.26,9.42-9.5,14.07S1370.54,273.66,1367.11,278.18Z"/></g><g class="cls-12"><path class="cls-13" d="M1477.92,544.45q4.17-7.41,8.66-14.62c3-4.82,6-9.57,9.12-14.31s6.26-9.43,9.5-14.07,6.53-9.25,10-13.76q-4.17,7.41-8.66,14.61c-3,4.82-6,9.58-9.13,14.32s-6.25,9.42-9.49,14.07S1481.35,539.93,1477.92,544.45Z"/></g><g class="cls-12"><path class="cls-13" d="M1612.38,482.1q4.17-7.43,8.66-14.62c3-4.82,6-9.57,9.13-14.31s6.25-9.43,9.49-14.08,6.53-9.24,10-13.76q-4.17,7.43-8.66,14.62c-3,4.82-6,9.57-9.12,14.31s-6.26,9.43-9.5,14.07S1615.81,477.58,1612.38,482.1Z"/></g><g class="cls-12"><path class="cls-13" d="M1749.05,492.37q4.17-7.41,8.66-14.61c3-4.82,6-9.57,9.12-14.32s6.26-9.42,9.5-14.07,6.53-9.24,10-13.76q-4.17,7.41-8.66,14.62c-3,4.82-6,9.57-9.13,14.31s-6.26,9.43-9.49,14.07S1752.47,487.86,1749.05,492.37Z"/></g><g class="cls-12"><path class="cls-13" d="M1646.55,571.18q4.17-7.42,8.66-14.62c3-4.82,6-9.57,9.12-14.31s6.26-9.43,9.5-14.08,6.53-9.24,10-13.76q-4.17,7.41-8.66,14.62c-3,4.82-6,9.57-9.13,14.31s-6.26,9.43-9.49,14.07S1650,566.66,1646.55,571.18Z"/></g><g class="cls-12"><path class="cls-13" d="M1793.77,572.89q4.17-7.41,8.66-14.62c3-4.82,6-9.57,9.13-14.31s6.26-9.43,9.49-14.07,6.54-9.25,10-13.77q-4.17,7.43-8.66,14.62c-3,4.82-6,9.57-9.13,14.31s-6.26,9.43-9.5,14.07S1797.2,568.37,1793.77,572.89Z"/></g><g class="cls-12"><path class="cls-13" d="M1302,595.82q4.17-7.43,8.66-14.62c3-4.82,6-9.57,9.13-14.32s6.25-9.42,9.49-14.07,6.53-9.24,10-13.76q-4.17,7.41-8.66,14.62c-3,4.82-6,9.57-9.12,14.31s-6.26,9.43-9.5,14.07S1305.45,591.3,1302,595.82Z"/></g><g class="cls-12"><path class="cls-13" d="M1531.25,627.22q4.17-7.41,8.66-14.62c3-4.81,6-9.57,9.12-14.31s6.26-9.43,9.5-14.07,6.53-9.25,10-13.76q-4.17,7.41-8.66,14.62c-3,4.81-6,9.57-9.13,14.31s-6.25,9.42-9.49,14.07S1534.68,622.7,1531.25,627.22Z"/></g><g class="cls-12"><path class="cls-13" d="M1823.22,637.5q4.17-7.41,8.66-14.62c3-4.82,6-9.57,9.12-14.31s6.26-9.43,9.5-14.07,6.53-9.25,10-13.76q-4.17,7.41-8.66,14.61c-3,4.82-6,9.58-9.13,14.32s-6.26,9.42-9.49,14.07S1826.64,633,1823.22,637.5Z"/></g><g class="cls-12"><path class="cls-13" d="M1356.7,629.18q4.17-7.41,8.66-14.62c3-4.81,6-9.57,9.13-14.31s6.26-9.43,9.49-14.07,6.54-9.25,10-13.76q-4.17,7.41-8.66,14.62c-3,4.81-6,9.57-9.13,14.31s-6.26,9.42-9.5,14.07S1360.13,624.66,1356.7,629.18Z"/></g><g class="cls-12"><path class="cls-13" d="M1306.11,520.18q4.17-7.41,8.66-14.62c3-4.81,6-9.57,9.12-14.31s6.26-9.43,9.5-14.07,6.53-9.25,10-13.76q-4.17,7.41-8.66,14.62c-3,4.81-6,9.57-9.12,14.31s-6.26,9.42-9.5,14.07S1309.54,515.66,1306.11,520.18Z"/></g><g class="cls-12"><path class="cls-13" d="M492,546.2q4.17-7.41,8.66-14.62c3-4.81,6-9.57,9.13-14.31s6.26-9.43,9.49-14.07,6.54-9.25,10-13.76q-4.15,7.41-8.65,14.62c-3,4.81-6,9.57-9.13,14.31s-6.26,9.42-9.5,14.07S495.45,541.68,492,546.2Z"/></g><g class="cls-12"><path class="cls-13" d="M410,605.57q4.17-7.43,8.66-14.62c3-4.82,6-9.57,9.12-14.31s6.26-9.43,9.5-14.07,6.53-9.25,10-13.77q-4.17,7.43-8.66,14.62c-3,4.82-6,9.57-9.12,14.31s-6.26,9.43-9.5,14.07S413.43,601.05,410,605.57Z"/></g><g class="cls-12"><path class="cls-13" d="M550,450q4.17-7.42,8.66-14.62c3-4.82,6-9.57,9.12-14.31s6.26-9.43,9.49-14.08,6.54-9.24,10-13.76q-4.17,7.41-8.66,14.62c-3,4.82-6,9.57-9.13,14.31s-6.26,9.43-9.49,14.07S553.43,445.49,550,450Z"/></g><g class="cls-12"><path class="cls-13" d="M599.5,546.2q4.17-7.41,8.66-14.62c3-4.81,6-9.57,9.13-14.31s6.26-9.43,9.49-14.07,6.54-9.25,10-13.76q-4.15,7.41-8.65,14.62c-3,4.81-6,9.57-9.13,14.31s-6.26,9.42-9.5,14.07S602.93,541.68,599.5,546.2Z"/></g><g class="cls-12"><path class="cls-13" d="M783.92,548.45q4.17-7.41,8.66-14.62c3-4.82,6-9.57,9.12-14.31s6.26-9.43,9.5-14.07,6.53-9.25,10-13.76Q817,499.1,812.5,506.3c-3,4.82-6,9.58-9.13,14.32s-6.25,9.42-9.49,14.07S787.35,543.93,783.92,548.45Z"/></g><g class="cls-12"><path class="cls-13" d="M878.38,604.1q4.17-7.43,8.66-14.62c3-4.82,6-9.57,9.13-14.31s6.25-9.43,9.49-14.08,6.53-9.24,10-13.76Q911.45,554.75,907,562c-3,4.82-6,9.57-9.12,14.31s-6.26,9.43-9.5,14.07S881.81,599.58,878.38,604.1Z"/></g><g class="cls-12"><path class="cls-13" d="M1002,526.44q4.17-7.43,8.66-14.62c3-4.82,6-9.57,9.13-14.31s6.25-9.43,9.49-14.07,6.53-9.25,10-13.77q-4.17,7.43-8.66,14.62c-3,4.82-6,9.57-9.12,14.31s-6.26,9.43-9.5,14.07S1005.43,521.92,1002,526.44Z"/></g><g class="cls-12"><path class="cls-13" d="M1015.05,614.37q4.17-7.41,8.66-14.61c3-4.82,6-9.57,9.12-14.32s6.26-9.42,9.5-14.07,6.53-9.24,10-13.76q-4.17,7.41-8.66,14.62c-3,4.82-6,9.57-9.13,14.31s-6.26,9.43-9.49,14.07S1018.47,609.86,1015.05,614.37Z"/></g><g class="cls-12"><path class="cls-13" d="M912.55,693.18q4.17-7.42,8.66-14.62c3-4.82,6-9.57,9.12-14.31s6.26-9.43,9.5-14.08,6.53-9.24,10-13.76q-4.17,7.41-8.66,14.62c-3,4.82-6,9.57-9.13,14.31s-6.26,9.43-9.49,14.07S916,688.66,912.55,693.18Z"/></g><g class="cls-12"><path class="cls-13" d="M1098.91,480.18q4.17-7.41,8.66-14.61c3-4.82,6-9.57,9.13-14.32s6.25-9.42,9.49-14.07,6.53-9.24,10-13.76q-4.17,7.41-8.66,14.62c-3,4.82-6,9.57-9.12,14.31s-6.26,9.43-9.5,14.07S1102.34,475.67,1098.91,480.18Z"/></g><g class="cls-12"><path class="cls-13" d="M1123.76,607.52q4.17-7.41,8.66-14.62c3-4.81,6-9.57,9.12-14.31s6.26-9.43,9.5-14.07,6.53-9.25,10-13.76q-4.17,7.41-8.66,14.62c-3,4.81-6,9.57-9.12,14.31s-6.26,9.42-9.5,14.07S1127.19,603,1123.76,607.52Z"/></g><g class="cls-12"><path class="cls-13" d="M1059.77,694.89q4.17-7.41,8.66-14.62c3-4.82,6-9.57,9.13-14.31s6.26-9.43,9.49-14.07,6.54-9.25,10-13.77q-4.17,7.43-8.66,14.62c-3,4.82-6,9.57-9.13,14.31s-6.26,9.43-9.5,14.07S1063.2,690.37,1059.77,694.89Z"/></g><g class="cls-12"><path class="cls-13" d="M762.17,460.79q4.17-7.41,8.66-14.62c3-4.82,6-9.57,9.12-14.31s6.26-9.43,9.5-14.07,6.53-9.25,10-13.77q-4.17,7.43-8.66,14.62c-3,4.82-6,9.58-9.13,14.32s-6.25,9.42-9.49,14.06S765.59,456.27,762.17,460.79Z"/></g><g class="cls-12"><path class="cls-13" d="M685.36,526.76q4.17-7.43,8.66-14.62c3-4.82,6-9.57,9.13-14.31s6.25-9.43,9.49-14.08,6.53-9.24,10-13.76q-4.17,7.42-8.66,14.62c-3,4.82-6,9.57-9.12,14.31s-6.26,9.43-9.5,14.07S688.79,522.24,685.36,526.76Z"/></g><g class="cls-12"><path class="cls-13" d="M541.05,592.13q4.17-7.41,8.66-14.61c3-4.82,6-9.58,9.12-14.32s6.26-9.42,9.5-14.07,6.53-9.24,10-13.76q-4.17,7.41-8.66,14.62c-3,4.82-6,9.57-9.12,14.31s-6.26,9.43-9.5,14.07S544.48,587.62,541.05,592.13Z"/></g><g class="cls-12"><path class="cls-13" d="M431.68,478.17q4.17-7.41,8.66-14.62c3-4.81,6-9.57,9.13-14.31s6.26-9.43,9.49-14.07,6.54-9.25,10-13.76q-4.17,7.41-8.66,14.62c-3,4.81-6,9.57-9.13,14.31s-6.26,9.42-9.5,14.07S435.11,473.65,431.68,478.17Z"/></g><g class="cls-12"><path class="cls-13" d="M604.69,483.37q4.17-7.41,8.66-14.62c3-4.81,6-9.57,9.12-14.31s6.26-9.43,9.5-14.07,6.53-9.25,10-13.76q-4.17,7.41-8.66,14.62c-3,4.81-6,9.57-9.12,14.31s-6.26,9.42-9.5,14.07S608.12,478.85,604.69,483.37Z"/></g><g class="cls-12"><path class="cls-13" d="M879.05,471.67q4.17-7.41,8.66-14.62c3-4.81,6-9.57,9.12-14.31s6.26-9.43,9.49-14.07,6.54-9.25,10-13.76q-4.17,7.41-8.66,14.62c-3,4.81-6,9.57-9.13,14.31s-6.26,9.42-9.49,14.07S882.47,467.15,879.05,471.67Z"/></g><g class="cls-12"><path class="cls-13" d="M572.11,642.18q4.17-7.41,8.66-14.62c3-4.81,6-9.57,9.12-14.31s6.26-9.43,9.5-14.07,6.53-9.25,10-13.76q-4.17,7.41-8.66,14.62c-3,4.81-6,9.57-9.12,14.31s-6.26,9.42-9.5,14.07S575.54,637.66,572.11,642.18Z"/></g><path class="cls-14" d="M720.44,536.37,738,604.87s53,34.44,155.33,22.27S1081,595.58,1137.26,512c0,0,12.63-22.5-25.46-30.41s-167.89-36-323.48,13.18Z"/><path class="cls-15" d="M1118.17,503s19.32-5.9,10.29-15.59a56.14,56.14,0,0,0-16.66-5.84c-38.08-7.92-167.89-36-323.48,13.18l-67.88,41.62S952.72,572.37,1118.17,503Z"/><path class="cls-16" d="M748.72,532.78,805,495.45s177.32-43.51,313.3-5c0,0-63.9,41.18-217,48.84C901.32,539.25,779.28,545.54,748.72,532.78Z"/><path class="cls-14" d="M784.9,539.13l22.81-18.83L805,495.45l-56.28,37.33C756.27,535.93,769.41,537.92,784.9,539.13Z"/><path class="cls-14" d="M1116.78,476.49l18.55,4s13.32,54.16-59.56,93.16c0,0,41.72-63,34.71-90.45Z"/><path class="cls-17" d="M1111.23,488.5c-135-35.06-306.23,6.95-306.23,6.95l2.71,24.85s167.34-15.25,234.68-6.51l28.87-3.15c19.38-6.44,32.44-12.43,39.79-16.2A41.46,41.46,0,0,0,1111.23,488.5Z"/><polygon class="cls-7" points="1110.48 483.22 1116.78 476.5 1135.33 480.51 1129.96 488.13 1110.48 483.22"/><path class="cls-15" d="M1135.36,480.63l-5.24,7.49c-2.32,31.56-40.14,71.72-53.75,85.22C1146.63,535.42,1136,483.4,1135.36,480.63Z"/><path class="cls-18" d="M727.67,564.59s163.08,51.86,368.67-27.67"/><path class="cls-18" d="M734.07,589.59s143.38,49.29,345.26-21.12"/><path class="cls-18" d="M766.79,537.68l38.71-26.49s133.42-27.67,290.89-10"/><polygon class="cls-7" points="868.28 494.57 909.47 494.1 859.72 540.59 816.03 540.58 868.28 494.57"/><path class="cls-14" d="M872.51,540.31,910.66,505l-1.19-10.94-49.75,46.49C864.22,540.51,868.51,540.41,872.51,540.31Z"/><path class="cls-14" d="M859.72,540.59H857.9l0,0Z"/><path class="cls-7" d="M1111.67,494.12h0l-73.42-9.05-39,43.43C1061.9,517.31,1097.84,501.29,1111.67,494.12Z"/><path class="cls-18" d="M1108.36,507.72s-21.83,58.92-36.42,68.44"/><path class="cls-4" d="M990.64,529.52a27.34,27.34,0,0,0,10.43-9.07,7,7,0,0,0,1.19-5.57c-1.06-4.4-5.92-4.88-9.91-5q-9.47-.25-18.87-1.41a47.26,47.26,0,0,0-10.41-.61c-6.09.59-12,3.8-18,3.28a3.83,3.83,0,0,1-2.16-.9h0c-3.44-1.35-5.5.65-9,1.93-2.61,1-4.89,2.61-7.36,3.88-4.39,2.27-9.35,3.35-13.58,5.91s-7.75,7.39-6.55,12.19a10.31,10.31,0,0,0,2.79,4.66,785.46,785.46,0,0,0,80-8.62Z"/><path class="cls-6" d="M935.4,525.49s4.84-5.15,7.9-3.25,11.06,1.65,12-1.38c0,0,1.09,3-5.91,3.19S942.24,520.28,935.4,525.49Z"/><path class="cls-6" d="M951.27,521s6-1.19,6.9-3.22S951.27,521,951.27,521Z"/><path class="cls-6" d="M986.34,522.89s-4.84,5.15-8.83,5.28c-8.06.25-6.1-2.81-12,.38,0,0-.09-3,3.94-2.13S978.51,528.14,986.34,522.89Z"/><path class="cls-6" d="M914.57,531.15s4.87-4.15,10-1.31,7,.78,7,.78,2.06,1.93-5,1.15C926.59,531.77,920.47,528,914.57,531.15Z"/><path class="cls-4" d="M183.6,462.5c43.19-11.35,98.53,82,151.17,93.35s86.38,21.44,139,45.41,103.92,10.09,118.77-7.57,2.7-22.71,27-21.45,45.89-7.56,60.74-26.48,37.79-25.23,49.94-10.1,45.89,21.45,79.63,21.45,39.14,30.27,81,21.44,59.39,27.75,102.58,12.62,75.58-30.28,108-35.32,18.89-18.92,63.43-34.06,58-41.63,79.63-82,60.74-11.36,82.34,8.83,56.68,25.23,114.72,20.18,95.83,75.68,136.32,85.77,90.43,21.45,129.57,41.63c19.67,10.14,36.6,11.68,48.59,10.71V728.66H136.36L-45,468.5c5.58,1.8,112.92-8.45,131-7C115.06,463.83,173.7,465.11,183.6,462.5Z"/><path class="cls-6" d="M1216.8,677.57s41.84-3.78,49.93,13.88,17.55,35.32,56.69,24,33.74-22.7,18.9-27.75-56.69-12.61-56.69-25.23-8.1-21.44-8.1-21.44l-36.44-31.53-36.44-17.66-59.39,40.36-25.64,40.37S1098,705.32,1134.46,694s41.84-36.58,62.09-26.49Z"/><path class="cls-6" d="M1636.55,711.63c-25.64-2.52-25.64,2.52-44.54-36.58s-58-29-76.93-45.41,16.2-17.66,24.29-42.89-47.24,1.26-47.24-17.66S1474,542.16,1474,542.16s-68.27,87.48-91.21,96.31-31-31.54-24.3-56.77-31,11.36-86.38-2.52-1.35-46.67,28.35-59.28-17.55-34.06,9.44-39.11c14.83-2.77,14.59-21.14,11.36-37.15,1.94,1.7,3.79,3.37,5.52,5,21.59,20.18,56.68,25.23,114.72,20.18s95.83,75.68,136.32,85.77,90.43,21.45,129.57,41.63c19.67,10.14,36.6,11.68,48.59,10.71l141,15.58c-20.39,2.21-202.09,47.86-205.11,60.12-4.05,16.4,44.54,2.52,52.64,22.7,2.15,5.36,6.4,8.39,11.47,10v13.36h-89.32C1669,717,1658.93,713.83,1636.55,711.63Z"/><path class="cls-6" d="M906.37,654.87c-24.3-16.4-45.89-1.27-8.1,45.41s-78.29,1.26-87.73-24,25.64-3.78,39.14-21.44-27-13.88-24.3-35.32,0-20.19-29.69-13.88-41.17,5.68-37.12,28.38.68,20.82-25,5.68-17.54,8.83-40.49,6.31-13.49-26.49-6.75-46.68-35.09-12.61-35.09-12.61L652.62,617s-8.1,30.28-.53,37.12,11.33,23.43-25.11,43.61S577,682.62,600,661.17s-5.39-6.3-41.84-6.3c-29.3,0-26.31-29.34-24-40.85,27.53-.53,49.54-9.74,58.44-20.33,14.85-17.66,2.7-22.71,27-21.45s45.89-7.56,60.74-26.48,37.79-25.23,49.94-10.1,45.89,21.45,79.63,21.45,39.14,30.27,81,21.44c14.73-3.11,26.44-.59,37.32,3.32l13.3,15,4,29,21.59,26.49S930.66,671.26,906.37,654.87Z"/><path class="cls-6" d="M-5,474.5c14.55,4.69,172.53-7.77,188.6-12,43.19-11.35,98.53,82,151.17,93.35s86.38,21.44,139,45.41c.53.24,1.06.45,1.6.69l5.82,11.29,1.35,20.18,17.55,21.45S482.56,670,455,672.81s27.55,32.51,58.59,40.08c10.34,2.52,15.87,8.68,18.67,15.77h-125q-4.56-2.32-9.74-4.42c-37.79-15.13-35.09-13.87-32.39-37.84s-39.14-17.66-85-35.32S286.85,617,299,586.75s-47.24-2.52-40.49-29-30,3.26-30,3.26-29,69.27-61.82,72.42C41,645.5,3.85,579.91-5,577.5Z"/><path class="cls-19" d="M183.6,461.5c43.19-11.35,98.53,83,151.17,94.35s86.38,21.44,139,45.41,103.92,10.09,118.77-7.57,2.7-22.71,27-21.45,45.89-7.56,60.74-26.48,37.79-25.23,49.94-10.1,45.89,21.45,79.63,21.45,39.14,30.27,81,21.44,59.39,27.75,102.58,12.62,75.58-30.28,108-35.32,18.89-18.92,63.43-34.06,58-41.63,79.63-82,60.74-11.36,82.34,8.83,56.68,25.23,114.72,20.18,95.83,75.68,136.32,85.77,90.43,21.45,129.57,41.63c19.67,10.14,200.6-3.74,212.59-4.71l1,30c-2.08-.51-51,10-101,0-35.28-7.06-75.74,16-78.17,18.23-13.5,12.61-36.44,0-39.14-10.09s-25.65-13.88-41.84-20.18-12.15-18.93-24.3-25.23-22.94-15.14-33.74-10.09c-5.75,2.68-11.89,0-16.36-3.09a82.48,82.48,0,0,0-23-10.87c-9.92-3-21.2-6.23-24.08-6.23-5.4,0-16.19-21.44-32.39-16.39s-48.59,24-47.24,44.14,4,10.1-10.8,18.93,0,15.13-13.49,18.92-17.55,11.35-4,18.92,47.24,10.09,43.19,16.4-9.45,1.26-24.3,0-31-3.79-32.39-13.88-29.69-12.61-6.75-25.23,24.3-15.13,24.3-31.53,9.44-11.35,22.94-24,4-11.35,24.3-24,6.74-22.7-8.1-24-28.35-3.79-29.7-16.4-41.84-7.57-36.44,6.31,24.3,27.75,14.85,45.41-35.09,34.05-48.59,25.23-4-10.1,14.85-12.62,25.64-17.66,24.29-34.06-17.54-27.75-29.69-21.44-33.74,11.35-33.74-6.31,4-26.49-14.85-29-29.69-3.78-43.19-17.66-35.09,2.52-41.84,12.61,1.35,13.88-12.15,20.19,12.15,32.79,0,37.84-16.2,15.14-4.05,24-24.29,12.61-6.75,27.75,37.79,15.13,33.75,31.53,22.94,22.71,36.44,39.1,17.54-11.35,35.09,12.62,48.59,2.52,48.59,27.75-6.75,10.09-14.85,0-9.45-5-27-6.31-16.2-20.18-33.74-11.35c-19.51,9.81-47.34,4-37.19-13.84,8-14,1.42-23.11-15.29-20.25-14.92,2.56-27.12,1.35-38-12.58s-54-2.52-52.64,16.4-1.35,24-16.2,25.22,8.1,15.14-10.8,20.19-27,16.4-10.79,25.22a84.66,84.66,0,0,1,24.71,20.82H1124c-1.94-5.18-5.92-10-13.81-12-20.25-5-37.79-16.39-18.9-29s-6.74-16.4,13.5-25.23,24.3-22.7,10.8-25.22-16.2,8.83-32.39,12.61-17.55,1.26-28.35,12.61-17.54,0-33.74,10.1-39.14,22.7-36.44,10.09,9.45-1.26,18.89-12.62,14.85-5,48.59-18.92,31-50.45,70.19-46.67c0,0,9.44,2.52,22.94,12.61s31-12.61,16.2-17.66-17.55-16.39,5.4-31.53,32.39-31.54,14.84-39.1-16.19,12.61-29.69,21.44-45.89,7.57-43.19,24-9.45,37.84-25.64,25.22-28.35-17.66-49.94-10.09-4,30.28-23,27.75-20.24-3.78-35.09-5-32.39,8.83-16.2,16.4,12.15,10.09,28.35,18.92,8.1,13.87-12.15,13.87-23-12.61-37.79-11.35-28.35-16.4-12.15-24,16.2-15.13,2.7-26.49-25.64-13.87-39.14-7.56-23-2.53-33.74,2.52-23-21.44-33.75-20.18-47.24-13.88-58-10.09-27-18.93-39.14-13.88-17.55,8.83-31,7.57,0,10.09-16.19,16.4-27,17.66-18.9,25.22,1.35,6.31,4.05,18.93-14.85,12.61-2.7,26.48-4,16.4-14.85,2.53-1.35-10.09,0-27.75,0-37.85-14.84-37.85-18.9,5-32.4,25.23-31,6.31-44.54,20.19-49.93,3.78-49.93,15.13S548.7,656.13,539.25,665s-25.65-5.05-36.44,2.52,27,2.52,14.84,12.61-67.48,15.14-70.18,5,10.8-12.61,24.29-7.57,27-17.66,10.8-24-72.88-15.13-55.34-20.18,41.84,13.88,41.84-2.52S424.52,612,424.52,612s-20.24-2.52-18.89-20.18-43.19-13.88-43.19-13.88-37.79,2.52-48.59-17.66-45.89-32.8-59.39-21.44-44.54,31.53-32.39,47.93-13.5,6.31-18.9,24-43.19,11.35-20.24,24S241,646,232.87,653.6s-9.45-2.52-28.35-1.26-59.38-7.57-47.24-21.44,12.15-8.83,31.05-24-4.05-29,10.79-37.84,22.95-3.78,25.65-18.92,22.94-8.83,21.59-24-40.49-8.83-41.84-24-40.49-21.45-32.39-6.31,24.29,20.18,13.5,41.63-12.15,31.53-31,36.58c-2.49.66-5,1.3-7.42,1.9a8.76,8.76,0,0,1-10.8-8.52h0a4.75,4.75,0,0,1,4.73-4.73h0c13.49,0,31-6.3,29.69-22.7s0-31.54-13.5-32.8c-5.07-.47-13-.06-20.92.65l-41.63-2.42A360.55,360.55,0,0,1,26.3,494.88L-73,469.5l150-12C110,456.5,167.53,465.73,183.6,461.5Z"/><ellipse class="cls-19" cx="1641.28" cy="637.84" rx="8.1" ry="3.78"/><ellipse class="cls-19" cx="1619.68" cy="651.08" rx="8.1" ry="3.15"/><ellipse class="cls-19" cx="1626.43" cy="622.7" rx="6.75" ry="2.52"/><ellipse class="cls-19" cx="1587.96" cy="606.93" rx="6.07" ry="4.41"/><ellipse class="cls-19" cx="1665.57" cy="659.28" rx="4.05" ry="1.26"/><ellipse class="cls-19" cx="1480.66" cy="657.39" rx="6.75" ry="3.15"/><ellipse class="cls-19" cx="1365.26" cy="546.39" rx="3.37" ry="3.15"/><ellipse class="cls-19" cx="1339.62" cy="524.94" rx="7.42" ry="4.41"/><ellipse class="cls-19" cx="1326.8" cy="507.28" rx="5.4" ry="3.15"/><ellipse class="cls-19" cx="1317.35" cy="539.45" rx="6.75" ry="3.78"/><ellipse class="cls-19" cx="1291.03" cy="495.93" rx="6.07" ry="3.15"/><ellipse class="cls-19" cx="1252.56" cy="663.07" rx="2.7" ry="2.52"/><ellipse class="cls-19" cx="1034.59" cy="639.1" rx="4.72" ry="2.52"/><ellipse class="cls-19" cx="874.65" cy="632.79" rx="4.05" ry="3.78"/><ellipse class="cls-19" cx="642.5" cy="663.07" rx="5.4" ry="2.52"/><ellipse class="cls-19" cx="402.25" cy="637.21" rx="8.1" ry="4.41"/><ellipse class="cls-19" cx="390.78" cy="619.55" rx="6.07" ry="3.15"/><ellipse class="cls-19" cx="355.01" cy="607.56" rx="5.4" ry="3.78"/><ellipse class="cls-19" cx="425.87" cy="658.65" rx="6.07" ry="1.89"/><ellipse class="cls-19" cx="379.98" cy="649.19" rx="7.42" ry="3.78"/><ellipse class="cls-19" cx="250.41" cy="652.34" rx="4.72" ry="3.15"/><ellipse class="cls-19" cx="150.53" cy="591.8" rx="6.07" ry="3.15"/><ellipse class="cls-19" cx="129.36" cy="527.27" rx="6.07" ry="3.15"/><ellipse class="cls-19" cx="104.35" cy="540.31" rx="8.07" ry="4.19"/><path class="cls-7" d="M961.74,484.05l-4.81-4.86a1.67,1.67,0,0,0-2.67.42l-3,6L843.74,589.21a13.05,13.05,0,0,0-16.42,1.38l-42.21,40.69,18.12,18.79,42.2-40.69a13,13,0,0,0,2.42-15.6l107.9-104.19,5.57-2.89A1.66,1.66,0,0,0,961.74,484.05Z"/><path class="cls-4" d="M817.61,636.2l9.39,1.3-11,4-12,14-9-3-10-11-6-11,6.11-11S791.22,634.9,817.61,636.2Z"/><path class="cls-6" d="M785,625.5s10,14,27,14C812,639.5,794,642.5,785,625.5Z"/><path class="cls-6" d="M784,628.5s10,14,27,14C811,642.5,793,645.5,784,628.5Z"/><path class="cls-13" d="M1194.68,574.73s-9.78,9.32-9.58,23.21c0,0,6.38-13.71,12.9-18.16Z"/><path class="cls-13" d="M1200.1,584s-8.07,6.23-7.29,15.58c0,0,8.09-11.51,10.12-11.91Z"/><path class="cls-13" d="M1209.52,589.56s-9.1,4.58-10.11,13.9c0,0,10.12-9.76,12.19-9.76Z"/><path class="cls-13" d="M1213.72,598s-9.1,4.58-10.12,13.91c0,0,10.13-9.77,12.2-9.77Z"/><path class="cls-13" d="M1218.09,605.19s-9.11,4.57-10.12,13.9c0,0,10.13-9.76,12.2-9.77Z"/><path class="cls-13" d="M1166.26,621.28s-2-20.07,6.26-28.25c0,0-5.58,17.77-2.28,28.1Z"/><path class="cls-13" d="M1179.82,597.92s-9.13,9.4-8.2,22.73l5.2.67S1174.42,609.12,1179.82,597.92Z"/><path class="cls-13" d="M1185.88,607.29s-8.79,6.8-7.28,15.58l5.2.66S1182.53,612.8,1185.88,607.29Z"/><path class="cls-13" d="M1193.26,611.54s-5.13,4-5.08,13.87l3.9.5A25.58,25.58,0,0,1,1193.26,611.54Z"/><path class="cls-13" d="M1201,618.47s-4,.15-5.31,10.54l3.25.42S1198.6,621.47,1201,618.47Z"/><path class="cls-13" d="M1207,623.2s-4,.15-5.32,10.55l3.25.41S1204.59,626.2,1207,623.2Z"/><path class="cls-11" d="M1308.28,587.65s-14.73,6.69-36.71-7.35-45.08-29.56-68.87-8.83c0,0-15.27-4.6-9.85,4.68s21.24,40.37,21.19,56.21c0,0-37.8-19.37-49.28-12.26-10.69,6.62,32.62,18.16,49.92,27.56a16.92,16.92,0,0,0,10,2c2.81-.33,5.45-1.22,5.41-3.39,0,0,29.16,4.4,65.92-29.86,0,0,14.82-12.62,20.76-12.52A29.39,29.39,0,0,0,1308.28,587.65Z"/><path class="cls-20" d="M1235.18,588.51l5.44-21.76s-.5,3.9,6.81,3.52a7,7,0,0,0,7.13,6.2,9,9,0,0,0,4,5.13s-.75,5.85,1.85,6.18l-14.25,8.08S1242.41,588.78,1235.18,588.51Z"/><path class="cls-11" d="M1216.09,536.53s-14.78,22.54-16.69,37.49l-4.29-2.86s12.65-21.17,16.28-39.2Z"/><circle class="cls-21" cx="1215.46" cy="531.16" r="5.9"/><ellipse class="cls-13" cx="1212.01" cy="581.25" rx="5.57" ry="4.26" transform="translate(481.33 1709.48) rotate(-82.69)"/><circle class="cls-11" cx="1209.69" cy="581.28" r="1.97"/><g class="cls-22"><path class="cls-23" d="M1230.45,646c10.2-12.57,9.83-25.16,9.83-25.16,5.63,17.89,22.14,12.74,44.7-3.52,15.7-11.31,26.25-15,31.22-16.15a19.63,19.63,0,0,1,.56,2.73c-5.94-.1-20.76,12.52-20.76,12.52-35.34,32.93-63.65,30.14-65.78,29.88Z"/><path class="cls-23" d="M1229,648.36a9.39,9.39,0,0,1,1.09-1.84A2.46,2.46,0,0,1,1229,648.36Z"/></g><path class="cls-11" d="M1271.57,580.3c-5.07-3.24-10.21-6.56-15.39-9.5,2.61-3.92,9.52-13,17.29-13,0,0,2.1,4.23,8.6,5.06a6.22,6.22,0,0,0,5.83,6s1.77,6.83,5.66,7.33c0,0-2.61,5,3.72,7.09l1.31,6C1292.14,589.23,1282.81,587.48,1271.57,580.3Z"/><path class="cls-11" d="M1309.42,588.85l-.78-1.49,7.95-20.77c1.62,2.85,6.5.83,6.5.83-.67,5.2,8.11,3.68,8.11,3.68-2.61,4.95,5.58,8,5.58,8-2,5,4.77,9.2,4.77,9.2-3.77,8.77,1.83,11.46,1.83,11.46-2.93,2.27-1.33,10.4-1.33,10.4-9.17-5.8-24.93-6.5-24.93-6.5l-.62-1.19A30.19,30.19,0,0,0,1309.42,588.85Z"/><path class="cls-20" d="M1271.57,580.3c-5.07-3.24-10.21-6.56-15.39-9.5,2.61-3.92,9.52-13,17.29-13,0,0,2.1,4.23,8.6,5.06a6.22,6.22,0,0,0,5.83,6s1.77,6.83,5.66,7.33c0,0-2.61,5,3.72,7.09l1.31,6C1292.14,589.23,1282.81,587.48,1271.57,580.3Z"/><path class="cls-20" d="M1309.42,588.85l-.78-1.49,7.95-20.77c1.62,2.85,6.5.83,6.5.83-.67,5.2,8.11,3.68,8.11,3.68-2.61,4.95,5.58,8,5.58,8-2,5,4.77,9.2,4.77,9.2-3.77,8.77,1.83,11.46,1.83,11.46-2.93,2.27-1.33,10.4-1.33,10.4-9.17-5.8-24.93-6.5-24.93-6.5l-.62-1.19A30.19,30.19,0,0,0,1309.42,588.85Z"/></g></svg>